<svg xmlns="http://www.w3.org/2000/svg" width="106" height="106" fill="none" viewBox="0 0 106 106"><filter id="a" width="105.81" height="106" x="0" y="0" color-interpolation-filters="sRGB" filterUnits="userSpaceOnUse"><feFlood flood-opacity="0" result="BackgroundImageFix"/><feBlend in="SourceGraphic" in2="BackgroundImageFix" mode="normal" result="shape"/><feGaussianBlur result="effect1_foregroundBlur" stdDeviation="14"/></filter><radialGradient id="b" cx="0" cy="0" r="1" gradientTransform="matrix(0 25 -24.9051 0 52.9051 53)" gradientUnits="userSpaceOnUse"><stop offset="0" stop-color="#a078df"/><stop offset="1" stop-color="#916ad6"/></radialGradient><g filter="url(#a)" opacity=".48"><path fill="url(#b)" d="m77.8103 56.0952c-1.8314.5875-3.7838.9048-5.8103.9048-10.4934 0-19-8.5066-19-19 0-3.6064 1.0048-6.9781 2.7497-9.8505-.903-.0988-1.8204-.1495-2.7497-.1495-13.8071 0-25 11.1929-25 25s11.1929 25 25 25c12.7591 0 23.2857-9.5582 24.8103-21.9048z"/></g><path fill="url(#b)" d="m77.8103 56.0952c-1.8314.5875-3.7838.9048-5.8103.9048-10.4934 0-19-8.5066-19-19 0-3.6064 1.0048-6.9781 2.7497-9.8505-.903-.0988-1.8204-.1495-2.7497-.1495-13.8071 0-25 11.1929-25 25s11.1929 25 25 25c12.7591 0 23.2857-9.5582 24.8103-21.9048z"/></svg>