<svg height="362" viewBox="0 0 200 200" width="362" xmlns="http://www.w3.org/2000/svg">
	<rect fill="#fff" height="200" width="200"/>
	<defs>
		<linearGradient gradientUnits="userSpaceOnUse" id="a" x1="88" x2="0" y1="88" y2="0">
			<stop offset="0" stop-color="#8f5500"/>
			<stop offset="1" stop-color="#e38700"/>
		</linearGradient>
		<linearGradient gradientUnits="userSpaceOnUse" id="b" x1="75" x2="168" y1="76" y2="160">
			<stop offset="0" stop-color="#8f8f8f"/>
			<stop offset=".09" stop-color="#b3b3b3"/>
			<stop offset=".18" stop-color="#c9c9c9"/>
			<stop offset=".31" stop-color="#dbdbdb"/>
			<stop offset=".44" stop-color="#e8e8e8"/>
			<stop offset=".59" stop-color="#f2f2f2"/>
			<stop offset=".75" stop-color="#fafafa"/>
			<stop offset="1" stop-color="#FFF"/>
		</linearGradient>
		<filter height="200%" id="c" width="200%" x="0" y="0">
			<feGaussianBlur in="SourceGraphic" stdDeviation="12"/>
		</filter>
	</defs>
	<polygon fill="url(#a)" points="0 174 0 0 174 0"/>
	<path d="M121.8 174C59.2 153.1 0 174 0 174s63.5-73.8 87-94c24.4-20.9 87-80 87-80S107.9 104.4 121.8 174z" fill="#000"
	      filter="url(#c)"/>
	<path d="M142.7 142.7C59.2 142.7 0 174 0 174s42-66.3 74.9-99.3S174 0 174 0S142.7 62.6 142.7 142.7z" fill="url(#b)"/>
</svg>
