<?xml version="1.0" standalone="no"?>
<!DOCTYPE svg PUBLIC "-//W3C//DTD SVG 20010904//ENhttp://www.w3.org/TR/2001/REC-SVG-20010904/DTD/svg10.dtd">
<svg version="1.0" xmlns="http://www.w3.org/2000/svg"
 width="400.000000pt" height="400.000000pt" viewBox="0 0 400.000000 400.000000"
 preserveAspectRatio="xMidYMid meet">
<metadata>
Created by potrace 1.11, written by Peter Selinger 2001-2013
</metadata>
<g transform="translate(0.000000,400.000000) scale(0.100000,-0.100000)"
fill="#000000" stroke="none">
<path d="M1 3168 c0 -572 4 -836 11 -845 7 -9 7 -13 -1 -13 -6 0 -11 -4 -11
-10 0 -5 7 -10 15 -10 8 0 15 -5 15 -11 0 -6 -7 -9 -15 -5 -12 4 -15 -5 -15
-53 0 -38 4 -61 13 -64 9 -4 9 -8 -2 -15 -12 -9 -12 -13 -2 -26 8 -9 9 -16 4
-16 -5 0 -10 -18 -11 -41 -2 -42 19 -76 38 -64 7 4 9 -3 5 -22 l-5 -28 11 27
c7 18 16 25 29 23 30 -6 32 9 8 54 -17 32 -19 44 -10 53 9 9 12 9 12 0 0 -7 7
-12 15 -12 8 0 15 5 15 11 0 5 -5 7 -10 4 -6 -3 -10 -1 -10 4 0 6 -6 11 -14
11 -8 0 -16 7 -20 15 -3 8 -1 15 5 15 6 0 7 4 4 10 -3 5 -1 18 5 27 9 15 11
15 7 2 -3 -9 0 -22 6 -28 8 -8 8 -11 -1 -11 -7 0 -12 -5 -12 -11 0 -5 5 -7 10
-4 6 3 10 1 10 -4 0 -6 9 -11 21 -11 16 0 19 4 14 21 -6 16 -4 20 6 14 11 -6
11 -5 3 4 -13 14 -7 54 6 46 5 -3 11 -1 15 5 4 6 -5 10 -20 10 -14 0 -24 4
-21 9 3 4 16 7 28 6 13 -1 29 -3 37 -4 9 -1 4 -8 -12 -21 -20 -16 -25 -28 -23
-60 3 -50 16 -65 16 -18 0 24 5 35 15 35 10 0 12 -4 5 -12 -7 -8 -7 -21 -1
-36 9 -23 10 -23 10 -2 1 21 21 44 21 24 0 -6 5 -11 12 -11 6 0 3 9 -7 20 -14
16 -16 23 -7 32 7 7 12 20 12 31 0 14 5 17 20 12 23 -7 28 10 5 19 -8 3 -15
11 -15 18 0 10 2 10 8 1 11 -17 74 -41 91 -35 10 3 12 0 8 -12 -4 -9 -2 -16 2
-16 19 0 19 29 0 35 -32 10 -20 32 14 26 5 -1 7 4 4 11 -2 7 -11 12 -18 10
-11 -3 -12 -1 -1 10 11 11 14 10 21 -1 5 -7 20 -14 35 -14 19 -2 25 -6 21 -17
-5 -11 -3 -12 6 -3 15 15 3 34 -19 26 -15 -6 -16 -5 -2 13 8 10 15 21 17 23 1
2 11 -11 21 -28 16 -27 21 -29 26 -15 10 26 -45 69 -84 66 -10 -1 -11 0 -2 4
6 3 12 13 13 22 0 11 2 12 6 5 5 -15 33 -18 33 -4 0 5 -6 12 -12 15 -7 3 -1 3
15 0 18 -4 27 -2 27 7 0 15 15 2 15 -14 0 -7 9 -11 18 -10 12 0 16 -4 13 -13
-3 -7 0 -16 7 -20 7 -4 9 -4 5 1 -4 4 -3 14 3 22 9 10 15 10 25 2 11 -9 14 -8
14 4 0 19 -14 30 -24 19 -11 -10 -56 -10 -49 1 3 4 11 6 19 3 8 -3 14 1 14 10
0 11 -6 13 -21 9 -16 -5 -19 -4 -14 5 5 8 3 11 -6 8 -14 -5 -38 18 -39 37 0 6
13 11 29 11 24 1 27 -1 18 -11 -7 -7 -16 -10 -22 -7 -5 2 -4 -1 3 -9 11 -12
14 -12 21 0 9 15 51 6 51 -10 0 -6 4 -8 9 -5 5 3 11 -1 15 -9 3 -8 11 -15 18
-14 10 0 10 2 1 6 -7 2 -13 9 -13 14 0 6 8 6 19 -1 25 -13 51 -13 51 1 0 5 -4
8 -9 5 -13 -9 -42 4 -35 16 3 5 13 7 21 4 8 -3 11 -2 8 3 -3 5 -1 12 4 16 5 3
14 -3 20 -12 5 -10 13 -14 18 -9 4 5 2 11 -4 13 -7 3 -13 14 -14 26 0 12 -3
16 -6 10 -8 -22 -32 -14 -39 13 -4 17 -2 29 7 35 11 7 11 9 1 9 -22 0 -7 25
15 26 16 1 19 -4 15 -19 -4 -17 -2 -18 17 -8 11 7 21 14 21 17 0 3 -4 2 -10
-1 -5 -3 -10 0 -10 7 0 16 37 21 45 7 4 -5 2 -9 -3 -9 -5 0 -7 -12 -5 -27 3
-16 -3 -37 -11 -48 -13 -16 -15 -17 -10 -2 3 9 1 17 -5 17 -6 0 -11 4 -11 10
0 5 5 9 11 7 6 -1 14 4 16 11 4 11 1 12 -16 2 -24 -12 -21 -45 4 -65 7 -6 15
-19 18 -30 4 -13 5 -10 5 10 -2 43 12 82 23 64 4 -7 11 -10 15 -6 4 3 2 12 -3
19 -13 16 -22 67 -14 73 4 2 13 -1 21 -6 13 -8 13 -10 1 -18 -7 -5 -10 -14 -7
-20 13 -21 26 0 26 40 0 21 5 39 11 39 5 0 7 5 4 10 -3 6 -2 10 4 10 17 0 18
-25 2 -38 -14 -12 -14 -13 4 -8 19 6 19 5 3 -8 -10 -7 -18 -23 -18 -35 0 -22
14 -28 25 -11 3 6 12 10 18 10 8 0 8 -3 -1 -9 -10 -6 -10 -10 3 -21 10 -8 15
-9 15 -1 0 15 27 14 33 -1 4 -10 6 -10 6 0 1 7 -10 17 -23 22 -34 13 -42 31
-21 47 17 12 17 13 1 13 -9 0 -16 6 -15 13 3 27 -2 37 -18 38 -16 0 -15 1 2 8
24 10 43 -7 38 -34 -4 -18 -3 -18 7 -2 6 9 16 17 23 17 8 0 8 -3 -1 -9 -7 -4
-14 -16 -16 -25 -1 -10 -9 -22 -17 -27 -12 -7 -12 -9 1 -9 8 0 22 5 30 10 11
7 17 5 22 -8 6 -14 7 -14 7 4 1 19 51 98 51 79 0 -4 9 2 20 15 11 12 18 26 15
30 -2 4 6 5 20 3 33 -7 41 -31 9 -27 -16 1 -24 -2 -21 -9 3 -7 10 -11 17 -9 8
2 10 -3 6 -13 -3 -9 -6 -21 -6 -26 0 -5 -7 -9 -15 -9 -8 0 -15 5 -15 12 0 6
-3 9 -6 6 -3 -4 0 -17 8 -31 9 -18 16 -22 24 -14 5 7 11 17 12 22 11 46 15 54
23 49 5 -3 9 -1 9 5 0 5 2 16 5 24 4 9 -5 17 -27 23 -23 7 -34 16 -36 33 -2
15 0 21 7 16 6 -3 9 -10 6 -15 -4 -7 16 -20 31 -20 9 0 -2 25 -18 43 -9 11
-14 25 -11 32 6 16 33 28 33 15 0 -6 -4 -10 -10 -10 -17 0 -11 -24 9 -37 16
-10 18 -8 15 15 -1 15 3 33 9 41 7 8 7 12 2 9 -6 -4 -10 9 -10 33 0 25 3 35 9
29 14 -14 29 -12 23 3 -3 8 1 14 8 14 10 0 10 -7 -2 -34 -14 -35 -8 -67 8 -42
7 11 9 11 9 1 0 -7 5 -10 10 -7 6 4 7 11 4 17 -4 7 -2 8 5 4 8 -6 9 -12 2 -20
-6 -7 -10 -15 -8 -17 1 -2 -2 -1 -6 2 -5 4 -18 4 -29 1 -15 -4 -17 -7 -6 -13
10 -7 10 -9 -2 -9 -12 0 -13 -2 -1 -9 7 -5 14 -20 14 -35 -1 -16 6 -28 18 -31
11 -4 19 -12 19 -20 0 -8 7 -11 19 -8 14 4 18 11 15 30 -4 20 -1 24 11 20 8
-4 15 -1 15 5 0 7 5 6 15 -2 13 -10 14 -5 9 41 -3 30 -1 50 3 44 4 -5 14 -11
22 -13 10 -2 12 4 7 22 -5 19 -1 28 15 36 12 7 30 10 40 7 12 -3 19 0 19 9 0
17 3 16 -38 4 -28 -7 -32 -7 -22 4 6 8 26 17 45 20 19 4 35 11 35 16 0 12 -28
40 -56 57 -19 11 -19 11 0 30 19 18 20 18 5 -1 -13 -18 -12 -19 5 -13 14 6 17
4 12 -9 -4 -12 -2 -15 9 -10 8 3 15 1 15 -4 0 -5 7 -7 15 -4 8 4 12 11 8 18
-4 6 1 5 10 -3 10 -8 21 -11 24 -7 4 4 3 10 -3 14 -13 9 -3 46 14 49 14 3 17
-23 2 -32 -5 -3 -6 -13 -3 -21 4 -12 8 -13 14 -3 4 7 6 16 4 19 -2 4 2 7 10 7
8 0 12 -4 9 -8 -8 -14 19 -59 35 -58 11 0 12 2 3 6 -6 2 -9 10 -6 15 4 7 2 8
-4 4 -7 -4 -12 -1 -12 7 0 10 7 13 20 10 11 -3 20 -9 20 -14 0 -5 7 -9 16 -9
14 0 14 -3 4 -15 -11 -13 -10 -14 3 -9 18 6 32 35 16 31 -6 -1 -13 8 -15 21
-2 13 -1 21 4 18 4 -2 12 6 18 19 11 22 10 23 -7 12 -11 -7 -22 -20 -25 -29
-3 -10 -11 -18 -17 -18 -19 0 -42 18 -34 27 5 4 12 1 16 -6 5 -7 14 -10 20 -7
6 4 9 11 6 16 -3 5 3 15 15 22 11 7 20 17 20 22 0 5 -11 -1 -25 -14 -20 -18
-28 -21 -37 -12 -9 9 -8 12 6 12 10 0 14 4 10 12 -4 6 -3 8 4 4 6 -3 13 -2 17
4 3 5 0 10 -8 10 -7 0 -14 6 -14 13 0 6 -4 21 -9 31 -5 14 -4 17 4 12 7 -4 12
-13 12 -21 0 -8 4 -16 9 -19 5 -4 4 11 -2 31 -13 46 -11 44 -34 48 -10 2 -19
4 -21 4 -1 1 2 10 8 20 7 14 6 21 -3 24 -9 4 -9 7 1 18 10 11 12 10 12 -4 0
-9 6 -17 13 -17 9 0 8 -3 -2 -9 -14 -9 -7 -31 10 -31 6 0 8 4 5 8 -3 5 1 9 8
9 8 0 13 -7 11 -16 -4 -26 6 -33 20 -14 8 11 10 20 3 24 -6 4 -4 19 5 42 9 19
12 38 9 42 -4 3 2 3 13 -1 11 -5 14 -9 7 -12 -7 -2 -12 -8 -12 -13 0 -6 8 -6
19 1 25 13 31 13 31 0 0 -5 -9 -10 -20 -10 -19 0 -47 -36 -36 -48 3 -3 6 0 6
6 0 7 5 12 11 12 5 0 7 -4 4 -10 -3 -5 3 -10 13 -10 29 0 37 30 9 31 -15 0
-17 2 -7 6 32 12 40 24 29 44 -5 11 -15 16 -21 13 -7 -4 -8 -2 -4 5 6 9 11 9
21 1 9 -8 15 -8 20 0 3 5 1 10 -6 10 -7 0 -9 3 -6 6 4 4 13 1 22 -6 13 -11 15
-10 9 6 -5 18 -5 18 10 0 19 -23 21 -14 4 17 -10 20 -10 21 5 9 14 -12 17 -10
23 12 4 16 11 23 17 19 7 -4 19 -8 29 -8 13 -1 15 2 8 15 -5 10 -6 21 -2 25 4
5 2 5 -5 1 -18 -10 -25 10 -8 24 16 13 16 12 19 -30 1 -8 12 -15 29 -17 l27
-2 -26 27 c-25 25 -44 90 -23 77 5 -4 9 -1 9 6 0 7 6 4 14 -7 14 -18 15 -18
24 6 5 14 7 30 5 37 -6 14 56 55 70 46 6 -3 7 -1 3 5 -3 6 -2 13 4 17 6 4 8
11 5 16 -4 5 1 12 9 15 9 3 14 10 11 14 -3 5 0 12 7 16 8 5 6 9 -6 14 -16 5
-15 7 6 17 21 9 23 8 23 -16 0 -14 5 -26 10 -26 6 0 10 15 10 33 -1 24 3 32
14 30 8 -2 16 -9 19 -17 3 -8 0 -11 -6 -7 -6 3 -14 1 -18 -5 -5 -8 -3 -9 6 -4
10 6 12 4 6 -11 -4 -10 -9 -24 -10 -30 -1 -6 -10 -22 -19 -35 -17 -23 -18 -23
-14 -2 3 15 1 20 -9 16 -15 -5 -29 -41 -20 -50 3 -4 6 2 6 13 0 16 2 17 10 4
11 -18 30 -20 48 -6 11 7 11 11 0 18 -10 8 -10 11 0 15 6 2 12 14 12 26 0 37
14 51 33 33 9 -9 18 -12 22 -7 3 5 -4 12 -15 16 -18 6 -24 17 -21 38 0 4 -4 7
-10 7 -8 0 -8 4 0 14 7 8 20 13 29 11 9 -1 20 3 25 9 5 8 10 7 16 -2 6 -11 10
-10 15 3 8 22 8 25 -5 25 -5 0 -8 -4 -5 -8 3 -4 -8 -7 -25 -6 -16 1 -32 -3
-35 -8 -4 -6 -10 -5 -16 3 -7 11 -11 11 -15 2 -7 -19 -23 -15 -16 4 4 10 2 14
-4 10 -6 -4 -18 0 -26 8 -18 18 -31 20 -21 3 4 -7 3 -8 -4 -4 -7 4 -12 2 -12
-3 0 -6 5 -11 10 -11 6 0 10 -4 10 -8 0 -5 -7 -9 -15 -9 -17 0 -21 32 -5 42 6
3 10 15 10 26 0 10 5 19 11 19 5 0 7 -5 4 -11 -4 -5 1 -19 10 -29 14 -15 22
-17 37 -9 10 5 15 15 12 21 -4 7 -3 8 4 4 7 -4 12 -14 12 -22 0 -8 5 -12 10
-9 6 4 8 11 5 16 -4 5 -2 9 4 9 5 0 11 -9 13 -20 3 -18 5 -18 35 -3 18 8 30
20 26 26 -3 6 -1 7 5 3 6 -4 9 -12 7 -19 -14 -47 -15 -68 -3 -62 7 4 0 -4 -17
-18 -16 -14 -27 -29 -22 -33 4 -4 7 -2 7 4 0 7 5 12 11 12 5 0 8 -4 5 -9 -4
-5 2 -7 13 -4 11 3 21 -2 25 -12 4 -13 2 -16 -9 -12 -20 8 -28 -8 -10 -23 8
-7 12 -17 8 -24 -4 -6 5 0 19 14 16 14 22 27 16 31 -5 4 -3 9 6 12 12 5 15 0
14 -18 -1 -13 -7 -21 -13 -18 -5 3 -5 0 2 -7 10 -11 15 -11 30 0 14 11 15 11
6 1 -6 -7 -9 -21 -5 -30 5 -14 4 -15 -14 -1 -18 14 -18 14 -5 -2 12 -17 9 -23
-12 -19 -5 1 -6 -3 -3 -8 4 -5 0 -12 -6 -14 -10 -4 -10 -6 0 -6 7 -1 11 -5 8
-10 -4 -5 4 -7 16 -3 21 5 21 6 2 13 -16 7 -17 8 -1 8 9 1 16 4 15 9 -4 11 5
14 24 7 10 -4 23 -5 30 -2 7 3 3 6 -9 6 -12 1 -25 5 -28 11 -4 6 6 8 24 6 22
-2 31 1 31 11 0 8 4 11 10 8 6 -3 10 -2 10 4 0 5 8 17 18 27 9 10 17 22 17 28
0 6 10 10 23 8 15 -2 22 2 22 13 0 9 4 14 9 11 11 -7 34 20 27 32 -3 5 5 9 17
8 22 -2 37 10 37 29 0 6 -5 3 -10 -5 -9 -13 -11 -13 -19 -1 -11 17 -3 42 13
40 26 -3 33 2 31 26 -4 30 -35 67 -35 41 0 -9 6 -16 13 -16 8 0 7 -4 -3 -10
-12 -8 -12 -10 -1 -10 8 0 12 -2 9 -5 -3 -3 -16 -1 -29 4 -13 5 -17 10 -9 11
13 0 13 1 0 10 -10 7 -12 12 -4 18 12 8 15 42 3 42 -4 0 -11 -4 -14 -10 -10
-16 -38 -12 -31 5 3 8 1 15 -5 15 -5 0 -4 6 3 14 10 10 43 15 43 6 0 -1 11 -3
25 -6 18 -3 21 -2 10 5 -8 5 -18 7 -22 5 -4 -3 -8 0 -8 5 0 17 36 13 50 -4 7
-9 20 -13 28 -10 12 4 11 0 -3 -21 -13 -21 -14 -29 -4 -38 9 -8 11 -7 6 6 -8
22 3 30 22 16 13 -10 14 -10 4 2 -10 10 -6 19 20 41 l32 28 -32 -1 c-21 -1
-30 -5 -26 -12 5 -8 3 -8 -8 0 -19 14 -299 17 -299 3 0 -6 4 -7 10 -4 5 3 7 0
5 -7 -6 -14 -45 -22 -45 -9 0 4 6 13 13 20 10 10 7 12 -13 9 -20 -2 -25 -8
-23 -28 1 -14 0 -19 -3 -12 -8 17 -24 15 -40 -5 -13 -17 -14 -17 -7 1 4 13 3
17 -5 12 -7 -4 -12 -2 -12 4 0 7 6 10 14 7 8 -3 17 0 20 8 4 11 -47 13 -287
14 -232 0 -289 -2 -276 -12 9 -7 14 -18 11 -25 -3 -9 -8 -6 -16 10 l-12 23
-762 3 -762 2 1 -832z m1867 804 c2 -7 -2 -10 -12 -6 -9 3 -16 11 -16 16 0 13
23 5 28 -10z m450 -7 c-3 -3 -9 2 -12 12 -6 14 -5 15 5 6 7 -7 10 -15 7 -18z
m-91 -9 c-9 -18 -19 -23 -44 -23 -18 1 -33 6 -33 12 0 7 10 11 23 10 12 -1 31
4 42 11 25 18 25 18 12 -10z m-200 -1 c0 -8 -4 -15 -9 -15 -4 0 -8 7 -8 15 0
8 4 15 8 15 5 0 9 -7 9 -15z m-567 -5 c0 -5 -5 -10 -11 -10 -5 0 -7 5 -4 10 3
6 8 10 11 10 2 0 4 -4 4 -10z m350 -10 c0 -5 -4 -10 -10 -10 -5 0 -10 5 -10
10 0 6 5 10 10 10 6 0 10 -4 10 -10z m164 -2 c-3 -4 -9 -8 -15 -8 -5 0 -9 4
-9 8 0 5 7 9 15 9 8 0 12 -4 9 -9z m290 -4 c9 -24 2 -26 -12 -4 -7 11 -8 20
-3 20 5 0 12 -7 15 -16z m-834 2 c0 -3 -4 -8 -10 -11 -5 -3 -10 -1 -10 4 0 6
5 11 10 11 6 0 10 -2 10 -4z m160 0 c0 -2 -7 -7 -16 -10 -8 -3 -12 -2 -9 4 6
10 25 14 25 6z m545 -16 c-3 -5 -12 -10 -18 -10 -7 0 -6 4 3 10 19 12 23 12
15 0z m65 -21 c-11 -7 -7 -9 17 -5 19 2 34 -1 36 -7 3 -9 10 -9 26 1 25 15 31
15 31 2 0 -5 -3 -9 -7 -7 -5 1 -8 -1 -8 -4 0 -3 -6 -13 -13 -22 -12 -15 -16
-14 -36 8 -15 16 -26 21 -36 15 -9 -6 -17 -5 -21 2 -9 14 -49 0 -49 -18 0 -19
-16 -18 -24 1 -3 8 -1 15 5 15 6 0 7 5 3 11 -4 8 0 9 15 4 17 -5 20 -3 15 12
-5 15 -4 16 5 3 10 -13 13 -13 22 3 8 14 14 16 22 8 9 -9 8 -14 -3 -22z
m-1552 -14 c-3 -3 -9 2 -12 12 -6 14 -5 15 5 6 7 -7 10 -15 7 -18z m132 15 c0
-5 -5 -10 -11 -10 -5 0 -7 5 -4 10 3 6 8 10 11 10 2 0 4 -4 4 -10z m1124 -6
c4 -9 4 -19 1 -22 -3 -3 -5 0 -5 7 0 6 -10 16 -22 21 -23 9 -23 9 -2 9 12 1
25 -6 28 -15z m196 -17 c0 -5 -7 -6 -16 -3 -9 3 -18 6 -20 6 -2 0 -4 7 -4 15
0 13 3 13 20 3 11 -7 20 -17 20 -21z m-550 11 c0 -11 -12 -10 -30 2 -12 7 -10
9 8 7 12 0 22 -5 22 -9z m455 -18 c-3 -5 1 -10 10 -10 9 0 13 5 10 10 -3 6 -1
10 5 10 7 0 10 -7 6 -15 -4 -12 0 -14 19 -9 20 5 24 3 19 -10 -7 -18 -44 -22
-44 -5 0 6 -6 9 -14 6 -15 -6 -30 16 -19 27 10 10 15 7 8 -4z m379 -32 c-3 -5
-12 -1 -20 9 -20 26 -17 35 5 16 11 -9 18 -21 15 -25z m-144 22 c12 -8 10 -10
-10 -11 -14 -1 -37 -3 -52 -4 -15 -1 -25 2 -22 7 4 6 15 8 25 5 11 -3 19 -1
19 4 0 12 21 11 40 -1z m-363 -35 c-19 -19 -24 -19 -24 0 0 8 4 12 8 10 4 -3
10 3 14 13 5 11 9 13 12 5 3 -7 -2 -20 -10 -28z m-42 15 c3 -5 2 -10 -4 -10
-5 0 -13 5 -16 10 -3 6 -2 10 4 10 5 0 13 -4 16 -10z m125 0 c0 -5 -4 -10 -10
-10 -5 0 -10 5 -10 10 0 6 5 10 10 10 6 0 10 -4 10 -10z m190 -6 c35 -2 37 -3
21 -13 -17 -11 -47 -3 -63 17 -11 13 -11 14 2 6 8 -5 26 -10 40 -10z m200 -4
c0 -5 -4 -10 -9 -10 -6 0 -13 5 -16 10 -3 6 1 10 9 10 9 0 16 -4 16 -10z m-86
-27 c-12 -9 -20 -10 -22 -3 -2 5 -9 7 -15 3 -8 -4 -7 -1 1 9 8 10 21 14 34 10
20 -5 20 -6 2 -19z m-2099 7 c3 -5 1 -10 -4 -10 -6 0 -11 5 -11 10 0 6 2 10 4
10 3 0 8 -4 11 -10z m1375 0 c0 -5 -2 -10 -4 -10 -3 0 -8 5 -11 10 -3 6 -1 10
4 10 6 0 11 -4 11 -10z m155 0 c3 -5 1 -10 -4 -10 -6 0 -11 5 -11 10 0 6 2 10
4 10 3 0 8 -4 11 -10z m515 0 c0 -5 -2 -10 -4 -10 -3 0 -8 5 -11 10 -3 6 -1
10 4 10 6 0 11 -4 11 -10z m-86 -7 c11 -11 35 -12 42 -2 6 11 24 2 24 -12 0
-5 -9 -9 -20 -9 -11 0 -20 -7 -20 -15 0 -8 -5 -15 -11 -15 -6 0 -8 7 -5 16 4
12 2 15 -9 11 -8 -4 -17 -1 -21 5 -4 7 -3 8 4 4 7 -4 12 -3 12 3 0 5 -6 12
-12 14 -7 3 -8 6 -2 6 6 1 14 -2 18 -6z m-910 -18 c3 -8 1 -15 -4 -15 -6 0
-10 7 -10 15 0 8 2 15 4 15 2 0 6 -7 10 -15z m256 5 c0 -5 -8 -10 -17 -10 -15
0 -16 2 -3 10 19 12 20 12 20 0z m-766 -16 c3 -8 2 -12 -4 -9 -6 3 -10 10 -10
16 0 14 7 11 14 -7z m236 6 c0 -5 -5 -10 -11 -10 -5 0 -7 5 -4 10 3 6 8 10 11
10 2 0 4 -4 4 -10z m894 -2 c-3 -4 -9 -8 -15 -8 -5 0 -9 4 -9 8 0 5 7 9 15 9
8 0 12 -4 9 -9z m101 2 c3 -5 1 -10 -4 -10 -6 0 -11 5 -11 10 0 6 2 10 4 10 3
0 8 -4 11 -10z m368 -34 c-3 -5 -1 -6 5 -2 7 4 12 1 12 -6 1 -8 8 -4 19 9 19
23 31 21 31 -4 0 -8 -5 -11 -11 -7 -6 3 -14 3 -18 -2 -3 -5 -15 -14 -26 -21
-11 -6 -19 -16 -17 -22 3 -14 -15 -14 -23 -1 -3 6 1 13 9 16 9 3 16 10 16 16
0 5 -5 6 -12 2 -7 -5 -8 -3 -3 6 4 7 2 16 -6 21 -12 8 -12 11 1 18 16 11 33
-6 23 -23z m-343 3 c0 -5 -4 -7 -10 -4 -5 3 -10 0 -11 -7 0 -10 -2 -10 -6 0
-2 6 -9 10 -13 7 -5 -3 -11 -1 -15 5 -4 6 6 10 24 10 17 0 31 -5 31 -11z m194
-25 c2 -7 -5 -10 -17 -9 -12 1 -29 3 -37 4 -12 1 -12 4 2 15 10 7 14 16 10 21
-4 4 3 2 15 -6 13 -7 25 -19 27 -25z m102 17 c0 -15 -3 -17 -13 -9 -7 6 -13
14 -13 19 0 5 6 9 13 9 7 0 13 -9 13 -19z m-869 -13 c-3 -8 -6 -5 -6 6 -1 11
2 17 5 13 3 -3 4 -12 1 -19z m278 2 c-4 -6 -1 -18 6 -26 6 -8 9 -17 6 -21 -4
-3 -9 1 -13 10 -3 9 -11 14 -19 11 -7 -3 -15 2 -18 10 -4 10 -1 13 7 10 8 -3
17 -1 21 5 3 6 8 11 11 11 3 0 2 -5 -1 -10z m200 0 c3 -5 1 -10 -4 -10 -6 0
-11 5 -11 10 0 6 2 10 4 10 3 0 8 -4 11 -10z m26 -13 c-10 -9 -11 -8 -5 6 3
10 9 15 12 12 3 -3 0 -11 -7 -18z m-981 -2 c11 -13 10 -14 -4 -9 -9 3 -16 10
-16 15 0 13 6 11 20 -6z m-880 -5 c0 -5 -5 -10 -11 -10 -5 0 -7 5 -4 10 3 6 8
10 11 10 2 0 4 -4 4 -10z m1417 -12 c-3 -8 -6 -5 -6 6 -1 11 2 17 5 13 3 -3 4
-12 1 -19z m743 12 c0 -5 -4 -10 -10 -10 -5 0 -10 5 -10 10 0 6 5 10 10 10 6
0 10 -4 10 -10z m44 -25 c18 -14 18 -15 2 -15 -11 0 -15 -5 -10 -12 4 -8 3
-10 -2 -5 -5 5 -9 12 -9 15 0 4 -4 13 -8 20 -11 16 3 15 27 -3z m-1804 1 c0
-3 -4 -8 -10 -11 -5 -3 -10 -1 -10 4 0 6 5 11 10 11 6 0 10 -2 10 -4z m1344
-20 c-5 -14 -9 -15 -15 -5 -5 8 -3 17 4 21 15 9 19 4 11 -16z m103 -8 c-3 -8
-6 -5 -6 6 -1 11 2 17 5 13 3 -3 4 -12 1 -19z m-293 -24 c3 -8 2 -12 -4 -9 -6
3 -10 10 -10 16 0 14 7 11 14 -7z m116 12 c0 -11 -19 -15 -25 -6 -3 5 1 10 9
10 9 0 16 -2 16 -4z m-1162 -20 c-7 -8 -15 -12 -17 -11 -5 6 10 25 20 25 5 0
4 -6 -3 -14z m1308 -1 c9 -8 11 -15 5 -15 -5 0 -13 5 -16 10 -4 6 -11 7 -17 4
-7 -4 -8 -2 -4 4 9 16 14 15 32 -3z m-110 -12 c-2 -3 -1 -15 4 -28 7 -17 5
-25 -6 -29 -11 -4 -13 0 -8 19 4 18 1 27 -11 31 -13 5 -14 9 -4 15 13 8 35 1
25 -8z m-1516 -3 c0 -5 -2 -10 -4 -10 -3 0 -8 5 -11 10 -3 6 -1 10 4 10 6 0
11 -4 11 -10z m1583 -9 c5 -21 0 -31 -17 -31 -6 0 -11 11 -11 25 0 29 20 34
28 6z m-402 -14 c-10 -9 -11 -8 -5 6 3 10 9 15 12 12 3 -3 0 -11 -7 -18z m289
13 c0 -5 -7 -10 -16 -10 -8 0 -12 -4 -9 -10 3 -6 -1 -7 -10 -4 -14 6 -14 8 2
20 22 16 33 18 33 4z m140 0 c0 -5 -2 -10 -4 -10 -3 0 -8 5 -11 10 -3 6 -1 10
4 10 6 0 11 -4 11 -10z m-160 -52 c0 -6 -6 -5 -15 2 -8 7 -15 14 -15 16 0 2 7
1 15 -2 8 -4 15 -11 15 -16z m117 -3 c0 -8 -4 -15 -9 -15 -10 0 -11 14 -1 23
9 10 10 9 10 -8z m-410 -32 c-11 -11 -17 -13 -17 -5 0 7 4 12 10 12 5 0 7 8 3
18 -5 14 -3 15 8 4 11 -10 10 -15 -4 -29z m168 27 c3 -5 1 -10 -4 -10 -6 0
-11 5 -11 10 0 6 2 10 4 10 3 0 8 -4 11 -10z m104 -39 c-1 -13 -2 -13 -6 2 -2
9 -9 15 -14 12 -5 -4 -9 -2 -9 4 0 6 -7 8 -15 5 -11 -5 -13 -2 -9 10 5 14 8
14 30 -1 13 -8 23 -23 23 -32z m-1196 -1 c-3 -12 -8 -19 -11 -16 -5 6 5 36 12
36 2 0 2 -9 -1 -20z m377 10 c0 -5 -5 -10 -11 -10 -5 0 -7 5 -4 10 3 6 8 10
11 10 2 0 4 -4 4 -10z m750 -26 c0 -3 -7 -1 -15 6 -8 7 -15 17 -15 22 0 5 7 3
15 -6 8 -8 15 -18 15 -22z m35 8 c-3 -3 -11 0 -18 7 -9 10 -8 11 6 5 10 -3 15
-9 12 -12z m118 2 c3 -4 -2 -18 -13 -31 -15 -19 -17 -30 -10 -43 15 -28 11
-38 -5 -16 -15 20 -14 20 -28 -24 -3 -11 -8 -8 -15 10 -8 21 -7 26 9 28 19 3
28 42 9 42 -5 0 -2 9 7 20 18 20 34 25 46 14z m-86 -44 c1 -11 -2 -20 -7 -20
-5 0 -7 -8 -4 -17 2 -10 -1 -8 -7 4 -9 18 -9 26 1 38 16 19 15 19 17 -5z
m-112 0 c3 -5 1 -10 -4 -10 -6 0 -11 5 -11 10 0 6 2 10 4 10 3 0 8 -4 11 -10z
m-615 -15 c-7 -9 -15 -13 -19 -10 -3 3 1 10 9 15 21 14 24 12 10 -5z m257 0
c5 -4 3 -5 -4 -2 -6 4 -13 2 -15 -5 -4 -12 -28 -3 -28 11 0 10 37 7 47 -4z
m163 -5 c0 -5 -4 -10 -10 -10 -5 0 -10 5 -10 10 0 6 5 10 10 10 6 0 10 -4 10
-10z m-270 -16 c0 -14 -3 -14 -15 -4 -8 7 -15 14 -15 16 0 2 7 4 15 4 8 0 15
-7 15 -16z m160 6 c0 -5 -4 -10 -10 -10 -5 0 -10 5 -10 10 0 6 5 10 10 10 6 0
10 -4 10 -10z m371 -13 c-10 -9 -11 -8 -5 6 3 10 9 15 12 12 3 -3 0 -11 -7
-18z m-88 -18 c-4 -15 -8 -17 -14 -8 -8 14 -3 29 11 29 4 0 6 -9 3 -21z m-328
1 c3 -6 -1 -7 -9 -4 -18 7 -21 14 -7 14 6 0 13 -4 16 -10z m53 -15 c-3 -3 -9
2 -12 12 -6 14 -5 15 5 6 7 -7 10 -15 7 -18z m353 -5 c21 0 25 -15 7 -26 -7
-4 -8 -3 -4 4 4 7 1 12 -9 12 -11 0 -15 -5 -12 -14 4 -10 1 -13 -7 -10 -8 3
-11 15 -8 32 3 15 7 21 9 15 3 -7 13 -13 24 -13z m36 -2 c-3 -8 -6 -5 -6 6 -1
11 2 17 5 13 3 -3 4 -12 1 -19z m-197 2 c0 -5 -7 -7 -15 -4 -8 4 -15 8 -15 10
0 2 7 4 15 4 8 0 15 -4 15 -10z m-430 -10 c0 -5 -4 -10 -10 -10 -5 0 -10 5
-10 10 0 6 5 10 10 10 6 0 10 -4 10 -10z m245 -38 c-10 -10 -16 -12 -13 -7 3
6 8 19 13 30 5 14 9 16 12 7 3 -8 -3 -21 -12 -30z m135 18 c0 -5 -4 -10 -10
-10 -5 0 -10 5 -10 10 0 6 5 10 10 10 6 0 10 -4 10 -10z m39 3 c-3 -20 2 -27
11 -13 5 8 12 11 17 7 4 -5 1 -12 -6 -16 -7 -5 -13 -20 -13 -35 l0 -26 -20 25
c-15 19 -17 29 -8 45 11 20 21 27 19 13z m-304 -13 c3 -6 -1 -7 -9 -4 -18 7
-21 14 -7 14 6 0 13 -4 16 -10z m-85 -30 c0 -5 -4 -10 -10 -10 -5 0 -10 5 -10
10 0 6 5 10 10 10 6 0 10 -4 10 -10z m140 0 c0 -5 -4 -10 -10 -10 -5 0 -10 5
-10 10 0 6 5 10 10 10 6 0 10 -4 10 -10z m295 0 c3 -5 1 -10 -4 -10 -6 0 -11
5 -11 10 0 6 2 10 4 10 3 0 8 -4 11 -10z m-1205 -10 c0 -5 -5 -10 -11 -10 -5
0 -7 5 -4 10 3 6 8 10 11 10 2 0 4 -4 4 -10z m980 0 c0 -5 -2 -10 -4 -10 -3 0
-8 5 -11 10 -3 6 -1 10 4 10 6 0 11 -4 11 -10z m50 6 c0 -3 -4 -8 -10 -11 -5
-3 -10 -1 -10 4 0 6 5 11 10 11 6 0 10 -2 10 -4z m-194 -14 c7 -4 8 -15 3 -29
-12 -32 -21 -29 -13 5 4 21 3 24 -5 12 -9 -13 -11 -13 -11 3 0 18 8 21 26 9z
m-356 -12 c0 -5 -2 -10 -4 -10 -3 0 -8 5 -11 10 -3 6 -1 10 4 10 6 0 11 -4 11
-10z m200 0 c0 -5 -5 -10 -11 -10 -5 0 -7 5 -4 10 3 6 8 10 11 10 2 0 4 -4 4
-10z m573 -11 c5 -3 2 -9 -5 -12 -9 -3 -14 3 -15 15 -1 11 1 16 5 12 4 -5 11
-12 15 -15z m-489 2 c3 -5 -3 -11 -14 -14 -20 -5 -26 3 -13 16 9 10 21 9 27
-2z m-434 -21 c0 -5 -2 -10 -4 -10 -3 0 -8 5 -11 10 -3 6 -1 10 4 10 6 0 11
-4 11 -10z m546 -8 c1 -7 0 -8 -3 -2 -2 5 -9 8 -14 4 -5 -3 -9 0 -9 6 0 15 23
7 26 -8z m-926 -2 c0 -5 -4 -10 -10 -10 -5 0 -10 5 -10 10 0 6 5 10 10 10 6 0
10 -4 10 -10z m993 -3 c3 -8 2 -20 -3 -26 -5 -9 -7 -4 -7 13 0 29 2 32 10 13z
m107 3 c0 -5 -2 -10 -4 -10 -3 0 -8 5 -11 10 -3 6 -1 10 4 10 6 0 11 -4 11
-10z m-400 -20 c0 -5 -5 -10 -11 -10 -5 0 -7 5 -4 10 3 6 8 10 11 10 2 0 4 -4
4 -10z m145 -10 c3 -5 1 -10 -4 -10 -6 0 -11 5 -11 10 0 6 2 10 4 10 3 0 8 -4
11 -10z m95 0 c0 -5 -2 -10 -4 -10 -3 0 -8 5 -11 10 -3 6 -1 10 4 10 6 0 11
-4 11 -10z m205 0 c-3 -5 -16 -10 -28 -10 -18 0 -19 2 -7 10 20 13 43 13 35 0z
m-110 -9 c3 -6 -3 -9 -14 -8 -11 0 -17 5 -15 9 7 11 22 10 29 -1z m-500 -11
c3 -5 1 -10 -4 -10 -6 0 -11 5 -11 10 0 6 2 10 4 10 3 0 8 -4 11 -10z m152
-22 c-3 -8 -6 -5 -6 6 -1 11 2 17 5 13 3 -3 4 -12 1 -19z m463 12 c0 -5 -8
-10 -17 -10 -15 0 -16 2 -3 10 19 12 20 12 20 0z m92 -15 c-2 -11 -8 -24 -14
-30 -7 -7 -9 -2 -6 17 3 15 0 30 -6 32 -6 3 -2 4 9 3 14 -2 19 -9 17 -22z
m-865 -10 c0 -8 -7 -15 -15 -15 -12 0 -12 3 -2 15 7 8 13 15 15 15 1 0 2 -7 2
-15z m569 -12 c-10 -10 -19 5 -10 18 6 11 8 11 12 0 2 -7 1 -15 -2 -18z m131
5 c-3 -8 -6 -5 -6 6 -1 11 2 17 5 13 3 -3 4 -12 1 -19z m84 5 c-10 -4 -10 -7
-1 -13 9 -5 8 -9 -2 -13 -9 -3 -14 2 -15 14 -1 12 4 19 15 18 12 0 13 -2 3 -6z
m-123 -28 c-3 -3 -9 2 -12 12 -6 14 -5 15 5 6 7 -7 10 -15 7 -18z m-213 5 c-3
-5 -12 -10 -18 -10 -7 0 -6 4 3 10 19 12 23 12 15 0z m-250 -10 c3 -5 1 -10
-4 -10 -6 0 -11 5 -11 10 0 6 2 10 4 10 3 0 8 -4 11 -10z m511 -16 c-3 -8 -1
-14 3 -14 5 0 12 6 14 13 4 7 6 8 6 1 1 -6 -6 -17 -14 -24 -10 -8 -15 -9 -15
-2 0 6 -7 9 -16 5 -12 -4 -15 -2 -12 8 3 8 11 13 18 11 8 -2 10 3 6 13 -3 10
-2 14 5 10 6 -4 8 -13 5 -21z m-542 8 c2 -4 -4 -9 -15 -9 -10 -1 -19 2 -19 8
0 11 27 12 34 1z m346 -12 c0 -5 -4 -10 -10 -10 -5 0 -10 5 -10 10 0 6 5 10
10 10 6 0 10 -4 10 -10z m127 -6 c-3 -3 -12 -4 -19 -1 -8 3 -5 6 6 6 11 1 17
-2 13 -5z m-522 -14 c3 -5 1 -10 -4 -10 -6 0 -11 5 -11 10 0 6 2 10 4 10 3 0
8 -4 11 -10z m320 0 c3 -5 1 -10 -4 -10 -6 0 -11 5 -11 10 0 6 2 10 4 10 3 0
8 -4 11 -10z m225 0 c0 -5 -8 -10 -17 -10 -15 0 -16 2 -3 10 19 12 20 12 20 0z
m114 -13 c4 4 4 0 0 -10 -6 -17 -7 -17 -20 0 -7 10 -13 23 -13 28 0 6 6 2 13
-7 7 -10 16 -15 20 -11z m-499 4 c3 -5 1 -12 -5 -16 -5 -3 -10 1 -10 9 0 18 6
21 15 7z m125 -5 c0 -3 -4 -8 -10 -11 -5 -3 -10 -1 -10 4 0 6 5 11 10 11 6 0
10 -2 10 -4z m-235 -16 c-3 -5 -12 -10 -18 -10 -7 0 -6 4 3 10 19 12 23 12 15
0z m275 1 c0 -6 -9 -9 -19 -8 -11 0 -17 5 -15 9 7 11 34 10 34 -1z m103 -5 c4
-10 0 -14 -13 -13 -14 1 -16 4 -8 14 13 16 15 16 21 -1z m-213 -22 c0 -2 -7
-4 -15 -4 -8 0 -15 4 -15 10 0 5 7 7 15 4 8 -4 15 -8 15 -10z m343 -4 c3 -11
1 -18 -4 -14 -5 3 -9 12 -9 20 0 20 7 17 13 -6z m-743 0 c0 -5 -2 -10 -4 -10
-3 0 -8 5 -11 10 -3 6 -1 10 4 10 6 0 11 -4 11 -10z m667 -31 c6 -19 16 -33
22 -31 13 2 15 -14 3 -22 -14 -8 -42 32 -35 50 4 11 2 15 -5 10 -6 -3 -13 -2
-17 4 -3 5 0 10 7 10 10 0 9 3 -2 11 -13 9 -13 10 0 7 8 -3 20 -20 27 -39z
m-560 9 c-3 -8 -6 -5 -6 6 -1 11 2 17 5 13 3 -3 4 -12 1 -19z m443 8 c0 -11
-19 -15 -25 -6 -3 5 1 10 9 10 9 0 16 -2 16 -4z m187 -43 c1 -15 -1 -22 -4
-15 -2 6 -9 9 -15 6 -7 -5 -9 2 -4 19 5 22 3 26 -11 21 -15 -5 -15 -4 -3 4 20
15 35 0 37 -35z m-324 23 c4 -10 1 -13 -8 -9 -8 3 -12 9 -9 14 7 12 11 11 17
-5z m387 -11 c0 -2 -7 -2 -15 1 -9 4 -15 0 -15 -10 0 -9 -4 -16 -10 -16 -13 0
-13 17 0 25 6 4 7 11 4 17 -4 6 2 6 15 -1 11 -7 21 -14 21 -16z m-535 -5 c3
-6 -1 -7 -9 -4 -18 7 -21 14 -7 14 6 0 13 -4 16 -10z m195 6 c0 -3 -4 -8 -10
-11 -5 -3 -10 -1 -10 4 0 6 5 11 10 11 6 0 10 -2 10 -4z m137 -9 c0 -8 -6 -14
-13 -14 -7 0 -10 6 -7 14 3 7 8 13 12 13 4 0 8 -6 8 -13z m-597 -13 c0 -8 -4
-12 -10 -9 -5 3 -10 10 -10 16 0 5 5 9 10 9 6 0 10 -7 10 -16z m310 6 c0 -5
-2 -10 -4 -10 -3 0 -8 5 -11 10 -3 6 -1 10 4 10 6 0 11 -4 11 -10z m-283 -32
c-3 -8 -6 -5 -6 6 -1 11 2 17 5 13 3 -3 4 -12 1 -19z m343 2 c0 -5 -7 -10 -16
-10 -8 0 -12 5 -9 10 3 6 10 10 16 10 5 0 9 -4 9 -10z m341 -4 c-9 -11 -9 -15
1 -19 7 -3 4 -6 -7 -6 -24 -1 -64 -41 -41 -41 8 0 14 -8 14 -17 0 -10 3 -27 7
-37 7 -16 5 -18 -10 -13 -11 5 -22 1 -30 -9 -8 -12 -18 -15 -31 -10 -18 7 -18
8 4 26 22 18 31 37 12 25 -5 -3 -10 -1 -10 4 0 17 18 13 29 -6 5 -10 13 -14
18 -10 4 5 -1 15 -11 23 -11 8 -21 21 -22 31 -2 9 -9 20 -16 24 -7 5 -8 9 -2
9 5 0 15 -5 22 -12 10 -10 19 -5 42 20 28 31 54 46 31 18z m-596 -6 c-3 -5
-11 -10 -16 -10 -6 0 -7 5 -4 10 3 6 11 10 16 10 6 0 7 -4 4 -10z m72 -9 c10
-15 9 -20 -1 -24 -9 -4 -16 3 -19 19 -5 29 4 31 20 5z m120 -3 c-3 -8 -6 -5
-6 6 -1 11 2 17 5 13 3 -3 4 -12 1 -19z m363 2 c-6 -11 -15 -18 -21 -14 -6 4
-6 11 2 20 17 21 31 17 19 -6z m-1103 -22 c-3 -8 -6 -5 -6 6 -1 11 2 17 5 13
3 -3 4 -12 1 -19z m848 12 c-3 -5 -10 -10 -16 -10 -5 0 -9 5 -9 10 0 6 7 10
16 10 8 0 12 -4 9 -10z m-485 -10 c0 -5 -2 -10 -4 -10 -3 0 -8 5 -11 10 -3 6
-1 10 4 10 6 0 11 -4 11 -10z m150 -3 c0 -8 -7 -14 -15 -14 -25 0 -17 17 13
26 1 1 2 -5 2 -12z m-187 -12 c-3 -9 -8 -14 -10 -11 -3 3 -2 9 2 15 9 16 15
13 8 -4z m460 -5 c-3 -11 -10 -23 -16 -27 -5 -3 -8 -2 -5 3 3 5 8 17 11 27 9
24 16 22 10 -3z m-53 1 c0 -5 -7 -11 -14 -14 -10 -4 -13 -1 -9 9 6 15 23 19
23 5z m-270 -11 c0 -5 -2 -10 -4 -10 -3 0 -8 5 -11 10 -3 6 -1 10 4 10 6 0 11
-4 11 -10z m350 0 c0 -5 -4 -10 -10 -10 -5 0 -10 5 -10 10 0 6 5 10 10 10 6 0
10 -4 10 -10z m-72 -43 c-10 -10 -20 -12 -29 -6 -11 7 -11 9 4 9 9 0 17 8 17
17 0 13 3 14 11 6 9 -9 8 -15 -3 -26z m75 16 c-7 -2 -19 -2 -25 0 -7 3 -2 5
12 5 14 0 19 -2 13 -5z m-499 -19 c3 -8 2 -12 -4 -9 -6 3 -10 10 -10 16 0 14
7 11 14 -7z m547 -20 c-9 -7 -19 -10 -23 -8 -5 3 -8 -2 -8 -11 0 -10 5 -13 13
-9 6 4 9 4 5 -1 -4 -4 3 -16 15 -25 12 -10 20 -20 17 -23 -10 -10 -70 -15 -70
-6 0 5 -6 9 -14 9 -9 0 -12 7 -9 20 4 16 2 19 -11 14 -9 -3 -13 -10 -10 -15 3
-5 1 -9 -5 -9 -5 0 -9 9 -8 19 0 10 6 17 13 14 7 -2 15 1 19 7 5 8 11 8 21 -1
11 -9 12 -15 3 -26 -10 -11 -9 -12 5 -7 9 3 16 10 16 14 0 14 -31 41 -40 35
-5 -3 -12 0 -16 6 -4 7 -3 9 4 5 6 -3 14 -1 18 5 4 8 9 7 15 -2 7 -12 9 -12 9
0 0 11 3 11 15 1 13 -10 15 -9 15 9 0 18 2 20 14 9 11 -11 11 -15 -3 -24z
m171 22 c7 4 8 2 4 -5 -9 -13 -26 -5 -25 12 0 9 2 8 6 -1 2 -6 10 -9 15 -6z
m-822 -11 c-7 -9 -15 -13 -19 -10 -3 3 1 10 9 15 21 14 24 12 10 -5z m542 -23
c-7 -2 -12 -10 -12 -18 0 -8 -4 -14 -10 -14 -14 0 -13 7 7 37 11 17 19 21 22
12 2 -7 -1 -15 -7 -17z m-492 8 c0 -5 -2 -10 -4 -10 -3 0 -8 5 -11 10 -3 6 -1
10 4 10 6 0 11 -4 11 -10z m355 -28 c-1 -15 -9 -41 -18 -57 -21 -38 -22 -24
-2 15 9 17 11 30 5 30 -16 0 -1 38 16 40 1 0 0 -13 -1 -28z m265 18 c-13 -9
-13 -11 0 -20 9 -6 10 -10 3 -10 -6 0 -15 5 -18 10 -8 13 3 30 18 30 7 0 6 -4
-3 -10z m-316 -16 c9 -24 2 -26 -12 -4 -7 11 -8 20 -3 20 5 0 12 -7 15 -16z
m-50 -2 c2 -4 -4 -9 -15 -9 -11 -1 -17 2 -14 8 7 11 22 12 29 1z m-215 -34
c-7 -14 -14 -17 -21 -10 -7 7 -6 15 3 25 19 21 31 10 18 -15z m766 23 c9 -16
-9 -20 -23 -5 -10 12 -10 14 2 14 8 0 17 -4 21 -9z m-900 -11 c3 -5 1 -10 -4
-10 -6 0 -11 5 -11 10 0 6 2 10 4 10 3 0 8 -4 11 -10z m495 6 c0 -3 -4 -8 -10
-11 -5 -3 -10 -1 -10 4 0 6 5 11 10 11 6 0 10 -2 10 -4z m70 -11 c7 -8 19 -15
26 -15 8 0 14 -7 14 -15 0 -8 5 -15 11 -15 5 0 7 6 3 13 -6 9 -4 9 8 -1 9 -7
20 -11 24 -10 5 2 9 -1 9 -7 0 -5 -3 -9 -7 -7 -5 1 -8 -9 -8 -22 0 -13 -7 -26
-15 -30 -9 -3 -15 0 -15 10 0 8 5 12 10 9 6 -3 10 1 10 10 0 8 -11 20 -25 27
-13 6 -22 15 -19 19 3 5 -2 9 -10 9 -9 0 -16 5 -16 10 0 6 -7 10 -15 10 -8 0
-15 5 -15 10 0 15 16 12 30 -5z m-500 -5 c0 -5 -2 -10 -4 -10 -3 0 -8 5 -11
10 -3 6 -1 10 4 10 6 0 11 -4 11 -10z m-180 -20 c0 -5 -2 -10 -4 -10 -3 0 -8
5 -11 10 -3 6 -1 10 4 10 6 0 11 -4 11 -10z m70 6 c0 -3 -4 -8 -10 -11 -5 -3
-10 -1 -10 4 0 6 5 11 10 11 6 0 10 -2 10 -4z m566 -23 c-3 -8 -6 -18 -6 -22
0 -4 -9 -7 -20 -7 -11 0 -20 6 -20 13 0 7 7 10 15 7 18 -7 20 7 4 23 -9 9 -6
10 10 6 14 -4 20 -11 17 -20z m-712 2 c-4 -8 -11 -15 -16 -15 -6 0 -5 6 2 15
7 8 14 15 16 15 2 0 1 -7 -2 -15z m593 -7 c-3 -8 -6 -5 -6 6 -1 11 2 17 5 13
3 -3 4 -12 1 -19z m-186 -7 c4 7 11 10 16 6 9 -9 -17 -28 -29 -21 -4 3 -8 11
-7 17 0 8 3 7 6 -2 4 -11 7 -11 14 0z m181 -30 c8 -23 8 -23 -17 -7 -14 9 -30
14 -35 11 -6 -3 -10 -2 -10 4 0 10 27 20 44 17 5 -1 13 -12 18 -25z m68 19 c0
-5 -4 -10 -10 -10 -5 0 -10 5 -10 10 0 6 5 10 10 10 6 0 10 -4 10 -10z m-410
-24 c0 -3 -4 -8 -10 -11 -5 -3 -10 -1 -10 4 0 6 5 11 10 11 6 0 10 -2 10 -4z
m215 -17 c10 -30 2 -32 -12 -3 -6 13 -7 24 -3 24 5 0 12 -9 15 -21z m205 11
c0 -5 -4 -10 -10 -10 -5 0 -10 5 -10 10 0 6 5 10 10 10 6 0 10 -4 10 -10z
m-135 -21 c-4 -5 1 -9 9 -9 9 0 16 -4 16 -10 0 -12 -11 -13 -26 -2 -13 8 -15
44 -2 36 5 -3 6 -10 3 -15z m-260 1 c3 -5 1 -10 -4 -10 -6 0 -11 5 -11 10 0 6
2 10 4 10 3 0 8 -4 11 -10z m145 -16 c0 -8 -5 -12 -10 -9 -6 4 -8 11 -5 16 9
14 15 11 15 -7z m25 -4 c3 -5 1 -10 -4 -10 -6 0 -11 5 -11 10 0 6 2 10 4 10 3
0 8 -4 11 -10z m-148 -32 c-3 -7 -5 -2 -5 12 0 14 2 19 5 13 2 -7 2 -19 0 -25z
m-320 0 c-3 -8 -6 -5 -6 6 -1 11 2 17 5 13 3 -3 4 -12 1 -19z m283 12 c0 -5
-4 -10 -10 -10 -5 0 -10 5 -10 10 0 6 5 10 10 10 6 0 10 -4 10 -10z m262 -2
c-19 -19 -16 -62 4 -54 12 5 14 1 9 -15 -5 -14 -3 -19 3 -15 6 3 9 -1 8 -11
-2 -9 -9 -19 -16 -21 -9 -3 -11 1 -7 12 4 10 1 19 -8 22 -27 11 -14 94 14 94
3 0 0 -5 -7 -12z m-152 -8 c0 -5 -2 -10 -4 -10 -3 0 -8 5 -11 10 -3 6 -1 10 4
10 6 0 11 -4 11 -10z m38 -13 c9 -10 6 -13 -13 -13 -19 0 -22 3 -13 13 6 7 12
13 13 13 1 0 7 -6 13 -13z m123 -10 c-10 -9 -11 -8 -5 6 3 10 9 15 12 12 3 -3
0 -11 -7 -18z m-524 -22 c0 -8 -4 -12 -9 -9 -5 3 -6 10 -3 15 9 13 12 11 12
-6z m340 0 c0 -8 -4 -12 -9 -9 -4 3 -8 9 -8 15 0 5 4 9 8 9 5 0 9 -7 9 -15z
m-242 -5 c-3 -5 -1 -10 4 -10 7 0 7 -7 -1 -20 -7 -11 -17 -20 -22 -20 -4 0 -3
6 3 14 6 8 11 18 10 22 -2 14 0 24 7 24 3 0 2 -4 -1 -10z m309 -6 c3 -7 -2
-15 -10 -18 -9 -3 -12 -1 -9 4 3 6 1 10 -4 10 -6 0 -11 4 -11 8 0 14 29 10 34
-4z m-117 0 c-3 -3 -12 -4 -19 -1 -8 3 -5 6 6 6 11 1 17 -2 13 -5z m-223 -12
c3 -5 -1 -9 -9 -9 -8 0 -12 4 -9 9 3 4 7 8 9 8 2 0 6 -4 9 -8z m422 -17 c-3
-8 0 -16 7 -19 7 -2 3 -5 -9 -5 -28 -1 -35 8 -21 29 12 21 31 16 23 -5z m-291
-6 c11 -16 1 -19 -13 -3 -7 8 -8 14 -3 14 5 0 13 -5 16 -11z m-145 -19 c-10
-19 -40 -18 -40 2 0 6 8 4 17 -3 15 -12 16 -12 10 4 -4 11 -1 17 9 17 12 0 12
-4 4 -20z m240 -2 c0 -5 7 -2 16 7 14 13 19 14 25 3 7 -10 9 -10 9 0 0 6 5 12
11 12 8 0 8 -5 -1 -15 -7 -8 -16 -12 -21 -9 -14 8 -41 -24 -33 -38 6 -9 3 -9
-9 1 -9 7 -17 18 -17 24 0 5 -8 15 -17 22 -16 12 -14 12 10 8 15 -3 27 -10 27
-15z m-70 -13 c0 -9 -6 -12 -17 -8 -17 6 -17 5 0 -14 14 -16 15 -22 4 -31 -10
-8 -13 -6 -14 11 -1 12 -7 23 -14 26 -7 2 -2 9 12 17 30 17 29 17 29 -1z
m-260 -4 c0 -6 -4 -12 -8 -15 -5 -3 -9 1 -9 9 0 8 4 15 9 15 4 0 8 -4 8 -9z
m110 -1 c0 -5 -5 -10 -11 -10 -5 0 -7 5 -4 10 3 6 8 10 11 10 2 0 4 -4 4 -10z
m320 -21 c0 -3 -7 -6 -15 -6 -8 0 -15 4 -15 8 0 5 -7 6 -15 3 -8 -4 -15 -1
-15 4 0 25 59 16 60 -9z m-345 0 c11 -16 1 -19 -13 -3 -7 8 -8 14 -3 14 5 0
13 -5 16 -11z m215 -20 c0 -17 -4 -28 -10 -24 -5 3 -10 17 -10 31 0 13 5 24
10 24 6 0 10 -14 10 -31z m-105 12 c3 -5 1 -12 -4 -15 -5 -3 -11 1 -15 9 -6
16 9 21 19 6z m163 -21 c-15 -24 -19 -21 -11 8 3 12 9 19 14 16 5 -3 3 -14 -3
-24z m-298 -10 c0 -5 -2 -10 -4 -10 -3 0 -8 5 -11 10 -3 6 -1 10 4 10 6 0 11
-4 11 -10z m270 0 c0 -5 -4 -10 -10 -10 -5 0 -10 5 -10 10 0 6 5 10 10 10 6 0
10 -4 10 -10z m-200 -10 c0 -5 -12 -10 -27 -9 l-28 1 25 8 c14 4 26 8 28 9 1
1 2 -3 2 -9z m222 -33 c12 -13 17 -15 21 -5 4 9 6 7 6 -4 1 -26 -16 -30 -32
-8 -14 20 -15 20 -32 4 -10 -10 -26 -19 -36 -19 -23 -2 -24 2 -5 21 17 17 30
19 20 2 -5 -7 -3 -8 5 -4 7 5 10 14 7 21 -7 19 26 13 46 -8z m-229 0 c4 3 7 1
7 -5 0 -7 -4 -12 -10 -12 -5 0 -13 -1 -17 -2 -3 -2 -7 5 -9 15 -2 14 1 15 10
8 7 -6 16 -8 19 -4z m143 0 c4 -4 -2 -7 -14 -7 -12 0 -22 4 -22 9 0 10 26 9
36 -2z m-246 -7 c0 -5 -5 -10 -11 -10 -5 0 -7 5 -4 10 3 6 8 10 11 10 2 0 4
-4 4 -10z m67 -62 c-3 -7 -5 -2 -5 12 0 14 2 19 5 13 2 -7 2 -19 0 -25z m112
15 c-1 -17 -18 -47 -18 -34 -1 8 -7 11 -16 7 -13 -4 -14 -2 -5 14 10 19 41 29
39 13z m-159 -13 c0 -5 -2 -10 -4 -10 -3 0 -8 5 -11 10 -3 6 -1 10 4 10 6 0
11 -4 11 -10z m20 -42 c0 -6 -3 -8 -7 -5 -3 4 -12 2 -20 -5 -7 -6 -16 -8 -20
-4 -8 8 29 36 39 30 5 -3 8 -10 8 -16z m36 -38 c0 -27 -21 -19 -22 7 -1 12 4
19 10 17 7 -3 12 -13 12 -24z m88 15 c-4 -8 -15 -15 -26 -15 -10 0 -16 5 -13
10 4 6 11 8 16 5 5 -4 9 -1 9 4 0 6 4 11 10 11 5 0 7 -7 4 -15z m-161 -121
c-4 -12 -8 -13 -14 -3 -9 15 -2 32 11 24 5 -3 6 -13 3 -21z m-8 -34 c7 0 15 6
17 14 2 8 11 -2 21 -22 l17 -37 -20 24 c-18 21 -20 22 -20 4 0 -11 -7 -20 -15
-20 -8 0 -15 8 -15 18 0 10 -5 21 -10 24 -6 4 -7 12 -3 18 5 8 9 7 11 -5 2
-10 10 -18 17 -18z"/>
<path d="M1704 3481 c4 -5 0 -12 -6 -14 -8 -4 -9 -6 -2 -6 6 -1 17 6 24 14 10
12 9 15 -4 15 -10 0 -15 -4 -12 -9z"/>
<path d="M1406 3305 c4 -8 8 -15 10 -15 2 0 4 7 4 15 0 8 -4 15 -10 15 -5 0
-7 -7 -4 -15z"/>
<path d="M1150 2790 c-8 -5 -12 -12 -9 -15 4 -3 12 1 19 10 14 17 11 19 -10 5z"/>
<path d="M2622 3983 c6 -7 7 -20 4 -29 -4 -9 -1 -24 6 -32 11 -13 10 -15 -6
-9 -14 6 -17 4 -12 -10 6 -17 5 -17 -8 0 -11 15 -15 15 -19 3 -4 -9 2 -17 14
-21 16 -6 17 -8 5 -21 -18 -18 -30 -18 -23 0 4 10 0 12 -15 8 -16 -4 -19 -2
-13 9 8 12 6 12 -8 0 -18 -14 -22 -22 -9 -20 4 1 14 1 22 0 13 -1 13 -2 0 -12
-11 -8 -7 -9 18 -6 18 2 35 0 38 -5 3 -4 -1 -8 -10 -8 -8 0 -17 -6 -19 -12 -4
-10 -8 -10 -15 1 -6 8 -19 12 -32 8 -17 -4 -20 -2 -15 11 5 13 3 14 -6 5 -6
-6 -9 -20 -5 -30 6 -15 9 -15 16 -3 5 8 12 12 15 9 9 -9 -6 -40 -16 -33 -5 3
-9 1 -9 -4 0 -5 -6 -9 -14 -9 -9 0 -13 8 -10 25 4 22 3 23 -11 8 -10 -10 -14
-24 -10 -36 4 -12 2 -20 -5 -20 -6 0 -8 5 -5 10 3 6 1 10 -4 10 -6 0 -11 -7
-11 -15 0 -8 -7 -15 -15 -15 -10 0 -15 -10 -15 -26 l0 -27 21 26 c16 22 23 24
34 14 7 -6 11 -16 8 -21 -3 -4 -9 -2 -14 5 -8 12 -11 11 -19 -1 -5 -8 -10 -19
-10 -25 0 -5 4 -4 9 4 8 12 12 12 24 2 10 -8 17 -9 22 -1 9 14 45 13 46 -2 0
-7 5 -3 11 10 6 12 15 22 19 22 10 0 49 -50 49 -64 0 -6 -5 -4 -10 4 -8 11
-10 8 -7 -15 3 -27 7 -30 38 -30 19 -1 37 4 41 9 4 6 10 7 15 3 4 -5 1 -12 -7
-17 -12 -7 -12 -11 1 -27 13 -17 13 -17 -5 -3 -19 15 -19 14 -2 -18 9 -18 22
-30 27 -26 7 4 6 -2 -1 -16 -10 -18 -9 -24 1 -31 8 -5 19 -9 24 -9 6 0 4 4 -4
9 -8 5 -10 14 -6 21 5 7 8 29 7 49 0 33 1 34 10 13 8 -16 8 -29 0 -47 -11 -23
0 -36 12 -16 5 8 14 8 45 2 2 -1 -2 -7 -8 -15 -6 -7 -9 -21 -5 -30 3 -9 1 -16
-5 -16 -11 0 -15 12 -11 44 1 11 -3 16 -9 11 -6 -3 -9 -11 -5 -16 3 -6 -3 -13
-14 -16 -26 -6 -25 -52 1 -50 9 1 17 7 17 13 0 7 -8 15 -17 17 -15 4 -15 5 -2
6 9 0 22 -6 29 -14 7 -8 22 -15 34 -15 19 -1 19 -2 3 -11 -9 -5 -22 -7 -27 -4
-6 3 -10 1 -10 -4 0 -6 4 -11 9 -11 5 0 13 -9 16 -21 5 -14 10 -17 19 -10 8 7
16 7 24 1 7 -6 10 -7 7 -4 -3 4 1 14 8 22 10 13 9 15 -4 10 -11 -4 -16 -1 -15
10 0 9 -10 22 -24 29 -22 11 -20 18 3 14 5 -1 7 4 4 11 -2 7 -10 12 -16 10
-13 -2 -15 14 -2 22 10 7 27 -12 32 -36 3 -13 8 -15 19 -8 13 8 12 12 -7 25
-22 16 -34 43 -13 30 6 -3 10 -2 10 3 0 21 26 19 28 -1 1 -18 -1 -19 -9 -7 -8
12 -9 11 -7 -5 2 -11 9 -21 16 -21 6 -1 13 -2 15 -3 1 -2 13 -4 27 -7 25 -4
25 -3 -2 12 -16 8 -28 22 -28 31 0 14 2 14 15 -3 13 -17 14 -16 5 14 -5 20 -5
30 1 27 7 -5 14 22 11 46 -1 4 9 4 21 1 19 -5 19 -7 4 -10 -10 -2 -17 -11 -15
-20 1 -9 -1 -22 -5 -29 -4 -6 -3 -14 3 -18 5 -3 10 1 10 10 0 9 4 14 9 11 5
-4 7 3 4 14 -6 23 4 25 31 5 10 -8 16 -21 13 -29 -4 -10 -1 -13 9 -9 8 3 13 8
10 11 -3 2 -1 13 5 24 13 25 4 35 -16 18 -16 -14 -20 -3 -6 19 7 11 13 9 29
-7 14 -14 22 -17 26 -9 3 9 5 9 5 0 1 -6 -9 -19 -21 -27 -19 -14 -20 -16 -5
-16 12 0 16 -4 10 -12 -12 -20 -12 -38 -1 -38 6 0 8 -7 4 -15 -3 -8 0 -14 7
-12 7 1 11 -4 9 -12 -3 -12 0 -12 12 -1 22 17 22 -7 0 -31 -12 -13 -12 -19 -3
-25 7 -4 10 -3 6 3 -4 6 10 17 31 25 35 14 38 13 38 -3 0 -12 -7 -16 -23 -13
-38 7 -53 -46 -15 -54 8 -1 11 2 7 8 -3 5 -1 10 4 10 14 0 14 -16 1 -41 -9
-15 -15 -17 -30 -9 -16 8 -20 7 -20 -4 0 -8 5 -18 10 -21 8 -5 7 -12 -2 -23
-12 -16 -11 -16 6 -2 18 14 19 13 13 -3 -4 -10 -3 -16 2 -12 5 3 11 0 13 -7 3
-8 8 -7 18 4 11 11 19 13 32 5 15 -10 15 -12 1 -22 -13 -10 -13 -14 -3 -20 8
-5 11 -4 6 3 -4 7 1 10 14 9 15 -1 19 -6 14 -22 -5 -18 -4 -18 11 3 12 17 21
20 33 13 10 -6 24 -6 35 1 11 5 17 6 14 1 -3 -5 -2 -15 4 -23 7 -12 9 -9 10
10 1 14 2 32 1 40 0 10 6 7 19 -9 27 -33 64 -34 81 -1 25 49 39 59 65 49 15
-6 31 -5 43 1 12 7 20 6 22 -1 2 -5 11 -7 21 -4 9 4 14 11 11 16 -3 5 2 12 11
15 11 5 26 -3 42 -20 27 -29 25 -49 -2 -22 -9 9 -13 16 -8 16 4 0 0 5 -10 11
-32 18 -31 1 1 -31 17 -16 27 -30 24 -31 -4 0 2 -4 13 -9 17 -7 17 -9 3 -9
-10 -1 -18 -6 -18 -13 0 -6 3 -8 7 -5 3 4 12 2 20 -4 10 -9 13 -8 10 7 -1 11
-6 25 -10 32 -5 6 -5 16 -2 22 3 5 1 20 -6 32 l-12 23 24 -20 23 -20 -16 26
c-13 20 -15 34 -8 55 l8 29 1 -26 c1 -15 8 -29 16 -32 17 -7 29 8 19 26 -5 8
-4 9 3 2 15 -14 28 -59 15 -51 -8 5 -23 -5 -34 -25 -1 -3 2 -12 8 -20 5 -8 9
-20 8 -26 -1 -7 -2 -18 -3 -24 0 -5 -5 -7 -11 -4 -5 3 -10 1 -10 -4 0 -11 11
-14 27 -8 5 1 6 9 4 17 -2 11 2 10 18 -4 30 -27 36 -54 16 -76 -13 -14 -14
-20 -3 -26 7 -4 10 -4 6 1 -10 10 11 37 23 29 5 -3 4 7 -1 21 -13 35 -13 38 6
31 8 -3 13 -2 10 3 -3 5 1 12 10 15 8 3 12 2 9 -4 -3 -6 -2 -10 4 -10 5 0 13
9 16 20 3 11 14 20 23 19 11 0 12 -3 5 -6 -18 -7 -16 -20 2 -20 17 0 19 15 5
51 -7 20 -6 24 5 19 8 -3 15 -9 15 -14 0 -11 40 -12 56 -1 6 4 14 14 17 22 4
12 6 11 6 -3 1 -10 -6 -20 -14 -23 -8 -4 -15 -10 -15 -16 0 -5 5 -6 10 -3 6 3
10 1 10 -5 0 -6 -7 -13 -16 -17 -13 -5 -13 -7 -2 -14 19 -12 40 -11 32 2 -4 8
1 9 16 4 15 -5 20 -4 16 4 -4 6 -14 11 -22 11 -8 0 -12 5 -9 10 10 17 43 11
47 -7 2 -10 4 3 4 30 1 26 -3 47 -8 47 -5 0 -6 -4 -3 -10 3 -5 -1 -10 -9 -10
-19 0 -19 2 -4 35 8 18 14 22 20 13 4 -8 8 8 8 39 0 28 -5 55 -10 58 -8 5 -8
11 0 20 7 8 10 91 9 236 -1 188 -4 227 -17 242 -8 9 -12 20 -9 24 4 3 7 1 7
-5 0 -7 5 -12 10 -12 6 0 10 18 10 40 l0 40 -634 -1 c-591 0 -635 -1 -639 -17
-4 -16 -5 -16 -6 0 -1 14 -10 17 -55 15 -42 -2 -52 -5 -44 -14z m478 -5 c0 -4
-10 -14 -22 -23 l-23 -17 25 8 c23 6 24 5 10 -11 -13 -16 -16 -15 -37 11 -26
32 -24 40 6 24 12 -6 21 -7 21 -1 0 5 -6 11 -12 14 -7 3 -3 4 10 4 12 -1 22
-5 22 -9z m-315 -16 c-3 -3 -11 0 -18 7 -9 10 -8 11 6 5 10 -3 15 -9 12 -12z
m189 2 c3 -8 2 -12 -4 -9 -6 3 -10 10 -10 16 0 14 7 11 14 -7z m336 12 c0 -2
-7 -6 -15 -10 -8 -3 -15 -1 -15 4 0 6 7 10 15 10 8 0 15 -2 15 -4z m260 -6 c0
-5 -4 -10 -10 -10 -5 0 -10 5 -10 10 0 6 5 10 10 10 6 0 10 -4 10 -10z m-895
-10 c3 -6 -1 -7 -9 -4 -18 7 -21 14 -7 14 6 0 13 -4 16 -10z m82 -33 c-6 -20
-26 -19 -24 1 1 12 6 18 14 15 8 -3 12 -10 10 -16z m68 13 c3 -6 -1 -7 -9 -4
-18 7 -21 14 -7 14 6 0 13 -4 16 -10z m-149 -12 c4 -7 3 -8 -4 -4 -8 5 -12 0
-12 -13 0 -12 -5 -21 -11 -21 -6 0 -9 -7 -5 -15 3 -8 1 -15 -4 -15 -13 0 -13
7 2 47 13 35 22 41 34 21z m194 8 c0 -11 -19 -15 -25 -6 -3 5 1 10 9 10 9 0
16 -2 16 -4z m965 -16 c3 -6 -1 -7 -9 -4 -18 7 -21 14 -7 14 6 0 13 -4 16 -10z
m122 -22 c-3 -7 -5 -2 -5 12 0 14 2 19 5 13 2 -7 2 -19 0 -25z m-1037 6 c0 -2
-9 -4 -20 -4 -11 0 -20 4 -20 9 0 5 9 7 20 4 11 -3 20 -7 20 -9z m140 6 c0 -5
-2 -10 -4 -10 -3 0 -8 5 -11 10 -3 6 -1 10 4 10 6 0 11 -4 11 -10z m370 6 c0
-3 -4 -8 -10 -11 -5 -3 -10 -1 -10 4 0 6 5 11 10 11 6 0 10 -2 10 -4z m155 -6
c3 -5 1 -10 -4 -10 -6 0 -11 5 -11 10 0 6 2 10 4 10 3 0 8 -4 11 -10z m-890
-10 c3 -5 -1 -10 -10 -10 -9 0 -13 5 -10 10 3 6 8 10 10 10 2 0 7 -4 10 -10z
m535 0 c0 -5 -4 -10 -10 -10 -5 0 -10 5 -10 10 0 6 5 10 10 10 6 0 10 -4 10
-10z m45 -10 c3 -6 -1 -7 -9 -4 -18 7 -21 14 -7 14 6 0 13 -4 16 -10z m-510
-42 c-1 -13 -3 -29 -4 -35 0 -7 -6 -13 -11 -13 -7 0 -7 7 0 21 13 24 10 29
-18 32 -11 0 -19 4 -16 8 2 4 14 5 26 1 16 -4 19 -2 13 8 -5 8 -4 11 2 7 6 -4
9 -17 8 -29z m575 22 c0 -5 -4 -10 -10 -10 -5 0 -10 5 -10 10 0 6 5 10 10 10
6 0 10 -4 10 -10z m-541 -29 c-15 -5 -22 6 -14 19 6 9 10 9 16 -1 5 -8 4 -15
-2 -18z m492 5 c-1 -16 -28 -15 -28 1 0 7 7 13 14 11 8 -2 14 -7 14 -12z m364
4 c3 -5 1 -10 -4 -10 -6 0 -11 5 -11 10 0 6 2 10 4 10 3 0 8 -4 11 -10z m-795
-20 c9 -16 8 -20 -6 -20 -10 0 -14 3 -11 7 4 3 2 12 -4 20 -8 9 -8 13 -1 13 6
0 16 -9 22 -20z m36 11 c8 7 14 7 14 1 0 -12 -26 -23 -34 -15 -3 4 -6 11 -5
17 0 6 3 5 6 -2 4 -10 8 -10 19 -1z m964 5 c0 -3 -4 -8 -10 -11 -5 -3 -10 -1
-10 4 0 6 5 11 10 11 6 0 10 -2 10 -4z m-373 -28 c-3 -8 -6 -5 -6 6 -1 11 2
17 5 13 3 -3 4 -12 1 -19z m-682 -6 c-3 -3 -11 0 -18 7 -9 10 -8 11 6 5 10 -3
15 -9 12 -12z m-169 -16 c2 -13 -1 -15 -11 -6 -9 8 -15 8 -20 0 -3 -5 -1 -10
6 -10 8 0 7 -5 -2 -17 -12 -15 -12 -16 5 -10 16 7 17 5 5 -9 -8 -10 -15 -12
-17 -5 -2 6 -7 9 -12 6 -4 -3 -10 2 -14 10 -3 8 0 14 7 12 7 -1 11 4 9 12 -5
23 6 40 24 37 10 -2 18 -10 20 -20z m347 0 c24 -24 20 -46 -9 -46 -20 0 -24
-48 -4 -53 25 -6 21 -35 -4 -32 -12 1 -27 3 -35 4 -11 1 -11 4 0 18 10 11 10
14 2 9 -8 -4 -13 -2 -13 4 0 6 -4 9 -9 5 -5 -3 -12 -1 -15 4 -3 5 1 11 9 15 8
3 15 1 15 -4 0 -5 7 -7 15 -3 9 3 14 10 12 16 -2 6 5 19 16 30 18 18 18 20 1
38 -25 28 -9 23 19 -5z m-258 4 c-3 -5 -2 -10 3 -10 21 0 21 -30 -1 -40 -20
-10 -21 -10 -4 4 17 13 17 15 1 24 -14 8 -13 32 2 32 3 0 2 -4 -1 -10z m198
-16 c-4 -10 -9 -12 -15 -6 -12 12 -1 35 12 27 5 -3 6 -13 3 -21z m237 16 c0
-5 -7 -10 -15 -10 -8 0 -15 5 -15 10 0 6 7 10 15 10 8 0 15 -4 15 -10z m577
-8 c1 -10 -5 -19 -12 -19 -10 0 -11 5 -4 19 5 10 11 18 12 18 2 0 3 -8 4 -18z
m-42 -11 c-3 -6 -11 -8 -17 -5 -6 4 -5 9 3 15 16 10 23 4 14 -10z m-835 -33
c0 -4 -5 -8 -11 -8 -5 0 -8 4 -4 9 8 15 -15 25 -28 12 -15 -15 -27 -14 -27 4
0 9 6 12 15 9 8 -4 15 -1 15 6 0 9 7 7 20 -5 11 -10 20 -22 20 -27z m210 31
c0 -6 6 -17 14 -25 13 -12 16 -12 24 2 7 13 13 14 28 6 10 -6 13 -12 7 -12 -7
0 -13 -4 -13 -10 0 -5 3 -9 8 -7 4 1 8 -2 9 -7 1 -5 13 -16 28 -26 15 -10 22
-20 17 -24 -5 -3 -12 1 -16 9 -3 8 -12 15 -19 15 -7 0 -20 11 -27 25 -16 29
-28 25 -25 -8 2 -17 -2 -24 -14 -23 -9 0 -15 -5 -13 -12 1 -8 -2 -11 -8 -7 -8
5 -7 12 3 23 14 15 13 21 -2 50 -9 18 -21 29 -26 25 -4 -4 -5 -2 -1 5 9 15 26
16 26 1z m334 3 c2 -4 -5 -9 -17 -9 -17 -2 -19 0 -7 7 18 12 18 12 24 2z m61
-12 c-3 -5 -10 -10 -16 -10 -5 0 -9 5 -9 10 0 6 7 10 16 10 8 0 12 -4 9 -10z
m138 -7 c-7 -2 -21 -2 -30 0 -10 3 -4 5 12 5 17 0 24 -2 18 -5z m-691 -25 c-6
-6 -15 -8 -19 -4 -4 4 -1 11 7 16 19 12 27 3 12 -12z m578 18 c0 -3 -4 -8 -10
-11 -5 -3 -10 -1 -10 4 0 6 5 11 10 11 6 0 10 -2 10 -4z m479 -5 c7 -5 9 -11
5 -14 -5 -3 -15 1 -22 9 -14 16 -5 18 17 5z m-769 -13 c0 -4 -6 -8 -14 -8 -8
0 -17 4 -20 8 -2 4 4 8 15 8 10 0 19 -4 19 -8z m390 2 c0 -5 -4 -10 -10 -10
-5 0 -10 5 -10 10 0 6 5 10 10 10 6 0 10 -4 10 -10z m-917 -7 c-7 -2 -19 -2
-25 0 -7 3 -2 5 12 5 14 0 19 -2 13 -5z m638 -18 c-12 -6 -18 -15 -14 -20 4
-4 2 -5 -4 -1 -18 10 -16 26 3 26 8 0 12 4 9 10 -4 6 1 7 11 3 14 -5 14 -7 -5
-18z m-781 11 c0 -2 -7 -7 -16 -10 -8 -3 -12 -2 -9 4 6 10 25 14 25 6z m322
-9 c-1 -4 -7 -17 -12 -29 l-9 -23 0 23 c-1 13 -5 20 -11 17 -5 -3 -7 0 -4 8 3
8 13 14 22 13 9 -2 16 -6 14 -9z m918 5 c0 -4 -10 -9 -22 -9 -18 -2 -20 0 -8
7 18 12 30 13 30 2z m-1130 -11 c0 -6 -4 -12 -8 -15 -5 -3 -9 1 -9 9 0 8 4 15
9 15 4 0 8 -4 8 -9z m404 0 c6 -9 -35 -24 -43 -15 -6 5 18 24 31 24 4 0 9 -4
12 -9z m320 -4 c-3 -8 -12 -14 -21 -14 -13 0 -13 2 3 14 10 7 19 13 21 13 1 0
0 -6 -3 -13z m200 5 c3 -5 -1 -9 -9 -9 -8 0 -15 4 -15 9 0 4 4 8 9 8 6 0 12
-4 15 -8z m-881 -16 c9 -7 17 -17 17 -21 0 -4 -6 -2 -13 4 -14 11 -27 5 -27
-11 0 -5 4 -6 10 -3 6 3 7 -1 4 -10 -6 -14 -8 -14 -20 2 -12 15 -13 15 -8 2 3
-10 1 -20 -5 -24 -7 -4 -11 4 -11 19 0 17 5 26 16 26 10 0 14 6 10 15 -7 18 3
19 27 1z m67 10 c0 -2 -7 -7 -16 -10 -8 -3 -12 -2 -9 4 6 10 25 14 25 6z m40
-6 c5 9 9 8 13 -3 4 -10 -1 -14 -16 -12 -29 3 -29 3 -21 17 6 9 9 9 12 -1 3
-10 6 -10 12 -1z m433 -15 c-3 -9 -8 -14 -10 -11 -3 3 -2 9 2 15 9 16 15 13 8
-4z m34 -7 c-3 -8 -6 -5 -6 6 -1 11 2 17 5 13 3 -3 4 -12 1 -19z m603 12 c0
-5 -5 -10 -11 -10 -5 0 -7 5 -4 10 3 6 8 10 11 10 2 0 4 -4 4 -10z m-300 -10
c0 -5 -5 -10 -11 -10 -5 0 -7 5 -4 10 3 6 8 10 11 10 2 0 4 -4 4 -10z m-250
-15 c0 -8 -4 -15 -10 -15 -5 0 -10 7 -10 15 0 8 5 15 10 15 6 0 10 -7 10 -15z
m-272 -2 c-10 -2 -18 -9 -18 -14 0 -6 4 -8 9 -4 15 9 25 -36 11 -49 -10 -8
-11 -7 -6 8 6 17 5 17 -11 5 -11 -9 -14 -10 -9 -1 4 6 4 18 -1 25 -15 23 -10
33 16 34 14 0 18 -1 9 -4z m646 -9 c5 -14 4 -15 -9 -4 -17 14 -19 20 -6 20 5
0 12 -7 15 -16z m-729 -4 c3 -6 -1 -7 -9 -4 -18 7 -21 14 -7 14 6 0 13 -4 16
-10z m219 -2 c-4 -7 -13 -20 -21 -30 -10 -11 -11 -18 -4 -23 6 -3 11 -1 11 6
0 16 13 3 16 -15 1 -9 -5 -12 -18 -8 -15 4 -19 1 -16 -9 3 -8 12 -13 21 -11 8
1 18 -2 22 -8 3 -6 0 -7 -9 -4 -9 3 -16 1 -16 -5 0 -14 47 -15 55 -1 8 13 25
13 25 -1 0 -5 -5 -7 -10 -4 -10 6 -9 -21 1 -40 6 -10 -24 -45 -38 -45 -5 0 -8
-6 -8 -12 0 -7 -4 -16 -9 -20 -6 -4 -4 -13 4 -23 7 -9 9 -15 4 -14 -21 4 -34
-2 -31 -13 1 -7 -5 -11 -13 -9 -8 2 -25 4 -37 4 -13 -1 -20 4 -17 12 3 7 16
11 30 9 16 -1 27 4 31 14 4 9 11 20 17 24 6 4 6 11 -2 21 -10 12 -7 16 19 21
18 3 29 11 27 18 -6 17 -34 17 -30 0 2 -9 -4 -12 -15 -8 -10 3 -25 1 -33 -4
-9 -5 -19 -5 -26 1 -8 7 -14 7 -18 0 -4 -5 3 -16 14 -24 17 -12 18 -16 6 -20
-9 -4 -16 2 -19 15 -3 11 -10 17 -16 14 -11 -7 -28 20 -27 43 1 8 8 15 16 16
8 2 22 4 30 6 8 2 14 -2 12 -9 -1 -8 2 -11 8 -7 6 3 8 11 5 16 -4 5 1 9 10 9
10 0 13 -5 9 -12 -4 -7 -3 -8 5 -4 6 4 17 3 24 -2 7 -5 21 -6 32 -1 19 7 19 8
-2 8 -32 1 -54 12 -47 23 4 6 -2 8 -15 3 -12 -4 -21 -2 -21 4 0 6 5 11 11 11
5 0 7 5 4 10 -3 6 -2 10 2 10 5 0 9 12 8 28 0 15 6 32 15 39 20 16 33 16 24 1z
m89 -1 c4 -12 -10 -14 -43 -8 -6 2 23 21 31 21 4 0 9 -6 12 -13z m416 -24 c2
-2 0 -3 -6 -3 -6 0 -21 9 -34 21 l-24 20 30 -17 c17 -10 32 -19 34 -21z m288
31 c-3 -3 -12 -4 -19 -1 -8 3 -5 6 6 6 11 1 17 -2 13 -5z m-1234 -11 c-7 -2
-21 -2 -30 0 -10 3 -4 5 12 5 17 0 24 -2 18 -5z m70 0 c-7 -2 -19 -2 -25 0 -7
3 -2 5 12 5 14 0 19 -2 13 -5z m296 -10 c-6 -7 -15 -10 -20 -7 -13 8 -3 21 15
21 12 0 13 -4 5 -14z m240 4 c-15 -7 -24 -18 -21 -26 4 -12 3 -12 -11 0 -13
12 -13 15 7 26 11 7 28 12 36 12 8 0 3 -6 -11 -12z m-473 -12 c13 -13 13 -15
1 -15 -8 0 -17 7 -21 15 -3 8 -3 15 0 15 3 0 12 -7 20 -15z m-31 -5 c3 -5 1
-10 -4 -10 -6 0 -11 5 -11 10 0 6 2 10 4 10 3 0 8 -4 11 -10z m125 -1 c0 -4
-11 -6 -24 -5 -13 0 -22 4 -20 8 6 9 44 6 44 -3z m46 4 c-10 -11 -36 -12 -36
-2 0 5 10 9 22 9 12 0 18 -3 14 -7z m704 -3 c0 -5 -5 -10 -11 -10 -5 0 -7 5
-4 10 3 6 8 10 11 10 2 0 4 -4 4 -10z m-430 -8 c0 -1 -12 -7 -26 -12 -15 -6
-24 -16 -21 -23 3 -8 -4 -13 -19 -13 -14 0 -24 6 -24 14 0 7 5 10 10 7 18 -11
32 5 19 21 -10 12 -6 14 25 12 20 -2 36 -4 36 -6z m120 4 c0 -2 -9 -6 -20 -9
-11 -3 -20 -1 -20 4 0 5 9 9 20 9 11 0 20 -2 20 -4z m-540 -40 c-5 -13 -7 -26
-5 -28 2 -2 -9 -5 -25 -6 -36 -3 -37 1 -8 30 16 16 20 17 15 5 -3 -9 -2 -17 3
-17 6 0 10 9 10 20 0 11 4 20 10 20 6 0 6 -9 0 -24z m20 -13 c-11 -17 -11 -17
-6 0 3 10 6 24 7 30 0 9 2 9 5 0 3 -7 0 -20 -6 -30z m620 22 c0 -8 -4 -15 -10
-15 -5 0 -10 7 -10 15 0 8 5 15 10 15 6 0 10 -7 10 -15z m27 -7 c-3 -8 -6 -5
-6 6 -1 11 2 17 5 13 3 -3 4 -12 1 -19z m93 12 c0 -5 -2 -10 -4 -10 -3 0 -8 5
-11 10 -3 6 -1 10 4 10 6 0 11 -4 11 -10z m135 1 c3 -5 1 -12 -5 -16 -5 -3
-10 1 -10 9 0 18 6 21 15 7z m115 -1 c0 -5 -7 -10 -16 -10 -8 0 -12 5 -9 10 3
6 10 10 16 10 5 0 9 -4 9 -10z m70 0 c0 -5 -4 -10 -10 -10 -5 0 -10 5 -10 10
0 6 5 10 10 10 6 0 10 -4 10 -10z m-626 -16 c3 -8 2 -12 -4 -9 -6 3 -10 2 -10
-4 0 -19 20 -22 42 -7 12 9 17 16 10 16 -6 0 -12 5 -12 11 0 20 33 4 36 -18 3
-20 -14 -32 -29 -20 -2 1 -11 -4 -21 -12 -13 -11 -14 -17 -5 -28 9 -10 9 -17
1 -25 -6 -6 -8 -17 -5 -25 3 -7 -3 -23 -13 -34 -14 -16 -15 -22 -4 -32 10 -10
11 -9 5 3 -8 13 -7 13 9 1 11 -10 14 -17 7 -24 -7 -7 -18 -4 -33 10 -13 11
-33 26 -45 32 -22 11 -30 40 -16 54 3 4 12 2 20 -5 10 -8 17 -8 26 1 9 10 8
11 -5 6 -11 -4 -18 -2 -18 5 0 6 4 9 9 5 17 -10 33 31 17 44 -16 14 -26 4 -19
-17 4 -14 3 -15 -5 -2 -7 9 -7 19 -2 26 6 6 6 15 2 20 -4 5 3 1 15 -10 21 -17
49 -14 37 5 -3 5 -9 7 -14 4 -5 -3 -12 0 -16 6 -4 7 -3 9 3 6 6 -4 13 2 16 13
6 24 13 25 21 4z m-234 -35 c0 -5 -4 -9 -10 -9 -5 0 -10 7 -10 16 0 8 5 12 10
9 6 -3 10 -10 10 -16z m521 4 c12 -14 12 -15 0 -9 -22 14 -31 -15 -13 -43 10
-14 12 -22 5 -18 -7 4 -16 0 -21 -9 -5 -9 -12 -15 -15 -15 -21 3 -28 0 -22 -9
3 -5 2 -10 -4 -10 -5 0 -12 6 -14 13 -3 6 -6 -2 -6 -18 -1 -17 -6 -36 -12 -42
-7 -7 -2 -14 20 -21 17 -6 31 -14 31 -17 0 -3 -4 -3 -10 0 -5 3 -10 -1 -10
-10 0 -9 -5 -13 -10 -10 -6 4 -8 11 -4 16 3 6 -4 13 -16 16 -19 5 -21 10 -15
37 4 17 7 37 8 44 0 6 4 12 9 12 4 0 8 5 8 11 0 5 -4 7 -10 4 -5 -3 -10 -2
-10 4 0 6 -6 8 -14 5 -11 -4 -13 0 -9 15 6 25 -12 28 -25 5 -7 -12 -11 -13
-17 -5 -9 15 -6 18 28 26 17 5 27 3 27 -3 0 -6 11 -22 24 -35 22 -22 26 -23
50 -10 27 14 33 28 17 37 -5 4 -11 0 -14 -6 -2 -8 -8 -9 -13 -4 -5 5 -4 11 4
13 6 3 12 9 12 14 0 8 20 37 26 39 1 0 8 -8 15 -17z m-188 -29 c-2 -6 -14 -14
-25 -17 -14 -4 -19 -11 -15 -21 4 -9 3 -16 -2 -16 -14 0 -33 29 -28 42 3 7 6
4 7 -7 1 -19 1 -19 13 2 12 21 15 23 37 23 5 0 7 8 4 18 -5 13 -4 14 4 3 6 -8
8 -20 5 -27z m100 20 c15 -6 25 -24 12 -24 -13 0 -55 25 -55 32 0 6 6 7 13 4
6 -3 20 -9 30 -12z m201 0 c5 -14 4 -15 -9 -4 -17 14 -19 20 -6 20 5 0 12 -7
15 -16z m143 -17 c4 -5 -5 -6 -20 -3 -31 5 -44 -9 -27 -29 16 -20 28 -19 33 3
3 9 4 5 4 -10 -1 -15 -4 -25 -8 -22 -4 2 -12 -3 -19 -11 -11 -14 -15 -14 -32
2 -13 12 -15 19 -7 24 16 10 18 59 2 59 -6 0 -14 4 -17 8 -6 10 80 -10 91 -21z
m-167 -10 c0 -5 -4 -5 -10 -2 -14 9 -13 -8 2 -23 20 -20 -2 -13 -24 8 -19 17
-19 20 -5 20 9 0 17 8 17 18 0 14 2 15 10 2 5 -8 10 -19 10 -23z m224 -40 c-9
-5 -18 -6 -21 -3 -4 3 -1 6 5 6 7 0 12 8 12 18 0 14 2 15 10 2 6 -10 4 -17 -6
-23z m-34 13 c0 -5 -2 -10 -4 -10 -3 0 -8 5 -11 10 -3 6 -1 10 4 10 6 0 11 -4
11 -10z m-480 -20 c0 -11 -4 -20 -9 -20 -5 0 -7 9 -4 20 3 11 7 20 9 20 2 0 4
-9 4 -20z m-40 -21 c0 -5 -5 -8 -11 -6 -6 1 -14 -4 -17 -12 -3 -8 0 -11 7 -7
6 4 11 1 11 -8 0 -10 6 -13 18 -10 14 5 15 4 2 -5 -14 -10 -7 -15 13 -12 17 3
47 -21 42 -32 -4 -7 0 -4 9 7 8 10 20 15 26 11 9 -6 9 -10 -1 -16 -10 -6 -8
-9 7 -9 12 0 27 -7 34 -15 17 -21 -3 -20 -35 1 -24 15 -25 15 -33 -5 -7 -21
-9 -20 -25 14 -9 20 -21 34 -26 30 -5 -3 -12 -1 -16 5 -4 6 -11 7 -17 4 -7 -4
-8 -2 -4 4 3 6 -3 16 -15 22 -18 10 -19 13 -6 28 8 9 12 24 9 32 -4 13 -3 13
11 1 10 -7 17 -17 17 -22z m276 9 c5 -13 7 -26 6 -30 -1 -5 5 -8 13 -8 8 0 15
-4 15 -10 0 -5 7 -7 15 -4 8 4 15 2 15 -3 0 -6 -23 -9 -51 -9 -28 1 -53 -2
-55 -6 -5 -7 10 -12 29 -9 4 0 7 -6 7 -14 0 -8 -9 -15 -21 -15 -12 0 -17 4
-13 11 4 8 0 9 -15 4 -25 -8 -41 20 -21 38 10 9 11 7 5 -10 -4 -14 -2 -23 4
-23 6 0 11 6 11 14 0 8 3 22 7 31 5 15 3 16 -16 5 -13 -6 -25 -9 -28 -6 -8 8
7 26 23 26 8 0 14 7 14 15 0 8 5 15 11 15 5 0 8 -4 4 -9 -3 -5 -1 -12 4 -16 6
-3 8 -12 5 -19 -3 -8 0 -17 7 -22 8 -4 10 -3 5 4 -4 8 -2 10 8 6 10 -4 14 0
12 12 -2 10 -8 20 -14 22 -14 4 -16 32 -3 32 5 0 13 -10 17 -22z m263 -12 c10
-12 8 -13 -8 -9 -12 3 -21 9 -21 14 0 14 16 11 29 -5z m-686 -16 c3 -11 13
-20 22 -20 12 0 15 -5 11 -16 -3 -9 -6 -19 -6 -24 0 -5 -9 -8 -19 -7 -19 1
-27 37 -8 37 4 0 5 5 2 10 -4 6 -10 8 -15 5 -5 -3 -8 4 -7 15 2 26 13 26 20 0z
m227 10 c0 -5 -7 -10 -15 -10 -8 0 -15 5 -15 10 0 6 7 10 15 10 8 0 15 -4 15
-10z m304 -2 c-3 -4 -9 -8 -15 -8 -5 0 -9 4 -9 8 0 5 7 9 15 9 8 0 12 -4 9 -9z
m111 2 c-3 -5 -3 -10 2 -11 41 -4 61 -14 49 -26 -4 -4 -11 -2 -15 6 -10 16
-22 16 -32 -1 -7 -10 -9 -10 -9 0 0 6 -7 12 -15 12 -8 0 -15 -6 -15 -12 0 -9
-3 -10 -8 -2 -4 6 -14 14 -22 18 -8 3 -5 4 8 2 12 -2 22 0 22 4 0 5 8 11 18
13 9 3 18 5 20 6 2 0 0 -3 -3 -9z m-1032 -31 c-4 -15 -9 -17 -17 -9 -8 8 -7
13 4 20 8 5 16 10 17 10 0 0 -1 -9 -4 -21z m605 -9 c4 -12 3 -13 -10 -3 -8 7
-18 10 -21 6 -4 -3 -7 -1 -7 6 0 17 32 10 38 -9z m312 10 c0 -5 -7 -10 -16
-10 -8 0 -12 5 -9 10 3 6 10 10 16 10 5 0 9 -4 9 -10z m60 -8 c0 -14 -25 -62
-32 -62 -4 0 -5 -6 -2 -13 5 -15 -36 -54 -54 -51 -7 1 -8 0 -2 -3 5 -2 10 -16
10 -29 0 -21 3 -23 18 -15 22 12 55 8 60 -7 2 -6 -5 -8 -17 -5 -12 3 -21 1
-21 -6 0 -18 -28 -12 -43 9 -8 11 -17 17 -21 12 -4 -4 -7 -2 -6 3 1 6 1 12 0
15 -9 24 -5 39 11 43 14 4 18 12 15 36 -2 17 1 28 5 25 5 -3 9 0 9 6 0 6 5 8
12 4 9 -6 9 -9 0 -12 -7 -2 -12 -8 -12 -13 0 -6 9 -5 21 1 11 7 18 14 15 17
-3 3 2 12 12 19 16 12 15 13 -5 14 -13 0 -23 5 -23 10 0 6 11 10 25 10 14 0
25 -4 25 -8z m-525 -45 c-5 -31 -4 -31 11 -12 16 20 16 20 11 -4 -3 -13 -2
-33 4 -43 10 -18 -1 -25 -15 -10 -4 4 -13 7 -19 7 -8 0 -11 17 -10 45 2 62 2
62 13 55 6 -3 8 -21 5 -38z m602 18 c0 -8 -4 -15 -9 -15 -4 0 -8 7 -8 15 0 8
4 15 8 15 5 0 9 -7 9 -15z m-677 -30 c0 -7 -7 -16 -16 -19 -12 -5 -14 -1 -9
17 5 17 4 19 -4 7 -6 -8 -8 -22 -5 -32 2 -9 0 -19 -6 -23 -8 -5 -8 -11 1 -21
16 -19 1 -18 -18 1 -12 13 -17 13 -27 3 -6 -7 -10 -11 -9 -9 2 2 -5 10 -15 18
-16 13 -15 14 5 10 15 -3 20 -1 16 9 -3 8 0 14 6 14 6 0 11 -8 11 -17 0 -14 2
-15 13 -4 10 10 8 15 -6 26 -18 13 -17 14 9 28 31 16 54 12 54 -8z m190 8 c0
-7 -7 -10 -17 -6 -11 4 -14 3 -9 -5 8 -13 -3 -15 -28 -6 -8 3 -12 11 -10 19 7
16 64 14 64 -2z m-154 -2 c16 13 18 1 5 -21 -6 -8 -7 -19 -3 -25 4 -5 7 -14 7
-20 1 -5 7 -9 14 -7 7 1 10 -2 7 -7 -4 -5 -3 -11 1 -14 5 -2 2 -2 -6 0 -8 2
-11 -2 -8 -10 5 -13 -3 -15 -47 -8 -5 0 -1 11 10 23 10 12 14 18 7 14 -12 -7
-11 23 2 43 3 5 1 12 -5 16 -5 3 -10 12 -9 18 0 8 2 8 6 -1 4 -10 8 -10 19 -1z
m600 -28 c-6 -6 -46 20 -46 30 0 4 11 0 25 -9 14 -9 24 -19 21 -21z m18 22 c3
-8 16 -16 28 -16 23 -2 23 -2 1 -6 -13 -3 -30 4 -42 16 -15 15 -17 21 -7 21 8
0 16 -7 20 -15z m89 -7 c-6 -25 -50 -68 -67 -67 -6 0 -6 3 2 6 6 2 12 11 12
19 0 13 12 18 33 15 4 0 7 7 7 17 0 16 8 32 16 32 1 0 0 -10 -3 -22z m-363 2
c0 -5 -4 -10 -10 -10 -5 0 -10 5 -10 10 0 6 5 10 10 10 6 0 10 -4 10 -10z
m221 -31 c-2 -8 -3 -22 -3 -33 1 -10 -2 -16 -5 -12 -3 3 -15 -1 -27 -9 -25
-18 -35 -19 -32 -2 3 23 17 36 31 30 14 -5 21 13 16 40 -1 5 4 7 11 4 7 -2 11
-11 9 -18z m-436 1 c3 -6 -1 -7 -9 -4 -18 7 -21 14 -7 14 6 0 13 -4 16 -10z
m100 0 c-3 -5 -10 -10 -16 -10 -5 0 -9 5 -9 10 0 6 7 10 16 10 8 0 12 -4 9
-10z m-273 -7 c-10 -4 -10 -8 -2 -18 8 -10 8 -19 0 -34 -14 -28 -16 -27 -15
12 2 44 3 47 18 46 9 0 9 -2 -1 -6z m158 -24 c0 -5 -4 -9 -10 -9 -5 0 -10 7
-10 16 0 8 5 12 10 9 6 -3 10 -10 10 -16z m51 4 c-17 -31 -40 -58 -41 -47 0
20 25 64 38 64 9 0 10 -5 3 -17z m416 11 c-3 -3 -2 -17 3 -30 5 -13 6 -24 1
-24 -5 0 -11 11 -13 25 -5 23 -1 35 10 35 3 0 3 -3 -1 -6z"/>
<path d="M3070 3501 c0 -6 5 -13 10 -16 6 -3 10 1 10 9 0 9 -4 16 -10 16 -5 0
-10 -4 -10 -9z"/>
<path d="M3111 3491 c-8 -6 -9 -11 -3 -15 6 -3 14 -1 17 5 9 14 2 20 -14 10z"/>
<path d="M3292 3494 c-5 -11 -8 -27 -7 -36 3 -17 -8 -22 -42 -21 -19 1 -16 -5
8 -17 16 -9 25 -8 40 6 11 10 17 24 14 33 -3 8 0 18 7 22 10 6 10 11 1 20 -8
8 -14 7 -21 -7z"/>
<path d="M3790 3462 c0 -5 7 -9 15 -9 8 0 15 4 15 9 0 4 -7 8 -15 8 -8 0 -15
-4 -15 -8z"/>
<path d="M3745 3310 c-3 -5 -1 -10 4 -10 6 0 11 5 11 10 0 6 -2 10 -4 10 -3 0
-8 -4 -11 -10z"/>
<path d="M3235 3249 c-4 -6 -5 -12 -2 -15 2 -3 7 2 10 11 7 17 1 20 -8 4z"/>
<path d="M2549 3953 c-13 -16 -12 -17 4 -4 16 13 21 21 13 21 -2 0 -10 -8 -17
-17z"/>
<path d="M2536 3913 c-6 -14 -5 -15 5 -6 7 7 10 15 7 18 -3 3 -9 -2 -12 -12z"/>
<path d="M2013 3730 c1 -11 5 -20 9 -20 11 0 10 28 -1 35 -6 3 -9 -4 -8 -15z"/>
<path d="M2568 3693 c6 -2 12 -12 12 -21 0 -15 -2 -15 -11 -2 -9 12 -10 11 -4
-5 4 -11 8 -26 9 -33 1 -7 8 -18 16 -25 12 -10 12 -9 1 6 -11 14 -11 17 0 17
12 0 12 2 0 9 -10 6 -10 13 -2 29 8 16 7 21 -5 26 -9 3 -19 6 -22 5 -4 0 -1
-3 6 -6z"/>
<path d="M2497 3669 c-4 -16 -2 -19 10 -15 9 4 21 -1 28 -11 8 -10 16 -15 20
-12 6 6 -37 59 -47 59 -3 0 -8 -9 -11 -21z"/>
<path d="M2001 3664 c0 -11 3 -14 6 -6 3 7 2 16 -1 19 -3 4 -6 -2 -5 -13z"/>
<path d="M2388 3642 c-4 -12 -2 -24 2 -27 13 -8 18 8 10 29 -6 19 -7 19 -12
-2z"/>
<path d="M2447 3631 c12 -10 19 -22 15 -26 -4 -5 -1 -5 7 0 9 5 12 4 7 -3 -9
-15 -11 -15 -31 4 -15 16 -18 15 -37 -3 -15 -16 -17 -22 -7 -28 7 -5 10 -4 6
2 -4 6 -1 16 7 22 12 10 13 5 5 -29 -5 -23 -6 -47 -3 -53 5 -8 3 -8 -7 1 -15
14 -33 16 -25 3 4 -5 -3 -7 -14 -4 -11 3 -17 10 -13 16 3 5 1 7 -4 4 -6 -4
-13 -20 -16 -37 -4 -16 -12 -30 -18 -30 -8 0 -8 4 1 15 7 9 10 18 6 22 -3 3
-6 1 -6 -6 0 -7 -4 -10 -9 -6 -5 3 -12 1 -15 -4 -9 -13 19 -32 37 -25 21 8 40
-30 35 -67 -3 -20 -1 -26 6 -19 16 16 30 12 16 -5 -7 -8 -9 -15 -4 -15 5 0 1
-7 -9 -14 -16 -12 -15 -13 9 -13 18 0 22 2 13 8 -13 8 -5 13 15 10 5 -1 4 5
-4 13 -7 9 -9 16 -6 16 4 0 2 9 -4 20 -9 16 -8 20 5 20 10 0 13 -5 9 -11 -4
-7 -2 -10 5 -8 7 3 12 8 11 12 0 4 6 15 15 23 12 13 13 19 4 30 -14 17 -29 18
-29 3 0 -5 6 -7 13 -3 8 5 9 4 2 -3 -5 -6 -20 -14 -32 -18 -17 -5 -23 -2 -23
9 0 9 -5 15 -11 14 -6 -2 -14 3 -16 10 -6 17 12 15 31 -3 9 -9 17 -11 21 -5 3
5 3 10 -2 11 -4 0 2 4 14 9 16 7 21 15 16 27 -5 15 -3 15 11 -2 15 -19 17 -19
27 -2 9 16 12 16 26 1 12 -11 18 -12 23 -4 5 8 10 8 14 2 3 -5 -1 -12 -9 -16
-8 -3 -12 -12 -9 -21 9 -21 19 -19 32 8 6 12 11 16 11 10 1 -7 9 -13 19 -14
11 -1 9 -4 -8 -9 -24 -8 -24 -8 -2 -9 12 -1 22 -5 22 -10 0 -4 -11 -6 -25 -3
-15 2 -25 0 -25 -7 0 -6 -5 -11 -11 -11 -5 0 -8 4 -5 9 3 5 -1 14 -9 21 -11 9
-15 9 -15 1 0 -6 -11 -16 -24 -22 -22 -10 -24 -18 -24 -69 1 -39 5 -57 14 -57
7 0 10 5 7 10 -4 6 2 8 15 5 12 -3 21 -3 20 1 -2 18 3 22 16 12 11 -10 14 -9
12 3 -3 23 -16 32 -25 18 -5 -8 -12 -6 -24 8 -11 14 -13 20 -4 20 6 0 4 5 -7
11 -15 9 -16 13 -5 20 8 5 17 3 22 -4 6 -8 7 -6 3 6 -6 20 5 22 22 5 8 -8 15
-8 26 1 8 7 22 11 32 9 12 -2 20 6 25 25 6 23 4 27 -14 27 -22 1 -22 1 1 13
24 14 20 30 -4 20 -8 -3 -22 1 -31 8 -10 9 -14 9 -10 2 5 -8 -1 -11 -19 -10
-17 2 -28 9 -30 20 -3 24 13 31 26 10 9 -15 11 -15 7 -2 -3 9 1 27 10 38 18
26 13 33 -24 37 l-28 2 29 -13 30 -12 -25 -8 c-28 -9 -34 -8 -35 5 -1 6 -3 12
-4 15 -1 3 -3 10 -4 17 0 6 -12 13 -26 14 l-25 4 22 -19z m35 -76 c-2 -14 -9
-28 -15 -32 -6 -4 -8 2 -5 15 4 14 2 19 -7 16 -7 -3 -16 -1 -20 5 -3 6 0 9 8
5 8 -3 18 -1 22 5 12 20 22 11 17 -14z m8 -200 c10 -13 9 -15 -8 -15 -15 0
-20 5 -16 15 4 8 7 15 9 15 1 0 8 -7 15 -15z"/>
<path d="M2051 3628 c-1 -10 6 -18 14 -18 8 0 15 5 15 11 0 5 -4 8 -9 5 -5 -4
-12 0 -14 6 -3 8 -6 6 -6 -4z"/>
<path d="M2116 3622 c-3 -5 1 -9 9 -9 8 0 12 4 9 9 -3 4 -7 8 -9 8 -2 0 -6 -4
-9 -8z"/>
<path d="M2015 3610 c-3 -6 1 -7 9 -4 18 7 21 14 7 14 -6 0 -13 -4 -16 -10z"/>
<path d="M2613 3593 c-3 -8 -3 -16 -1 -19 9 -8 35 6 35 20 0 17 -28 16 -34 -1z"/>
<path d="M1986 3585 c-9 -26 -7 -32 5 -12 6 10 9 21 6 23 -2 3 -7 -2 -11 -11z"/>
<path d="M2046 3585 c4 -8 8 -15 10 -15 2 0 4 7 4 15 0 8 -4 15 -10 15 -5 0
-7 -7 -4 -15z"/>
<path d="M2070 3591 c0 -6 4 -13 10 -16 6 -3 7 1 4 9 -7 18 -14 21 -14 7z"/>
<path d="M2110 3585 c-7 -9 -8 -15 -2 -15 5 0 12 7 16 15 3 8 4 15 2 15 -2 0
-9 -7 -16 -15z"/>
<path d="M2545 3580 c-3 -5 -2 -10 4 -10 5 0 13 5 16 10 3 6 2 10 -4 10 -5 0
-13 -4 -16 -10z"/>
<path d="M1824 3565 c-19 -15 -19 -15 1 -8 17 6 18 5 7 -9 -14 -18 -7 -44 13
-52 8 -3 17 0 21 6 4 6 3 8 -2 5 -6 -3 -15 3 -22 13 -10 16 -9 18 4 13 14 -5
15 -3 5 15 -10 18 -9 22 3 22 9 0 13 -6 10 -14 -3 -8 -1 -17 5 -21 6 -3 11 1
11 9 0 22 13 20 28 -5 7 -12 16 -19 18 -16 3 3 -5 17 -17 31 -25 29 -56 33
-85 11z"/>
<path d="M2005 3569 c-4 -6 -5 -12 -2 -15 2 -3 7 2 10 11 7 17 1 20 -8 4z"/>
<path d="M2578 3558 c7 -9 9 -18 5 -20 -4 -3 -2 -3 5 -2 7 2 17 -5 24 -15 11
-18 12 -18 31 3 16 18 18 18 13 3 -3 -10 -6 -23 -6 -28 0 -5 -7 -9 -16 -9 -8
0 -12 -5 -9 -10 4 -6 11 -8 16 -5 5 4 9 0 9 -8 0 -10 -7 -13 -20 -10 -11 3
-20 0 -20 -6 0 -6 7 -8 17 -4 10 4 14 2 10 -4 -3 -5 -1 -10 6 -11 32 -3 51
-10 55 -20 2 -7 8 -12 13 -12 5 0 4 10 -3 23 -7 12 -11 27 -10 32 1 6 -4 2
-11 -7 -8 -10 -18 -14 -27 -8 -10 6 -8 11 9 21 23 15 28 44 9 52 -10 4 -10 6
0 6 6 1 12 5 12 10 0 12 -67 34 -84 28 -8 -3 -20 0 -27 6 -11 10 -11 9 -1 -5z
m62 -12 c0 -9 -30 -14 -35 -6 -4 6 3 10 14 10 12 0 21 -2 21 -4z"/>
<path d="M2086 3552 c-3 -5 1 -9 9 -9 8 0 12 4 9 9 -3 4 -7 8 -9 8 -2 0 -6 -4
-9 -8z"/>
<path d="M2380 3550 c0 -5 7 -7 15 -4 8 4 15 8 15 10 0 2 -7 4 -15 4 -8 0 -15
-4 -15 -10z"/>
<path d="M1905 3507 c10 -15 20 -25 23 -22 3 3 -5 16 -17 28 l-23 22 17 -28z"/>
<path d="M3007 3513 c-10 -9 -9 -23 1 -23 5 0 9 7 9 15 0 17 -1 18 -10 8z"/>
<path d="M2007 3489 c7 -7 15 -10 18 -7 3 3 -2 9 -12 12 -14 6 -15 5 -6 -5z"/>
<path d="M2925 3490 c3 -5 8 -10 11 -10 2 0 4 5 4 10 0 6 -5 10 -11 10 -5 0
-7 -4 -4 -10z"/>
<path d="M1826 3481 c-4 -5 -2 -12 3 -15 5 -4 12 -2 15 3 4 5 2 12 -3 15 -5 4
-12 2 -15 -3z"/>
<path d="M2267 3466 c-4 -10 -1 -13 8 -9 8 3 12 9 9 14 -7 12 -11 11 -17 -5z"/>
<path d="M2944 3469 c-4 -8 55 -3 63 5 3 3 -9 4 -26 4 -18 -1 -34 -5 -37 -9z"/>
<path d="M1781 3461 c-10 -7 -7 -9 12 -8 14 1 23 5 20 10 -6 9 -15 9 -32 -2z"/>
<path d="M2866 3454 c-3 -8 -1 -14 5 -14 6 0 9 -7 5 -15 -3 -8 2 -21 10 -30
18 -17 34 -20 34 -5 0 6 -6 10 -12 10 -9 0 -8 3 2 10 8 5 11 12 7 16 -3 4 -12
3 -20 -2 -7 -5 -6 -2 4 6 15 15 14 17 -7 27 -18 8 -24 7 -28 -3z"/>
<path d="M3010 3447 c0 -9 8 -21 18 -26 15 -9 14 -10 -6 -11 -13 0 -30 7 -39
15 -8 9 -18 13 -21 10 -4 -3 -1 -10 7 -14 9 -6 7 -10 -8 -14 -18 -4 -20 -1
-17 19 3 13 1 24 -3 24 -5 0 -11 -11 -13 -25 -3 -14 -1 -25 4 -25 6 0 8 -6 5
-14 -4 -9 0 -13 11 -12 9 2 18 8 20 14 5 15 42 16 42 1 0 -5 -4 -8 -9 -5 -5 3
-11 -1 -15 -9 -3 -8 0 -17 6 -21 11 -7 28 13 28 36 0 12 2 12 9 2 6 -11 9 -9
13 5 3 11 -3 30 -13 42 -14 17 -19 19 -19 8z"/>
<path d="M2250 3426 c0 -8 -6 -17 -12 -19 -8 -3 -6 -6 5 -6 9 -1 17 3 17 8 0
6 10 8 21 6 12 -3 18 -1 15 3 -4 4 -11 7 -14 7 -4 0 -13 4 -19 8 -8 5 -13 3
-13 -7z"/>
<path d="M2560 3420 c0 -5 0 -13 1 -16 0 -4 -5 -11 -13 -15 -10 -7 -9 -9 3 -9
11 0 17 9 17 25 0 14 -2 25 -4 25 -2 0 -4 -4 -4 -10z"/>
<path d="M2320 3410 c-13 -9 -7 -14 13 -11 4 0 7 -4 7 -11 0 -9 3 -9 11 -1 6
6 8 16 5 22 -9 13 -16 14 -36 1z"/>
<path d="M2589 3418 c-6 -12 -4 -46 2 -42 4 2 6 11 3 18 -3 8 2 16 13 19 16 4
16 5 1 6 -10 0 -19 0 -19 -1z"/>
<path d="M1825 3399 c-4 -6 -4 -13 -1 -16 3 -4 6 -1 6 6 0 7 5 9 12 5 7 -4 8
-3 4 4 -9 15 -13 15 -21 1z"/>
<path d="M2672 3390 c13 -20 28 -27 28 -12 0 12 -14 27 -28 30 -10 2 -10 -2 0
-18z"/>
<path d="M2736 3404 c7 -3 10 -15 7 -27 -3 -16 -2 -18 5 -8 5 7 15 10 22 6 8
-5 7 0 -2 14 -7 12 -20 21 -28 20 -9 0 -10 -3 -4 -5z"/>
<path d="M2264 3388 c-5 -7 -2 -9 9 -5 9 3 18 -1 22 -11 3 -9 1 -18 -4 -20 -6
-2 -11 -8 -11 -13 0 -17 18 -9 34 16 12 18 13 23 2 19 -7 -3 -16 2 -19 10 -7
19 -23 21 -33 4z"/>
<path d="M2420 3380 c0 -5 5 -10 11 -10 5 0 7 5 4 10 -3 6 -8 10 -11 10 -2 0
-4 -4 -4 -10z"/>
<path d="M2706 3375 c-3 -8 -1 -15 3 -15 5 0 11 7 15 15 3 8 1 15 -3 15 -5 0
-11 -7 -15 -15z"/>
<path d="M2593 3354 c-13 -14 -27 -23 -33 -19 -5 3 -10 1 -10 -4 0 -6 5 -11
12 -11 9 0 9 -3 1 -11 -6 -6 -9 -18 -6 -25 3 -8 -5 -18 -18 -23 -16 -6 -18
-10 -8 -10 18 -1 41 22 37 35 -3 13 22 57 41 71 9 6 14 14 11 16 -3 3 -15 -6
-27 -19z"/>
<path d="M2642 3368 c-7 -9 -3 -21 14 -43 17 -20 22 -24 18 -10 l-7 20 23 -20
c16 -14 24 -16 27 -7 3 6 9 10 14 6 5 -3 9 0 9 5 0 14 -17 14 -25 1 -9 -14
-28 -1 -22 15 3 6 -3 19 -14 29 -23 19 -24 19 -37 4z m38 -18 c13 -9 13 -10 0
-10 -8 0 -22 5 -30 10 -13 9 -13 10 0 10 8 0 22 -5 30 -10z"/>
<path d="M1695 3360 c-3 -5 -3 -10 2 -10 4 0 1 -5 -7 -11 -13 -9 -13 -10 0 -6
8 2 14 10 13 16 -4 15 14 14 20 -1 3 -8 6 -6 6 5 1 18 -24 24 -34 7z"/>
<path d="M2260 3360 c-9 -6 -10 -10 -3 -10 6 0 15 5 18 10 8 12 4 12 -15 0z"/>
<path d="M3020 3359 c0 -6 7 -9 15 -5 8 3 15 1 15 -4 0 -6 5 -10 11 -10 8 0 8
5 -1 15 -15 17 -40 20 -40 4z"/>
<path d="M2836 3333 c-6 -14 -5 -15 5 -6 7 7 10 15 7 18 -3 3 -9 -2 -12 -12z"/>
<path d="M2968 3338 c5 -5 16 -8 23 -6 8 3 3 7 -10 11 -17 4 -21 3 -13 -5z"/>
<path d="M1751 3324 c0 -11 3 -14 6 -6 3 7 2 16 -1 19 -3 4 -6 -2 -5 -13z"/>
<path d="M2255 3329 c-4 -6 -5 -12 -2 -15 2 -3 7 2 10 11 7 17 1 20 -8 4z"/>
<path d="M2597 3325 c-6 -15 10 -32 20 -21 4 3 0 6 -8 6 -10 1 -8 5 5 15 16
12 17 15 4 15 -9 0 -18 -7 -21 -15z"/>
<path d="M2912 3328 c-7 -7 -12 -17 -12 -22 0 -6 5 -3 11 7 6 9 15 14 21 11 7
-4 8 -2 4 4 -9 15 -9 15 -24 0z"/>
<path d="M3085 3320 c3 -5 8 -10 11 -10 2 0 4 5 4 10 0 6 -5 10 -11 10 -5 0
-7 -4 -4 -10z"/>
<path d="M1720 3309 c0 -5 5 -7 10 -4 6 3 10 8 10 11 0 2 -4 4 -10 4 -5 0 -10
-5 -10 -11z"/>
<path d="M2370 3311 c0 -6 5 -13 12 -17 6 -4 8 -3 4 4 -3 5 0 13 6 15 8 3 6 6
-4 6 -10 1 -18 -3 -18 -8z"/>
<path d="M2526 3307 c3 -10 9 -15 12 -12 3 3 0 11 -7 18 -10 9 -11 8 -5 -6z"/>
<path d="M1620 3305 c0 -18 39 -45 56 -39 10 4 16 4 12 -1 -4 -4 -2 -15 5 -23
10 -13 9 -15 -6 -9 -11 4 -16 3 -12 -3 3 -6 -1 -10 -9 -10 -9 0 -16 -9 -16
-20 0 -17 3 -16 27 8 30 29 34 41 20 59 -5 7 -6 17 -2 23 9 14 -8 13 -24 -2
-11 -11 -13 -10 -8 5 5 13 1 17 -18 17 -14 0 -25 -2 -25 -5z"/>
<path d="M2960 3299 c0 -5 -5 -7 -12 -3 -7 4 -8 3 -4 -4 5 -9 13 -9 29 -1 32
17 33 19 9 19 -12 0 -22 -5 -22 -11z"/>
<path d="M3035 3300 c3 -5 8 -10 11 -10 2 0 4 5 4 10 0 6 -5 10 -11 10 -5 0
-7 -4 -4 -10z"/>
<path d="M2382 3276 c-42 -30 -53 -42 -26 -28 12 6 24 9 28 7 3 -3 4 -2 1 2
-5 7 25 32 39 33 5 0 2 -8 -8 -18 -15 -18 -15 -20 1 -34 15 -14 20 -14 30 -3
7 8 9 16 4 20 -5 3 -11 0 -13 -7 -2 -6 -10 -8 -17 -4 -10 6 -9 12 3 25 9 10
13 21 9 24 -9 10 -15 8 -51 -17z"/>
<path d="M2460 3290 c-8 -5 -12 -11 -10 -14 3 -2 14 2 24 10 22 15 10 19 -14
4z"/>
<path d="M2580 3290 c0 -5 6 -10 13 -10 6 0 -1 -11 -18 -24 -16 -13 -38 -22
-47 -21 -10 2 -20 0 -22 -4 -3 -4 7 -8 22 -8 64 -1 74 -3 69 -16 -3 -8 1 -14
9 -14 12 0 12 3 0 21 -8 12 -19 20 -25 19 -6 -2 -11 2 -11 7 0 6 5 10 11 10 6
0 16 6 24 13 11 11 10 16 -6 25 -12 8 -19 8 -19 2z"/>
<path d="M2642 3267 c-12 -13 -22 -27 -22 -32 0 -5 7 1 16 13 18 26 36 29 28
5 -5 -17 -5 -17 6 0 15 23 25 22 38 -5 10 -22 10 -21 8 6 -4 39 -43 46 -74 13z"/>
<path d="M2925 3278 c8 -20 32 -31 40 -17 4 5 17 7 31 5 27 -5 33 8 8 18 -9 4
-24 0 -34 -9 -14 -13 -18 -13 -34 3 -15 15 -16 15 -11 0z"/>
<path d="M2481 3267 c-8 -10 -7 -14 2 -14 8 0 14 6 14 14 0 7 -1 13 -2 13 -2
0 -8 -6 -14 -13z"/>
<path d="M3421 3238 c-14 -39 -5 -51 9 -13 6 15 13 32 16 36 3 5 1 9 -4 9 -6
0 -15 -14 -21 -32z"/>
<path d="M3551 3240 c0 -33 1 -34 10 -11 6 16 6 28 -1 35 -7 7 -10 -1 -9 -24z"/>
<path d="M3480 3245 c0 -8 4 -15 10 -15 5 0 7 7 4 15 -4 8 -8 15 -10 15 -2 0
-4 -7 -4 -15z"/>
<path d="M3506 3246 c3 -9 11 -16 16 -16 13 0 5 23 -10 28 -7 2 -10 -2 -6 -12z"/>
<path d="M3650 3245 c0 -8 4 -15 10 -15 5 0 7 7 4 15 -4 8 -8 15 -10 15 -2 0
-4 -7 -4 -15z"/>
<path d="M3038 3238 c5 -5 16 -8 23 -6 8 3 3 7 -10 11 -17 4 -21 3 -13 -5z"/>
<path d="M3459 3245 c-5 -19 -3 -62 3 -59 4 3 6 18 5 34 -2 28 -5 37 -8 25z"/>
<path d="M1620 3230 c0 -5 7 -7 15 -4 8 4 15 8 15 10 0 2 -7 4 -15 4 -8 0 -15
-4 -15 -10z"/>
<path d="M2944 3218 l-19 -21 28 18 c24 15 31 14 28 -7 0 -3 7 -5 17 -3 9 2
20 4 25 4 4 1 7 6 7 12 0 8 -4 8 -14 0 -10 -9 -16 -8 -26 4 -17 20 -23 19 -46
-7z"/>
<path d="M2203 3211 c0 -11 5 -18 9 -15 4 3 5 11 1 19 -7 21 -12 19 -10 -4z"/>
<path d="M2353 3211 c0 -11 5 -18 9 -15 4 3 5 11 1 19 -7 21 -12 19 -10 -4z"/>
<path d="M2905 3220 c-4 -6 -12 -7 -18 -4 -7 4 -8 3 -4 -1 13 -15 34 -14 34 1
0 17 -4 18 -12 4z"/>
<path d="M1531 3189 c-23 -37 -27 -54 -11 -44 6 3 10 1 10 -6 0 -7 7 -4 16 7
15 18 15 18 11 -7 -3 -20 1 -25 17 -26 12 -1 15 1 9 4 -7 3 -13 13 -13 24 0
10 6 19 13 19 8 0 7 3 -3 10 -13 8 -12 11 5 25 15 12 16 15 4 12 -9 -3 -21 -1
-27 5 -8 8 -17 1 -31 -23z m10 -26 c-12 -20 -14 -14 -5 12 4 9 9 14 11 11 3
-2 0 -13 -6 -23z"/>
<path d="M2705 3210 c-3 -6 1 -7 9 -4 18 7 21 14 7 14 -6 0 -13 -4 -16 -10z"/>
<path d="M3037 3207 c-6 -16 4 -22 27 -18 5 1 12 -3 16 -9 5 -8 9 -7 13 3 3 9
-1 21 -8 27 -12 10 -16 9 -22 -6 -6 -17 -7 -17 -13 1 -6 17 -7 17 -13 2z"/>
<path d="M2296 3201 c-4 -5 1 -8 9 -7 21 3 31 16 12 16 -9 0 -18 -4 -21 -9z"/>
<path d="M3508 3203 c7 -3 16 -2 19 1 4 3 -2 6 -13 5 -11 0 -14 -3 -6 -6z"/>
<path d="M3314 3192 c4 -4 23 -8 42 -8 19 -1 32 1 29 4 -3 3 -22 7 -42 9 -19
1 -32 -1 -29 -5z"/>
<path d="M2948 3183 c6 -2 18 -2 25 0 6 3 1 5 -13 5 -14 0 -19 -2 -12 -5z"/>
<path d="M2995 3180 c-3 -5 -2 -10 4 -10 5 0 13 5 16 10 3 6 2 10 -4 10 -5 0
-13 -4 -16 -10z"/>
<path d="M3100 3170 c-6 -11 -8 -20 -6 -20 3 0 10 9 16 20 6 11 8 20 6 20 -3
0 -10 -9 -16 -20z"/>
<path d="M3122 3166 c-7 -15 -8 -24 -2 -21 17 11 32 -5 19 -21 -13 -15 1 -20
17 -5 5 5 20 11 34 14 24 4 24 4 -3 6 -24 1 -27 4 -21 26 4 15 2 25 -5 25 -6
0 -8 -7 -5 -15 4 -8 1 -15 -4 -15 -6 0 -12 8 -14 17 -2 13 -6 10 -16 -11z"/>
<path d="M3860 3180 c0 -5 5 -10 11 -10 5 0 7 5 4 10 -3 6 -8 10 -11 10 -2 0
-4 -4 -4 -10z"/>
<path d="M1626 3166 c3 -8 13 -12 27 -8 20 5 20 6 1 13 -29 11 -34 10 -28 -5z"/>
<path d="M3466 3173 c-3 -4 -6 -11 -6 -16 0 -6 3 -7 7 -4 3 4 12 2 20 -5 20
-17 22 -6 2 14 -9 9 -20 14 -23 11z"/>
<path d="M3608 3173 c7 -3 16 -2 19 1 4 3 -2 6 -13 5 -11 0 -14 -3 -6 -6z"/>
<path d="M3904 3172 c3 -3 -2 -11 -12 -19 -13 -11 -13 -13 -2 -10 8 2 21 -3
29 -10 7 -8 16 -11 20 -8 3 4 -3 12 -14 18 -19 11 -19 11 5 17 l25 6 -28 6
c-15 3 -25 3 -23 0z"/>
<path d="M3319 3161 c11 -7 11 -9 0 -14 -10 -4 -9 -6 4 -6 9 -1 17 -3 17 -5 0
-2 3 -12 7 -22 5 -13 3 -15 -8 -9 -12 8 -12 6 0 -9 13 -15 13 -19 1 -26 -19
-12 -30 -3 -24 18 4 11 3 13 -3 5 -6 -8 -14 -9 -23 -3 -8 6 -19 10 -25 10 -5
0 6 -10 25 -22 19 -12 40 -21 45 -19 6 2 15 4 22 4 7 0 10 4 7 9 -3 5 0 16 8
25 7 9 8 14 2 10 -11 -7 -38 39 -30 52 3 4 -5 8 -17 8 -15 2 -18 0 -8 -6z"/>
<path d="M3367 3159 c7 -9 11 -18 9 -20 -2 -2 9 -4 25 -4 16 0 31 5 33 11 3 7
-5 9 -20 6 -13 -2 -32 2 -42 9 -15 12 -16 12 -5 -2z"/>
<path d="M3800 3159 c0 -5 5 -7 10 -4 6 3 10 8 10 11 0 2 -4 4 -10 4 -5 0 -10
-5 -10 -11z"/>
<path d="M1606 3152 c-3 -6 -1 -14 5 -17 14 -9 20 -2 10 14 -6 8 -11 9 -15 3z"/>
<path d="M3583 3145 c0 -8 4 -12 9 -9 5 3 6 10 3 15 -9 13 -12 11 -12 -6z"/>
<path d="M3769 3142 c5 -10 17 -25 26 -32 13 -11 15 -10 9 4 -3 9 -10 16 -15
16 -5 0 -9 7 -9 15 0 8 -5 15 -10 15 -7 0 -7 -6 -1 -18z"/>
<path d="M3022 3137 c7 -8 19 -14 26 -14 11 0 10 4 -4 14 -10 7 -22 13 -26 13
-5 0 -3 -6 4 -13z"/>
<path d="M3670 3146 c0 -2 7 -7 16 -10 8 -3 12 -2 9 4 -6 10 -25 14 -25 6z"/>
<path d="M1680 3136 c0 -2 8 -10 18 -17 15 -13 16 -12 3 4 -13 16 -21 21 -21
13z"/>
<path d="M2965 3130 c3 -6 0 -13 -8 -16 -17 -6 -18 -31 -1 -31 7 0 10 6 7 13
-2 6 0 15 6 19 14 8 14 25 0 25 -5 0 -7 -5 -4 -10z"/>
<path d="M3000 3120 c13 -8 8 -14 -10 -12 -3 0 -6 -8 -6 -18 0 -18 1 -18 19 1
18 20 15 39 -6 39 -7 0 -6 -4 3 -10z"/>
<path d="M3270 3126 c0 -2 8 -10 18 -17 15 -13 16 -12 3 4 -13 16 -21 21 -21
13z"/>
<path d="M3607 3119 c7 -7 15 -10 18 -7 3 3 -2 9 -12 12 -14 6 -15 5 -6 -5z"/>
<path d="M3658 3118 c6 -6 18 -8 28 -6 14 3 12 5 -9 10 -19 3 -25 2 -19 -4z"/>
<path d="M3067 3113 c-4 -3 1 -12 11 -19 15 -12 15 -15 2 -23 -8 -5 -18 -7
-24 -4 -5 3 -6 1 -2 -5 10 -17 49 5 42 24 -4 11 1 13 22 8 l27 -6 -29 16 c-31
18 -39 19 -49 9z"/>
<path d="M3400 3110 c-9 -6 -10 -10 -3 -10 6 0 15 5 18 10 8 12 4 12 -15 0z"/>
<path d="M2270 3096 c0 -2 7 -7 16 -10 8 -3 12 -2 9 4 -6 10 -25 14 -25 6z"/>
<path d="M3150 3089 c0 -5 5 -7 10 -4 6 3 10 8 10 11 0 2 -4 4 -10 4 -5 0 -10
-5 -10 -11z"/>
<path d="M3460 3092 c0 -5 7 -15 15 -22 8 -7 15 -9 15 -6 0 4 -7 14 -15 22 -8
9 -15 11 -15 6z"/>
<path d="M3800 3086 c-14 -8 -27 -13 -31 -11 -3 2 -6 -2 -6 -10 0 -15 15 -10
52 19 25 19 18 20 -15 2z"/>
<path d="M1560 3086 c0 -2 7 -7 16 -10 8 -3 12 -2 9 4 -6 10 -25 14 -25 6z"/>
<path d="M3193 3083 c9 -2 23 -2 30 0 6 3 -1 5 -18 5 -16 0 -22 -2 -12 -5z"/>
<path d="M3844 3081 c4 -5 0 -12 -6 -14 -7 -3 -8 -6 -2 -6 5 -1 19 6 30 14 18
14 18 14 -4 15 -13 0 -21 -4 -18 -9z"/>
<path d="M3936 3078 c3 -5 11 -7 17 -5 7 2 21 0 32 -6 15 -7 17 -7 9 3 -13 14
-66 21 -58 8z"/>
<path d="M3540 3076 c0 -2 7 -7 16 -10 8 -3 12 -2 9 4 -6 10 -25 14 -25 6z"/>
<path d="M3885 3070 c-3 -6 1 -7 9 -4 18 7 21 14 7 14 -6 0 -13 -4 -16 -10z"/>
<path d="M3173 3063 c9 -2 23 -2 30 0 6 3 -1 5 -18 5 -16 0 -22 -2 -12 -5z"/>
<path d="M3282 3048 c-8 -10 -3 -13 21 -15 18 0 25 1 17 4 -8 3 -18 10 -21 15
-3 5 -11 3 -17 -4z"/>
<path d="M3136 3035 c4 -8 11 -15 16 -15 6 0 5 6 -2 15 -7 8 -14 15 -16 15 -2
0 -1 -7 2 -15z"/>
<path d="M3515 3040 c3 -5 8 -10 11 -10 2 0 4 5 4 10 0 6 -5 10 -11 10 -5 0
-7 -4 -4 -10z"/>
<path d="M3896 3033 c-6 -14 -5 -15 5 -6 7 7 10 15 7 18 -3 3 -9 -2 -12 -12z"/>
<path d="M1416 3002 c-4 -7 -12 -10 -17 -7 -5 4 -9 1 -9 -5 0 -7 -7 -10 -15
-7 -8 4 -17 2 -20 -3 -4 -6 1 -10 9 -10 16 0 21 -15 18 -55 -2 -18 -1 -19 9
-2 5 9 17 17 24 17 17 0 19 9 5 30 -8 13 -10 12 -10 -2 0 -10 -4 -18 -10 -18
-5 0 -10 9 -10 19 0 12 6 18 16 17 19 -3 38 -32 29 -45 -8 -15 14 -24 41 -17
14 4 22 11 18 17 -5 8 -9 8 -14 0 -5 -9 -10 -8 -19 3 -6 8 -8 16 -4 18 4 3 2
3 -4 2 -7 -2 -16 11 -21 29 -5 20 -11 27 -16 19z"/>
<path d="M1546 2983 c-6 -14 -5 -15 5 -6 7 7 10 15 7 18 -3 3 -9 -2 -12 -12z"/>
<path d="M2913 2955 c0 -8 4 -12 9 -9 5 3 6 10 3 15 -9 13 -12 11 -12 -6z"/>
<path d="M1350 2945 c0 -8 4 -15 8 -15 5 0 9 7 9 15 0 8 -4 15 -9 15 -4 0 -8
-7 -8 -15z"/>
<path d="M1544 2924 c1 -8 4 -15 7 -16 2 -2 3 -1 2 1 -2 2 2 9 7 16 7 8 5 12
-4 12 -8 0 -13 -6 -12 -13z"/>
<path d="M1350 2905 c0 -8 4 -15 10 -15 5 0 7 7 4 15 -4 8 -8 15 -10 15 -2 0
-4 -7 -4 -15z"/>
<path d="M1402 2896 c-6 -15 -16 -25 -22 -21 -5 3 -7 -3 -5 -14 4 -23 -29 -58
-40 -42 -3 6 -1 11 5 11 6 0 8 5 5 10 -3 6 -1 10 5 10 7 0 5 7 -4 16 -9 8 -14
20 -10 25 3 5 -11 0 -30 -12 -20 -12 -36 -16 -36 -10 0 6 -5 11 -11 11 -6 0
-8 -9 -4 -20 7 -22 -3 -63 -13 -56 -4 2 -8 -6 -8 -18 -1 -14 4 -23 13 -23 7 0
12 5 10 11 -7 18 12 58 23 51 8 -5 8 -11 0 -20 -7 -8 -7 -16 -2 -19 6 -3 12 3
15 13 6 24 35 21 54 -5 14 -19 14 -19 11 1 -2 12 2 19 10 18 6 -2 12 2 12 8 0
5 5 7 12 3 6 -4 8 -3 5 3 -9 15 20 36 38 29 9 -3 13 -2 10 4 -3 6 1 10 10 10
15 0 15 1 1 16 -9 8 -20 13 -25 10 -5 -4 -11 1 -13 11 -2 13 -6 10 -16 -11z
m-69 -32 c11 -11 -13 -44 -27 -38 -11 4 -14 19 -7 42 2 5 28 2 34 -4z m77 2
c0 -2 -7 -7 -16 -10 -8 -3 -12 -2 -9 4 6 10 25 14 25 6z"/>
<path d="M1060 2880 c0 -5 5 -10 10 -10 6 0 10 5 10 10 0 6 -4 10 -10 10 -5 0
-10 -4 -10 -10z"/>
<path d="M1413 2822 c-17 -28 -2 -46 23 -27 18 13 18 14 -6 9 -18 -4 -21 -3
-11 4 7 5 12 15 10 21 -2 6 -9 3 -16 -7z"/>
<path d="M1681 2804 c0 -11 3 -14 6 -6 3 7 2 16 -1 19 -3 4 -6 -2 -5 -13z"/>
<path d="M1301 2782 c-8 -14 -5 -18 12 -19 16 -2 18 0 8 6 -7 5 -10 14 -7 20
4 6 5 11 2 11 -3 0 -10 -8 -15 -18z"/>
<path d="M1260 2750 c-10 -14 -16 -16 -22 -7 -4 6 -8 8 -8 2 0 -5 5 -17 10
-25 5 -8 10 -10 10 -4 0 6 9 15 20 20 12 6 17 14 12 21 -6 9 -12 7 -22 -7z"/>
<path d="M1349 2753 c-13 -16 -12 -17 4 -4 16 13 21 21 13 21 -2 0 -10 -8 -17
-17z"/>
<path d="M1429 2733 c-13 -17 -13 -17 6 -3 11 8 22 16 24 17 2 2 0 3 -6 3 -6
0 -17 -8 -24 -17z"/>
<path d="M1209 2721 c11 -7 9 -10 -8 -16 -13 -4 -20 -9 -18 -12 3 -2 15 0 26
7 22 11 20 30 -2 30 -8 0 -7 -3 2 -9z"/>
<path d="M1075 2704 c-9 -9 -14 -23 -11 -31 3 -8 6 -19 6 -24 0 -6 5 -7 10 -4
6 3 10 2 10 -4 0 -5 -4 -13 -10 -16 -5 -3 -10 -11 -10 -16 0 -21 20 3 28 34 9
35 24 42 28 15 1 -10 -2 -18 -7 -18 -5 0 -9 -4 -9 -10 0 -5 7 -10 16 -10 12 0
15 6 11 21 -4 15 -2 19 9 15 8 -3 13 0 11 7 -1 7 6 11 17 9 17 -3 18 -2 3 12
-18 19 -28 21 -24 5 1 -6 -4 -14 -12 -17 -9 -3 -11 0 -6 9 5 8 5 11 0 7 -4 -4
-16 1 -25 13 -17 18 -19 19 -35 3z m18 -30 c-4 -12 -8 -13 -14 -3 -9 15 -2 32
11 24 5 -3 6 -13 3 -21z"/>
<path d="M1205 2680 c-3 -5 -1 -10 4 -10 6 0 11 5 11 10 0 6 -2 10 -4 10 -3 0
-8 -4 -11 -10z"/>
<path d="M917 2609 c-3 -12 0 -28 8 -35 11 -12 13 -9 12 21 -2 39 -12 46 -20
14z"/>
<path d="M1155 2610 c-3 -6 1 -7 9 -4 18 7 21 14 7 14 -6 0 -13 -4 -16 -10z"/>
<path d="M960 2585 c-11 -13 -10 -14 4 -9 9 3 16 10 16 15 0 13 -6 11 -20 -6z"/>
<path d="M1015 2591 c-3 -6 -1 -11 5 -11 6 0 8 -5 5 -10 -5 -8 -12 -7 -23 2
-13 11 -13 9 1 -13 10 -14 14 -30 10 -34 -5 -5 0 -3 10 4 19 15 24 26 6 15 -7
-4 -10 -1 -7 7 3 8 11 13 18 11 11 -2 10 1 0 15 -8 10 -15 19 -16 21 -1 2 -5
-1 -9 -7z"/>
<path d="M1300 2590 c0 -5 5 -10 11 -10 5 0 7 5 4 10 -3 6 -8 10 -11 10 -2 0
-4 -4 -4 -10z"/>
<path d="M892 2541 c-11 -30 -6 -44 18 -49 11 -2 11 1 -3 12 -16 12 -16 15 -2
29 17 17 20 37 6 37 -5 0 -14 -13 -19 -29z"/>
<path d="M760 2516 c0 -13 6 -27 13 -30 6 -3 1 -3 -13 0 -14 4 -22 3 -18 -1 3
-3 2 -20 -2 -36 -5 -17 -5 -29 1 -29 5 0 9 11 9 24 0 15 7 26 18 28 15 4 18
12 14 37 -5 36 -22 42 -22 7z"/>
<path d="M1020 2506 c0 -2 7 -6 15 -10 8 -3 15 -1 15 4 0 6 -7 10 -15 10 -8 0
-15 -2 -15 -4z"/>
<path d="M973 2489 c9 -6 15 -14 13 -18 -3 -4 1 -8 8 -8 11 0 12 4 3 19 -7 10
-19 18 -27 18 -12 -1 -11 -3 3 -11z"/>
<path d="M721 2464 c0 -11 3 -14 6 -6 3 7 2 16 -1 19 -3 4 -6 -2 -5 -13z"/>
<path d="M807 2460 c-19 -22 -21 -30 -9 -30 5 0 14 11 20 25 14 30 12 31 -11
5z"/>
<path d="M930 2465 c-7 -9 -8 -15 -2 -15 5 0 12 7 16 15 3 8 4 15 2 15 -2 0
-9 -7 -16 -15z"/>
<path d="M1030 2445 c-7 -9 -11 -17 -9 -20 3 -2 10 5 17 15 14 24 10 26 -8 5z"/>
<path d="M890 2399 c0 -5 5 -7 10 -4 6 3 10 8 10 11 0 2 -4 4 -10 4 -5 0 -10
-5 -10 -11z"/>
<path d="M460 2340 c0 -12 7 -20 18 -20 13 0 14 2 3 9 -7 5 -10 14 -7 20 4 6
2 11 -3 11 -6 0 -11 -9 -11 -20z"/>
<path d="M596 2345 c-10 -7 -16 -20 -13 -27 4 -10 6 -10 6 0 1 6 8 12 16 12 8
0 15 7 15 15 0 18 0 18 -24 0z"/>
<path d="M490 2301 c0 -10 19 -25 25 -20 1 2 -3 10 -11 17 -8 7 -14 8 -14 3z"/>
<path d="M558 2293 c7 -3 16 -2 19 1 4 3 -2 6 -13 5 -11 0 -14 -3 -6 -6z"/>
<path d="M380 2260 c0 -5 5 -10 11 -10 5 0 7 5 4 10 -3 6 -8 10 -11 10 -2 0
-4 -4 -4 -10z"/>
<path d="M441 2233 c0 -11 3 -13 6 -5 2 6 10 9 15 6 7 -4 8 -2 4 4 -11 18 -26
14 -25 -5z"/>
<path d="M282 2210 c0 -14 2 -19 5 -12 2 6 2 18 0 25 -3 6 -5 1 -5 -13z"/>
<path d="M305 2200 c3 -5 10 -10 16 -10 5 0 9 5 9 10 0 6 -7 10 -16 10 -8 0
-12 -4 -9 -10z"/>
<path d="M380 2200 c-8 -5 -10 -10 -5 -10 6 0 17 5 25 10 8 5 11 10 5 10 -5 0
-17 -5 -25 -10z"/>
<path d="M424 2195 c-4 -8 -10 -12 -15 -9 -15 9 -10 -3 8 -17 11 -10 14 -10 9
-1 -4 7 -2 12 4 12 6 0 8 5 4 11 -4 8 1 9 17 4 19 -5 21 -4 9 4 -21 15 -30 14
-36 -4z"/>
<path d="M506 2199 c3 -5 9 -7 14 -4 4 3 11 0 13 -5 3 -6 4 -5 3 1 -1 7 -10
13 -19 15 -9 1 -15 -2 -11 -7z"/>
<path d="M335 2180 c-4 -6 -11 -8 -16 -5 -5 3 -6 -1 -3 -9 3 -9 14 -16 23 -16
14 0 14 2 1 10 -14 9 -7 14 13 11 5 -1 6 3 2 9 -8 13 -12 13 -20 0z"/>
<path d="M466 2167 c3 -10 9 -15 12 -12 3 3 0 11 -7 18 -10 9 -11 8 -5 -6z"/>
<path d="M250 2160 c0 -5 5 -10 11 -10 5 0 7 5 4 10 -3 6 -8 10 -11 10 -2 0
-4 -4 -4 -10z"/>
<path d="M130 2090 c0 -6 5 -18 11 -29 9 -13 9 -23 1 -37 -11 -18 -12 -18 -9
1 1 11 -2 21 -8 22 -5 0 -8 -4 -6 -10 2 -7 4 -24 4 -39 0 -36 10 -28 27 21 10
30 19 41 34 42 20 1 20 1 1 6 -11 3 -24 11 -28 19 -9 16 -27 19 -27 4z"/>
<path d="M260 2075 c-19 -22 -8 -25 13 -3 9 10 13 18 8 18 -5 0 -14 -7 -21
-15z"/>
<path d="M225 2070 c-3 -5 -1 -10 4 -10 6 0 11 5 11 10 0 6 -2 10 -4 10 -3 0
-8 -4 -11 -10z"/>
<path d="M0 1983 c0 -13 5 -23 10 -23 6 0 10 -8 11 -17 0 -10 3 -13 5 -7 3 6
-2 24 -11 40 -13 26 -15 27 -15 7z"/>
<path d="M63 1933 c-11 -23 -11 -25 12 -19 21 5 23 3 19 -19 -4 -23 -2 -25 15
-15 24 12 37 32 20 28 -7 -2 -18 7 -23 19 -15 32 -30 34 -43 6z"/>
<path d="M136 1946 c10 -8 21 -12 24 -10 5 6 -21 24 -34 24 -6 0 -1 -6 10 -14z"/>
<path d="M1 1924 c0 -11 3 -14 6 -6 3 7 2 16 -1 19 -3 4 -6 -2 -5 -13z"/>
<path d="M60 1880 c0 -5 5 -10 10 -10 6 0 10 5 10 10 0 6 -4 10 -10 10 -5 0
-10 -4 -10 -10z"/>
<path d="M18 1763 c7 -3 16 -2 19 1 4 3 -2 6 -13 5 -11 0 -14 -3 -6 -6z"/>
<path d="M25 1724 c0 -12 4 -26 9 -31 5 -4 6 -3 2 4 -4 7 -2 21 3 31 7 14 6
19 -2 19 -7 0 -13 -10 -12 -23z"/>
<path d="M1976 1395 c-22 -20 -26 -31 -21 -53 3 -16 -1 -53 -8 -83 -8 -30 -20
-96 -27 -147 -13 -91 -12 -93 9 -116 16 -17 21 -31 16 -46 -4 -12 -2 -32 3
-44 6 -11 20 -55 32 -96 27 -91 22 -181 -12 -217 -21 -23 -55 -33 -43 -13 3 5
0 7 -9 4 -8 -3 -17 -12 -20 -20 -4 -10 -24 -14 -73 -14 -45 0 -63 3 -54 9 12
8 13 12 1 26 -10 12 -15 13 -21 3 -6 -9 -14 -5 -30 15 -11 16 -24 25 -27 22
-4 -3 0 -10 8 -15 13 -8 12 -10 -2 -10 -10 0 -18 5 -18 11 0 6 -9 9 -20 6 -11
-3 -26 1 -34 8 -7 8 -24 11 -37 9 -14 -4 -19 -2 -12 3 6 5 -14 9 -50 11 -64 3
-74 4 -117 16 -48 13 -95 14 -102 2 -5 -7 -8 -5 -8 7 0 19 -6 21 -67 17 -34
-1 -43 2 -43 15 0 13 -6 15 -29 10 -17 -3 -32 -2 -36 4 -3 6 -14 11 -23 11
-15 0 -15 -2 -2 -10 9 -6 10 -10 3 -10 -6 0 -18 8 -25 18 -8 12 -23 17 -43 15
-16 -1 -34 2 -40 7 -6 5 -20 9 -30 9 -68 1 -136 15 -131 26 3 8 -2 16 -10 19
-9 4 -12 2 -8 -5 4 -7 -10 -9 -42 -5 -27 2 -53 5 -57 5 -5 1 -6 4 -3 9 2 4
-13 7 -35 7 -30 0 -37 2 -26 10 12 8 12 12 1 22 -10 10 -13 10 -17 0 -3 -9
-12 -7 -35 6 -16 9 -37 14 -46 11 -19 -7 -22 12 -3 20 6 3 3 5 -8 5 -45 -2
-55 2 -55 21 0 12 -5 17 -13 14 -8 -3 -20 2 -27 11 -7 8 -21 15 -32 15 -10 0
-16 5 -13 10 4 6 -7 10 -24 10 -18 0 -40 9 -52 21 -11 11 -36 23 -55 26 -30 5
-49 23 -24 23 6 0 10 5 10 11 0 8 -5 8 -15 -1 -13 -10 -19 -8 -35 13 -11 13
-31 28 -45 31 -17 4 -25 13 -25 29 0 16 -3 18 -9 8 -12 -18 -31 -5 -32 22 -1
20 -2 20 -9 -3 -8 -25 -8 -25 -10 5 -2 24 -4 26 -7 8 -2 -13 -9 -23 -14 -23
-15 0 -24 33 -11 38 7 2 12 8 12 14 0 6 -7 8 -15 4 -8 -3 -21 4 -30 17 -13 19
-15 -39 -15 -596 l0 -617 2000 0 2000 0 0 489 c0 425 -2 490 -15 495 -10 4
-19 -5 -29 -27 -12 -31 -16 -33 -54 -29 -34 3 -45 0 -65 -22 -13 -14 -34 -26
-45 -26 -33 0 -67 -19 -77 -43 -6 -12 -18 -23 -28 -25 -15 -3 -16 0 -7 23 12
32 6 45 -21 45 -12 0 -19 -7 -19 -19 0 -10 -7 -21 -15 -25 -8 -3 -15 -18 -16
-33 0 -27 -1 -27 -9 -5 -10 24 -25 29 -36 11 -5 -8 -10 -6 -16 5 -12 21 -48
21 -48 0 0 -25 -23 -41 -79 -53 -68 -14 -68 -15 -74 10 -5 20 -11 21 -52 16
-58 -8 -95 -33 -102 -69 -5 -27 -8 -28 -64 -28 -32 0 -61 -5 -64 -10 -4 -6
-11 -8 -16 -4 -5 3 -8 0 -7 -7 2 -6 -3 -14 -9 -16 -24 -9 -13 18 19 47 17 16
29 33 24 37 -4 4 -11 1 -16 -7 -6 -8 -10 -11 -10 -6 0 5 7 18 17 28 15 17 15
19 -8 39 l-24 21 -6 -24 c-4 -13 -7 -17 -8 -10 -1 6 -12 12 -26 12 -14 0 -25
4 -25 8 0 19 -59 29 -116 19 -33 -5 -61 -11 -63 -13 -2 -2 4 -13 14 -24 18
-20 17 -20 -8 -20 -17 0 -27 -5 -27 -15 0 -8 -6 -15 -12 -15 -9 0 -10 -3 -2
-8 14 -9 24 -62 13 -62 -5 0 -9 5 -9 10 0 6 -4 10 -10 10 -5 0 -10 -9 -10 -21
0 -15 -5 -19 -17 -15 -43 12 -241 16 -288 6 -27 -6 -68 -13 -90 -16 -38 -6
-139 -40 -160 -55 -5 -4 -26 -10 -46 -14 -34 -6 -37 -5 -43 20 -4 15 -3 32 3
38 11 14 -3 157 -18 186 -17 30 -13 118 5 146 13 20 15 37 9 83 -4 31 -8 93
-9 137 -1 59 -6 88 -19 108 -17 26 -17 27 3 39 25 16 26 59 2 81 -27 24 -65
21 -96 -8z m-1868 -288 c4 -20 -9 -22 -26 -5 -17 17 -15 27 6 24 9 -2 18 -10
20 -19z m97 -57 c3 -5 -1 -10 -10 -10 -9 0 -13 5 -10 10 3 6 8 10 10 10 2 0 7
-4 10 -10z m635 -340 c0 -5 -2 -10 -4 -10 -3 0 -8 5 -11 10 -3 6 -1 10 4 10 6
0 11 -4 11 -10z m2570 -17 c0 -14 -19 -38 -25 -32 -8 8 5 39 16 39 5 0 9 -3 9
-7z m263 -35 c-3 -6 2 -17 12 -24 26 -20 14 -26 -24 -13 -19 7 -28 14 -22 19
7 4 1 11 -16 19 -20 9 -24 14 -14 21 18 10 73 -9 64 -22z m-818 3 c14 -6 8 -8
-22 -7 -24 0 -43 4 -43 8 0 10 39 9 65 -1z m-85 -21 c0 -5 -2 -10 -4 -10 -3 0
-8 5 -11 10 -3 6 -1 10 4 10 6 0 11 -4 11 -10z m-1163 -42 c-3 -8 -6 -5 -6 6
-1 11 2 17 5 13 3 -3 4 -12 1 -19z m973 -23 c0 -8 -4 -15 -10 -15 -5 0 -10 7
-10 15 0 8 5 15 10 15 6 0 10 -7 10 -15z m627 -8 c8 0 8 -5 0 -19 -15 -22 -59
-25 -51 -3 4 10 0 15 -15 15 -12 0 -24 -7 -27 -15 -4 -8 -13 -15 -21 -15 -9 0
-13 -6 -9 -15 3 -8 1 -15 -4 -15 -14 0 -12 22 3 40 19 24 60 40 87 33 14 -3
30 -6 37 -6z m-664 -4 c-7 -2 -21 -2 -30 0 -10 3 -4 5 12 5 17 0 24 -2 18 -5z"/>
<path d="M128 1168 c-7 -17 15 -19 29 -3 4 4 3 5 -4 2 -6 -4 -13 -2 -15 5 -3
8 -6 6 -10 -4z"/>
<path d="M275 1040 c-3 -6 1 -7 9 -4 18 7 21 14 7 14 -6 0 -13 -4 -16 -10z"/>
<path d="M1796 575 c-3 -9 0 -15 9 -15 8 0 15 7 15 15 0 8 -4 15 -9 15 -5 0
-11 -7 -15 -15z"/>
</g>
</svg>
