<svg xmlns="http://www.w3.org/2000/svg" width="512" height="512" preserveAspectRatio="xMidYMid meet" version="1.0" viewBox="0 0 384 384"><metadata>Created by potrace 1.16, written by Peter Selinger 2001-2019</metadata><g fill="#000" stroke="none"><path d="M0 1920 l0 -1920 1920 0 1920 0 0 515 c0 337 -3 515 -10 515 -9 0 -14 -15 -11 -33 1 -5 -3 -6 -8 -3 -5 3 -14 -1 -21 -9 -7 -8 -22 -15 -34 -15 -11 0 -30 -7 -40 -15 -11 -8 -28 -12 -38 -9 -11 3 -24 1 -31 -4 -7 -6 -28 -12 -47 -14 -28 -2 -35 -7 -33 -23 1 -17 0 -18 -9 -4 -9 13 -19 14 -57 7 -25 -5 -53 -12 -61 -15 -8 -3 -21 -7 -29 -9 -7 -1 -18 -7 -24 -13 -6 -6 -21 -11 -33 -11 -27 0 -42 -19 -24 -30 8 -5 9 -10 2 -14 -6 -3 -14 3 -17 15 l-7 21 -22 -21 c-12 -12 -28 -21 -34 -21 -7 0 -12 -8 -12 -17 -1 -17 -1 -17 -14 0 -13 17 -36 23 -36 9 0 -4 -10 -8 -22 -9 -11 -1 -24 -6 -27 -11 -9 -12 -43 -24 -36 -12 11 18 -11 11 -34 -11 -15 -14 -26 -18 -30 -11 -4 7 -19 8 -41 2 -19 -4 -27 -8 -17 -9 12 -1 16 -5 11 -14 -5 -8 -2 -7 9 2 10 8 21 11 24 7 4 -4 3 -10 -3 -14 -13 -8 -14 -42 -2 -42 4 0 8 -4 8 -9 0 -7 -51 -8 -90 -1 -3 0 6 7 20 15 14 8 19 14 13 15 -7 0 -13 12 -13 26 0 27 -14 46 -42 57 -12 4 -18 2 -18 -8 0 -9 -10 -15 -25 -15 -14 0 -25 4 -25 9 0 16 -42 25 -105 22 -66 -3 -85 -12 -66 -35 13 -16 -1 -32 -19 -21 -5 3 -10 0 -10 -8 0 -8 -8 -18 -17 -22 -22 -10 -84 -13 -98 -6 -15 8 -75 7 -75 -1 0 -5 5 -8 10 -8 6 0 10 -7 10 -15 0 -8 -5 -15 -11 -15 -5 0 -8 4 -5 8 3 5 -4 16 -15 25 -10 9 -19 12 -19 6 0 -6 -7 -8 -16 -5 -9 4 -23 1 -30 -5 -10 -8 -14 -8 -14 0 0 14 -41 10 -59 -7 -8 -8 -17 -9 -20 -4 -3 5 -24 12 -46 15 -26 4 -35 3 -25 -3 8 -5 11 -12 7 -16 -4 -4 -13 -2 -19 4 -7 7 -19 12 -27 12 -13 0 -13 -2 -2 -9 7 -5 9 -11 4 -14 -13 -8 -53 3 -53 14 0 5 -5 9 -10 9 -7 0 -7 -6 -1 -17 8 -15 5 -18 -22 -17 -18 0 -40 -6 -49 -14 -10 -8 -18 -11 -18 -6 0 17 38 44 44 31 2 -7 5 -4 5 6 1 20 0 20 -32 8 -24 -9 -25 -8 -23 30 0 21 -3 40 -7 42 -4 1 -12 33 -17 70 -8 56 -7 72 5 89 19 28 10 268 -12 311 -13 25 -13 31 1 46 32 35 8 101 -37 101 -27 0 -66 -22 -82 -46 -12 -19 -13 -28 -3 -43 9 -15 9 -25 0 -45 -6 -14 -19 -77 -28 -140 -17 -108 -17 -117 -1 -134 9 -10 17 -33 17 -51 0 -18 4 -40 9 -49 5 -10 12 -42 15 -72 3 -29 12 -58 19 -62 9 -6 9 -10 -3 -18 -12 -7 -16 -4 -18 15 -2 14 -8 23 -13 19 -5 -3 -8 -8 -5 -12 2 -4 -5 -16 -16 -27 -16 -17 -18 -17 -12 -2 5 13 2 16 -10 11 -9 -3 -16 -10 -16 -16 0 -5 -23 -7 -57 -3 -32 3 -63 7 -70 7 -7 1 -15 8 -18 15 -3 9 -12 12 -25 8 -11 -4 -34 0 -50 8 -16 9 -32 11 -35 6 -3 -4 6 -11 20 -15 14 -3 25 -10 25 -15 0 -13 -19 -11 -35 3 -39 35 -42 37 -54 25 -8 -8 -11 -6 -11 7 0 15 -3 16 -15 6 -12 -10 -15 -10 -15 1 0 11 -2 11 -10 -1 -9 -13 -10 -13 -10 0 0 12 -2 12 -9 1 -6 -9 -11 -10 -15 -2 -4 6 -17 11 -29 11 -18 0 -19 2 -7 10 13 8 13 10 -2 10 -9 0 -19 6 -21 13 -3 7 -6 5 -6 -5 -1 -21 -27 -24 -34 -5 -4 9 -6 9 -6 0 -1 -7 -11 -13 -23 -13 -19 0 -20 -2 -8 -10 12 -8 9 -10 -12 -10 -30 0 -35 9 -17 27 8 8 5 14 -10 22 -12 7 -21 8 -21 2 0 -5 6 -12 12 -14 10 -4 9 -8 -2 -16 -10 -7 -18 -6 -28 1 -8 7 -9 14 -3 17 5 4 -1 11 -15 18 -14 6 -26 7 -30 2 -8 -14 -36 -10 -56 8 -15 13 -21 14 -27 5 -9 -15 -66 10 -79 35 -7 11 -20 14 -45 11 -20 -2 -39 1 -41 7 -3 6 -5 5 -5 -2 -1 -18 -31 -16 -31 2 0 21 -17 19 -23 -4 -3 -14 -11 -17 -31 -14 -21 4 -26 10 -21 27 2 11 2 15 -1 9 -8 -18 -24 -16 -24 3 0 8 -5 12 -10 9 -6 -3 -13 0 -16 8 -3 8 -14 17 -25 20 -11 3 -23 15 -26 26 -3 13 -14 21 -27 21 -17 0 -18 2 -6 10 12 8 10 10 -10 11 -23 0 -24 1 -5 10 18 8 17 9 -5 5 -35 -7 -105 41 -89 60 9 11 7 14 -10 14 -11 0 -21 5 -21 11 0 7 -8 18 -18 25 -16 13 -16 15 5 33 17 14 19 21 10 31 -10 10 -8 12 7 6 15 -5 17 -2 12 17 -4 16 1 31 13 44 18 19 18 22 3 36 -20 21 -8 34 15 16 9 -8 14 -9 10 -2 -4 6 -3 14 3 18 5 3 10 1 10 -4 0 -6 5 -11 10 -11 7 0 7 6 0 20 -8 16 -8 18 4 14 11 -4 13 0 9 16 -4 16 -8 18 -14 8 -5 -7 -9 -8 -9 -3 -1 6 -5 0 -10 -12 -12 -29 -34 -31 -25 -3 3 11 2 20 -3 20 -12 0 -24 -29 -16 -41 3 -5 0 -9 -5 -9 -6 0 -11 8 -11 18 1 20 25 54 33 46 3 -4 5 3 4 15 -1 11 -7 21 -14 21 -7 0 -12 -5 -11 -12 2 -6 -5 -14 -14 -16 -10 -2 -18 1 -18 7 0 6 4 11 9 11 5 0 11 10 14 21 4 16 11 20 26 16 24 -6 29 8 6 17 -8 3 -15 13 -15 22 0 12 3 14 13 5 16 -12 37 3 37 27 0 8 8 20 17 27 15 11 12 12 -17 9 -30 -4 -33 -2 -20 11 8 8 25 16 37 18 24 3 44 17 25 17 -7 0 -12 7 -12 16 0 8 4 13 9 9 5 -3 12 4 16 14 4 13 12 18 22 14 11 -4 14 -2 11 8 -3 8 6 22 20 33 15 12 22 26 19 37 -3 11 -1 16 4 13 6 -3 16 0 24 6 12 10 15 9 16 -6 0 -11 3 -14 5 -7 3 7 11 11 17 9 7 -1 9 -1 5 1 -15 8 -8 20 18 32 15 6 24 14 21 18 -4 3 -13 0 -21 -6 -16 -13 -56 -6 -56 9 0 5 7 7 15 3 11 -4 19 4 28 26 6 17 17 31 23 31 15 0 26 28 14 35 -16 10 -11 25 5 19 8 -4 15 -12 15 -19 0 -8 6 -17 13 -21 6 -4 9 -4 5 1 -4 4 0 14 10 21 15 12 15 13 1 14 -10 0 -15 8 -13 23 1 12 3 26 3 30 1 5 4 6 9 3 4 -2 18 2 32 10 14 7 21 14 15 14 -5 0 -4 4 4 9 8 5 16 23 18 41 2 19 -1 29 -7 25 -6 -3 -10 -16 -11 -28 0 -21 -1 -21 -8 -2 -5 11 -5 22 -2 25 4 3 14 15 22 27 14 20 18 21 35 8 18 -14 18 -14 0 -15 -16 0 -18 -5 -13 -35 3 -19 2 -35 -4 -35 -5 0 -9 -7 -9 -16 0 -9 5 -12 12 -8 8 5 9 1 5 -12 -7 -18 -7 -18 8 0 18 24 20 63 3 69 -10 3 -10 7 1 20 9 11 18 14 25 8 7 -6 16 -3 26 7 13 14 12 15 -3 9 -20 -8 -32 9 -18 27 7 9 7 16 -1 24 -8 8 -3 13 18 18 25 6 26 8 9 15 -14 5 -15 8 -5 8 9 1 21 -4 26 -9 14 -14 64 8 64 28 0 11 3 12 13 4 23 -19 60 30 50 67 -3 12 -1 21 6 21 6 0 11 -6 11 -13 0 -7 10 -13 23 -14 21 -2 21 -1 -5 20 -20 16 -25 26 -18 37 7 11 10 11 10 2 0 -7 4 -11 9 -7 5 3 11 -3 13 -12 3 -15 6 -14 26 7 19 21 22 22 22 5 0 -10 -7 -27 -17 -37 -13 -15 -14 -18 -1 -18 8 0 22 18 32 40 10 22 21 38 26 35 4 -3 10 2 14 10 8 22 26 18 26 -6 0 -18 2 -19 15 -9 14 12 14 15 -2 32 -14 15 -14 21 -3 31 10 9 11 9 6 0 -4 -7 -3 -13 2 -13 6 0 13 11 16 25 4 14 10 25 15 25 5 0 7 9 4 20 -4 14 3 28 21 45 14 13 29 38 33 55 4 20 9 28 16 21 5 -5 6 -15 1 -22 -4 -8 -9 -22 -10 -33 0 -11 -6 -22 -12 -24 -8 -2 -6 -12 5 -28 16 -25 16 -25 -13 -19 -22 5 -25 4 -14 -4 27 -19 50 -13 47 12 -1 12 -6 25 -11 28 -5 4 6 22 25 40 19 18 26 30 17 27 -11 -5 -18 0 -21 14 -5 16 -2 19 13 15 12 -3 29 4 44 18 15 14 28 20 32 14 3 -6 12 -2 21 10 8 12 20 21 27 21 18 0 53 42 53 63 0 9 -7 17 -16 17 -14 0 -14 2 -1 10 12 8 9 10 -12 10 -23 0 -28 4 -28 26 0 14 -4 23 -9 19 -5 -3 -12 -1 -16 5 -3 5 1 10 10 10 11 0 15 5 12 14 -3 7 -1 19 4 25 6 7 5 8 -2 2 -6 -5 -19 -7 -28 -4 -11 4 -10 1 4 -10 20 -16 20 -16 -1 -17 -12 0 -25 -10 -32 -25 -10 -22 -32 -35 -32 -19 0 9 57 89 75 104 14 12 18 12 27 -1 7 -10 8 -3 5 26 -5 34 -4 36 5 18 12 -24 28 -31 28 -11 0 31 17 -13 20 -52 1 -24 29 32 29 60 0 22 -1 23 -10 8 -8 -15 -13 -16 -29 -5 -23 14 -27 32 -6 24 10 -4 13 -1 10 8 -3 8 -11 13 -17 12 -5 -1 -14 9 -18 23 l-7 25 -1 -27 c-1 -15 -5 -29 -10 -32 -4 -3 -6 6 -3 20 3 16 -1 30 -9 35 -11 7 -11 9 2 9 9 0 22 6 28 14 17 21 54 28 47 10 -3 -8 -2 -13 3 -10 9 6 21 56 22 89 0 9 7 17 15 17 8 0 14 7 14 15 0 19 5 19 37 -2 26 -17 26 -17 14 6 -7 12 -10 25 -7 29 3 3 6 1 6 -4 0 -5 5 -16 10 -24 8 -13 11 -12 24 5 13 16 17 17 25 6 6 -10 13 -10 29 -2 21 11 52 5 52 -10 0 -5 3 -8 8 -8 26 4 41 -2 36 -16 -5 -11 -2 -13 9 -9 9 3 15 13 14 22 0 9 2 31 6 47 3 17 4 24 1 18 -3 -7 -12 -13 -19 -13 -7 0 -16 -6 -18 -12 -3 -7 -6 -3 -6 10 -1 12 4 22 9 22 6 0 10 16 10 36 0 25 7 43 21 54 20 18 20 18 0 25 -19 6 -26 45 -8 45 5 0 7 -7 4 -15 -4 -8 -2 -17 4 -20 5 -4 9 -3 8 2 -4 23 3 33 24 30 13 -1 21 3 19 11 -1 6 3 12 9 12 6 0 8 -7 5 -16 -3 -9 -6 -19 -6 -24 0 -4 -10 -6 -23 -3 -19 4 -20 3 -4 -7 9 -6 17 -18 17 -27 0 -11 6 -14 24 -9 16 4 28 0 37 -11 12 -14 12 -15 0 -9 -10 7 -12 3 -6 -15 3 -13 3 -19 -2 -14 -10 13 -43 16 -43 4 0 -5 6 -9 13 -9 6 0 4 -5 -7 -11 -14 -9 -20 -8 -26 1 -5 9 -9 9 -14 1 -9 -14 1 -31 19 -31 7 0 16 -6 19 -12 5 -10 7 -10 12 0 3 7 14 17 25 22 18 10 18 9 7 -16 -10 -22 -10 -28 0 -32 21 -7 13 -25 -8 -19 -17 4 -20 2 -15 -14 6 -19 -9 -27 -20 -9 -3 5 -12 7 -20 3 -8 -3 -15 0 -15 6 0 6 -5 11 -12 11 -6 0 -3 -8 7 -20 10 -11 22 -17 26 -14 13 8 11 -6 -4 -20 -7 -7 -18 -11 -25 -8 -7 2 -12 -6 -12 -23 0 -15 -4 -24 -10 -20 -5 3 -10 -1 -10 -9 0 -9 5 -16 10 -16 6 0 10 -7 10 -15 0 -9 6 -12 15 -9 11 5 13 2 9 -10 -4 -11 -13 -15 -26 -10 -17 5 -19 3 -13 -16 6 -20 5 -21 -14 -10 -20 10 -21 9 -17 -22 2 -20 -2 -38 -10 -46 -8 -7 -14 -9 -14 -5 0 5 -14 14 -31 20 -17 7 -28 17 -24 22 10 17 -12 13 -29 -5 -18 -17 -22 -39 -6 -29 5 3 10 0 10 -7 1 -8 6 -6 15 6 15 20 15 20 15 0 0 -12 3 -15 8 -7 10 17 34 0 27 -19 -3 -8 -17 -20 -31 -27 -15 -6 -23 -7 -19 -1 3 5 2 10 -3 10 -5 0 -12 -11 -14 -25 -6 -27 1 -32 19 -14 9 9 16 7 30 -7 17 -16 17 -17 1 -11 -21 8 -24 -9 -4 -28 12 -12 16 -11 30 4 18 20 21 41 6 41 -5 0 -10 10 -10 23 1 21 1 21 15 4 9 -13 20 -17 36 -12 16 5 19 4 14 -6 -6 -9 -3 -11 9 -6 14 6 17 2 14 -26 -2 -19 -8 -31 -15 -29 -7 1 -13 -3 -13 -9 0 -6 6 -9 12 -7 17 6 38 -16 37 -39 0 -11 -3 -13 -6 -5 -4 10 -8 10 -21 0 -13 -12 -14 -10 -3 10 10 19 9 22 -9 22 -15 0 -20 7 -20 26 0 17 4 23 12 18 8 -5 9 -2 5 10 -4 10 -7 20 -7 22 0 2 -6 4 -13 4 -9 0 -12 -9 -9 -29 2 -16 -1 -32 -7 -35 -15 -10 -14 -46 1 -46 9 0 9 -3 0 -12 -9 -9 -16 -8 -30 5 -14 13 -21 14 -30 5 -9 -9 -7 -17 13 -33 22 -18 23 -21 8 -35 -15 -13 -16 -13 -11 2 4 10 -2 19 -18 27 -21 9 -24 9 -22 -5 2 -10 -3 -18 -10 -20 -7 -1 -8 0 -3 2 15 8 1 34 -14 28 -7 -3 -11 -14 -8 -24 4 -14 -2 -22 -21 -30 -28 -10 -35 -30 -11 -30 8 0 15 4 15 9 0 5 9 7 21 4 13 -4 16 -8 10 -13 -12 -7 -5 -40 8 -40 4 0 7 -9 8 -20 1 -13 -2 -18 -10 -13 -16 10 -49 9 -66 -2 -11 -6 -13 -4 -8 8 3 9 1 18 -6 20 -9 3 -9 7 0 17 7 8 9 20 3 35 -5 13 -6 26 -2 30 3 3 -1 3 -11 -1 -20 -7 -21 -16 -5 -32 10 -10 10 -17 -1 -34 -10 -16 -10 -23 -2 -26 6 -2 11 -8 11 -13 0 -6 -4 -8 -9 -5 -5 3 -14 -1 -21 -9 -10 -12 -9 -15 4 -15 9 0 16 -4 16 -10 0 -5 -4 -10 -10 -10 -5 0 -10 -5 -10 -10 0 -7 6 -7 19 0 28 15 33 13 26 -10 -5 -16 -2 -20 16 -20 18 0 20 -3 11 -12 -16 -16 -15 -28 2 -28 7 0 16 -9 19 -21 3 -12 10 -18 16 -14 6 3 11 1 11 -4 0 -6 7 -11 15 -11 8 0 15 5 15 11 0 5 -5 7 -10 4 -5 -3 -10 0 -10 8 0 12 7 13 34 7 19 -4 37 -5 40 -2 4 3 6 0 6 -6 0 -7 -11 -12 -25 -12 -32 0 -32 -16 0 -22 14 -3 25 -1 25 6 0 6 5 4 10 -4 8 -13 10 -13 10 1 0 9 10 20 22 26 25 11 51 6 42 -8 -7 -11 7 -11 25 0 8 5 15 20 16 33 1 17 7 22 23 20 12 -2 22 1 22 7 0 6 -7 8 -15 5 -9 -4 -15 0 -15 9 0 8 7 17 15 21 8 3 15 1 15 -5 0 -6 5 -7 10 -4 6 3 10 -3 10 -15 0 -20 1 -20 31 -5 23 12 28 19 20 29 -6 7 -9 15 -6 18 3 2 -11 3 -31 2 -33 -3 -35 -2 -23 14 44 56 68 80 72 69 2 -7 -5 -17 -17 -24 -12 -7 -15 -12 -8 -13 10 0 10 -3 0 -14 -7 -8 -17 -11 -23 -8 -5 3 -7 1 -2 -3 4 -5 18 -9 32 -10 20 0 24 3 19 17 -3 10 -2 18 2 18 13 0 33 -35 34 -56 0 -13 8 -24 19 -27 14 -3 18 -1 14 9 -7 18 11 18 26 0 10 -12 8 -17 -8 -25 -11 -6 -28 -8 -38 -5 -15 5 -15 4 -3 -5 8 -6 11 -11 5 -11 -5 0 -3 -5 5 -10 12 -8 13 -12 2 -19 -11 -7 -10 -9 3 -14 9 -4 13 -3 10 3 -3 6 -2 10 3 10 5 0 21 9 36 21 23 18 25 23 14 37 -9 12 -3 11 23 -5 l37 -21 22 30 c22 30 21 66 -2 52 -10 -6 -10 -4 0 8 11 14 10 18 -5 28 -14 9 -14 10 -2 7 9 -3 26 1 37 8 10 8 22 12 25 9 3 -3 10 3 16 14 8 15 8 22 -2 25 -9 3 -9 8 -1 16 11 13 47 4 39 -9 -3 -5 5 -6 17 -2 14 3 19 2 14 -6 -4 -7 -2 -12 3 -12 6 0 11 7 11 15 0 8 -5 15 -12 15 -9 0 -9 3 0 12 9 10 16 8 29 -5 14 -14 15 -17 3 -17 -13 0 -13 -2 -1 -9 17 -11 43 -3 35 10 -9 15 9 10 39 -10 27 -17 27 -19 8 -24 -12 -3 -24 -1 -27 4 -3 5 -12 9 -21 9 -13 0 -13 -3 -3 -15 10 -12 10 -15 0 -15 -7 0 -19 8 -27 18 -14 16 -14 16 -8 -2 3 -11 0 -23 -6 -27 -7 -4 -9 -15 -5 -24 6 -17 8 -17 26 0 18 16 20 16 20 2 0 -10 -4 -17 -10 -17 -5 0 -10 -5 -10 -11 0 -5 4 -8 9 -5 5 4 7 -4 3 -16 -4 -15 -2 -19 7 -13 10 6 11 3 1 -15 -12 -22 -5 -43 8 -25 4 6 16 11 27 13 18 3 18 2 -3 -13 -19 -14 -20 -18 -8 -31 19 -19 32 -18 16 1 -15 18 1 20 18 3 9 -9 11 -4 7 21 -3 26 -1 31 11 27 9 -3 29 1 45 9 21 11 34 13 47 6 15 -10 15 -10 -3 -11 -19 -1 -19 -1 3 -13 17 -10 20 -15 10 -25 -15 -15 -31 -16 -22 0 5 7 2 9 -9 5 -11 -4 -14 -2 -10 9 3 9 -2 14 -17 14 -19 0 -20 -3 -10 -15 6 -8 9 -19 5 -25 -4 -6 4 -10 20 -10 15 0 24 -4 20 -10 -3 -6 1 -7 9 -4 9 3 16 12 16 20 0 8 4 14 8 14 13 0 35 -47 28 -59 -4 -6 -2 -11 4 -11 6 0 13 7 17 16 3 8 12 13 19 10 7 -3 16 -1 19 4 6 10 -7 14 -32 11 -7 -1 -13 3 -13 9 0 6 5 8 10 5 6 -4 10 6 10 22 l1 28 13 -24 c12 -21 14 -22 20 -5 5 12 1 23 -10 31 -16 12 -16 14 -1 31 13 15 14 21 4 31 -9 10 -8 11 8 5 17 -7 18 -5 8 7 -8 9 -9 20 -3 29 8 12 10 10 10 -7 0 -13 3 -23 8 -23 4 0 8 -11 8 -25 2 -20 -1 -23 -11 -15 -15 13 -33 -6 -19 -19 12 -11 74 7 74 20 0 6 -4 7 -10 4 -6 -3 -7 1 -4 9 11 29 35 13 41 -28 3 -14 -1 -17 -17 -13 -18 4 -19 3 -9 -9 10 -12 9 -13 -3 -9 -10 4 -17 -2 -22 -17 -10 -39 -6 -44 14 -18 l20 25 -5 -35 c-4 -28 -2 -25 11 14 10 32 19 45 25 39 7 -7 18 -7 34 1 20 9 23 17 20 49 -4 36 -3 38 11 21 15 -18 15 -18 10 6 -4 22 -4 23 8 8 16 -22 23 -22 42 -3 10 10 13 23 8 37 -6 20 -5 21 9 10 18 -15 13 -40 -12 -60 -15 -12 -15 -14 1 -26 10 -7 15 -16 12 -19 -3 -3 3 -12 15 -19 12 -7 21 -21 21 -30 0 -10 5 -18 11 -18 5 0 7 -5 3 -12 -4 -6 -3 -8 4 -4 5 3 13 0 15 -6 4 -9 6 -7 6 3 1 9 -6 22 -14 29 -22 18 -19 28 9 28 19 0 22 -5 18 -21 -3 -14 -1 -18 6 -13 7 4 12 14 12 22 0 21 18 17 25 -6 7 -21 25 -28 25 -9 0 6 7 8 16 5 8 -3 13 -2 10 3 -3 5 6 12 19 15 24 6 25 8 10 23 -14 14 -18 14 -27 2 -7 -11 -9 -8 -5 8 3 13 1 26 -4 29 -12 7 -11 24 1 24 6 0 10 -5 10 -11 0 -15 25 -37 54 -49 18 -6 24 -14 19 -26 -4 -11 -8 -12 -13 -3 -6 8 -11 6 -19 -10 -6 -11 -15 -20 -19 -20 -20 3 -33 -2 -27 -11 4 -6 20 -9 36 -8 24 2 28 6 23 21 -4 12 -2 17 4 13 5 -3 17 3 27 14 10 11 29 20 42 20 16 0 23 6 23 19 0 13 7 19 25 19 31 0 31 -4 3 -30 -18 -15 -19 -18 -5 -14 9 3 17 1 17 -5 0 -6 -9 -13 -20 -16 -11 -3 -20 -9 -20 -14 0 -5 -5 -9 -11 -9 -6 0 -8 9 -4 20 4 14 2 20 -8 20 -21 0 -27 -11 -16 -31 7 -15 6 -19 -6 -19 -17 0 -19 -18 -5 -40 8 -13 10 -12 10 3 0 27 28 32 49 8 10 -11 21 -18 25 -14 4 4 -3 15 -15 24 -22 16 -19 40 4 38 9 0 8 -2 -1 -6 -19 -7 -4 -22 17 -16 12 3 17 11 14 19 -4 10 3 14 23 14 22 0 25 3 14 9 -8 6 -18 7 -22 5 -4 -3 -8 -1 -8 5 0 16 22 25 30 11 5 -8 12 -2 21 18 7 16 21 35 31 41 25 15 23 -4 -2 -29 -21 -21 -27 -35 -11 -26 5 3 12 -1 15 -10 9 -23 8 -26 -6 -18 -8 4 -10 3 -5 -2 5 -5 12 -9 15 -9 4 0 12 -4 19 -8 7 -5 14 4 18 25 4 18 13 37 19 41 6 5 0 5 -14 1 -22 -6 -23 -5 -8 10 20 19 50 21 47 4 -3 -29 2 -49 11 -43 6 4 7 11 4 17 -5 8 -1 9 10 5 10 -4 20 -7 22 -7 3 0 3 -3 1 -7 -3 -5 5 -8 18 -8 19 0 22 4 19 25 -3 14 -7 31 -9 38 -3 7 -1 10 5 7 5 -3 9 260 9 685 l1 690 -899 0 c-705 0 -901 -3 -904 -13 -4 -9 -6 -9 -6 1 -1 9 -211 12 -1016 12 l-1015 0 0 -1920z" transform="translate(0.000000,384.000000) scale(0.100000,-0.100000)"/></g></svg>