<?xml version="1.0" encoding="utf-8"?>
<!-- Generator: Adobe Illustrator 23.0.2, SVG Export Plug-In . SVG Version: 6.00 Build 0)  -->
<svg version="1.1" id="Layer_1" xmlns="http://www.w3.org/2000/svg" xmlns:xlink="http://www.w3.org/1999/xlink" x="0px" y="0px"
	 viewBox="0 0 200 200" style="enable-background:new 0 0 200 200;" xml:space="preserve">
<style type="text/css">
	.st0{clip-path:url(#SVGID_2_);fill:url(#SVGID_3_);}
	.st1{clip-path:url(#SVGID_6_);fill:url(#SVGID_8_);}
	.st2{fill:url(#SVGID_9_);}
	.st3{opacity:0.77;clip-path:url(#SVGID_12_);fill:url(#SVGID_13_);enable-background:new    ;}
	.st4{display:none;}
	.st5{display:inline;}
	.st6{fill:#FFCC66;}
	.st7{display:inline;fill:#FFCC66;}
	.st8{fill:#FFFFFF;}
</style>
<g>
	<g>
		<g>
			<g>
				<g>
					<g>
						<g>
							<g>
								<g>
									<defs>
										<rect id="SVGID_1_" x="0" y="-0.3" width="200" height="203.8"/>
									</defs>
									<clipPath id="SVGID_2_">
										<use xlink:href="#SVGID_1_"  style="overflow:visible;"/>
									</clipPath>
									
										<linearGradient id="SVGID_3_" gradientUnits="userSpaceOnUse" x1="-3.054738e-06" y1="-8077.3501" x2="200" y2="-8077.3501" gradientTransform="matrix(1 0 0 -1 0 -7976)">
										<stop  offset="0" style="stop-color:#667EEA"/>
										<stop  offset="1" style="stop-color:#0B0456"/>
									</linearGradient>
									<rect x="0" y="-0.3" class="st0" width="200" height="203.3"/>
								</g>
							</g>
						</g>
					</g>
				</g>
			</g>
		</g>
	</g>
	<g>
		<g>
			<g>
				<g>
					<g>
						<g>
							<g>
								<g>
									<defs>
										<rect id="SVGID_4_" y="-1.9" width="200" height="203.8"/>
									</defs>
									<linearGradient id="SVGID_5_" gradientUnits="userSpaceOnUse" x1="0" y1="100" x2="200" y2="100">
										<stop  offset="0" style="stop-color:#667EEA"/>
										<stop  offset="1" style="stop-color:#0B0456"/>
									</linearGradient>
									<use xlink:href="#SVGID_4_"  style="overflow:visible;fill:url(#SVGID_5_);"/>
									<clipPath id="SVGID_6_">
										<use xlink:href="#SVGID_4_"  style="overflow:visible;"/>
									</clipPath>
									
										<linearGradient id="SVGID_8_" gradientUnits="userSpaceOnUse" x1="10091" y1="-8074.5" x2="10291" y2="-8074.5" gradientTransform="matrix(1 0 1 -1 -2010 -7976)">
										<stop  offset="0" style="stop-color:#667EEA"/>
										<stop  offset="1" style="stop-color:#0B0456"/>
									</linearGradient>
									<polygon class="st1" points="106.5,-1.5 306.5,-1.5 106.5,198.5 -93.5,198.5 									"/>
								</g>
							</g>
						</g>
					</g>
				</g>
			</g>
			<g>
				<g>
					<g>
						<g>
							<g>
								<g>
									
										<linearGradient id="SVGID_9_" gradientUnits="userSpaceOnUse" x1="3.084332e-02" y1="100.2999" x2="200.0309" y2="100.2999" gradientTransform="matrix(1 0 0 -1 0 202)">
										<stop  offset="0" style="stop-color:#667EEA"/>
										<stop  offset="1" style="stop-color:#0B0456"/>
									</linearGradient>
									<rect id="SVGID_7_" x="0" y="-0.2" class="st2" width="200" height="203.8"/>
								</g>
								<g>
									<defs>
										<rect id="SVGID_10_" x="0" y="-0.2" width="200" height="203.8"/>
									</defs>
									
										<linearGradient id="SVGID_11_" gradientUnits="userSpaceOnUse" x1="3.084332e-02" y1="101.7001" x2="200.0309" y2="101.7001">
										<stop  offset="0" style="stop-color:#667EEA"/>
										<stop  offset="1" style="stop-color:#0B0456"/>
									</linearGradient>
									<use xlink:href="#SVGID_10_"  style="overflow:visible;fill:url(#SVGID_11_);"/>
									<clipPath id="SVGID_12_">
										<use xlink:href="#SVGID_10_"  style="overflow:visible;"/>
									</clipPath>
									
										<linearGradient id="SVGID_13_" gradientUnits="userSpaceOnUse" x1="10186.5312" y1="-8076.1001" x2="10386.5312" y2="-8076.1001" gradientTransform="matrix(1 0 1 -1 -2010 -7976)">
										<stop  offset="0" style="stop-color:#667EEA"/>
										<stop  offset="1" style="stop-color:#0B0456"/>
									</linearGradient>
									<polygon class="st3" points="200.4,0.1 400.4,0.1 200.4,200.1 0.4,200.1 									"/>
								</g>
							</g>
						</g>
					</g>
				</g>
			</g>
		</g>
	</g>
</g>
<g class="st4">
	<g class="st5">
		<g>
			<g>
				<path class="st6" d="M145.5,137.2l-23.4-23.4c5.5-6.8,8.9-15.4,8.9-24.8c0-21.6-17.6-39.2-39.2-39.2S52.5,67.3,52.5,88.9
					s17.6,39.2,39.2,39.2c9.4,0,18-3.3,24.8-8.9l23.4,23.4c0.8,0.8,1.8,1.1,2.8,1.1s2-0.4,2.8-1.1
					C147.1,141.2,147.1,138.7,145.5,137.2z M91.8,120.3c-17.3,0-31.4-14.1-31.4-31.4s14.1-31.4,31.4-31.4s31.4,14.1,31.4,31.4
					S109.1,120.3,91.8,120.3z"/>
			</g>
			
				<rect x="137.9" y="133.2" transform="matrix(0.7071 -0.7071 0.7071 0.7071 -56.6292 140.8864)" class="st6" width="7.8" height="11.2"/>
		</g>
	</g>
	<rect x="71.5" y="91.7" class="st7" width="10.7" height="14.8"/>
	<rect x="86.4" y="80.7" class="st7" width="10.7" height="25.9"/>
	<rect x="101.1" y="70.5" class="st7" width="10.7" height="36.1"/>
</g>
<g>
	<g>
		<g>
			<path class="st8" d="M170,99.6h-34v-4.8h9.2c1.2,0,2.1-0.9,2.1-2.1c0-1.2-0.9-2.1-2.1-2.1H136v-4.8h6.4c2.4,0,4.6-0.9,6.3-2.6
				l13.9-13.9c0.9,0.5,1.9,0.7,3,0.7c1.8,0,3.4-0.7,4.7-1.9c1.3-1.3,1.9-2.9,1.9-4.7c0-1.8-0.7-3.4-1.9-4.7
				c-1.3-1.3-2.9-1.9-4.7-1.9c-1.8,0-3.4,0.7-4.7,1.9c-1.3,1.3-1.9,2.9-1.9,4.7c0,1,0.2,2,0.7,3l-13.9,13.9
				c-0.9,0.9-2.1,1.4-3.3,1.4H136v-4.7c0-6.1-5-11.1-11.1-11.1h-4.7V47c2.6-0.9,4.5-3.4,4.5-6.3c0-3.7-3-6.6-6.6-6.6s-6.6,3-6.6,6.6
				c0,2.9,1.9,5.4,4.5,6.3v18.7h-4.8v-9.2c0-1.2-0.9-2.1-2.1-2.1c-1.2,0-2.1,0.9-2.1,2.1v9.2h-4.8v-34c0-1.2-0.9-2.1-2.1-2.1
				c-1.2,0-2.1,0.9-2.1,2.1v34h-4.8v-9.2c0-1.2-0.9-2.1-2.1-2.1s-2.1,0.9-2.1,2.1v9.2h-4.8v-6.4c0-2.4-0.9-4.6-2.6-6.3L67.6,39.2
				c1.2-2.5,0.8-5.6-1.2-7.6c-2.6-2.6-6.8-2.6-9.4,0c-2.6,2.6-2.6,6.8,0,9.4c1.3,1.3,3,1.9,4.7,1.9c1,0,2-0.2,2.9-0.7L78.5,56
				c0.9,0.9,1.4,2.1,1.4,3.3v6.4h-4.7c-0.9,0-1.9,0.1-2.8,0.4c-1.1,0.3-1.8,1.4-1.5,2.6s1.4,1.8,2.6,1.5c0.6-0.1,1.1-0.2,1.7-0.2
				h49.7c3.8,0,6.9,3.1,6.9,6.9v49.7c0,0.6-0.1,1.2-0.2,1.7c-0.3,1.1,0.4,2.3,1.5,2.6c0.2,0,0.4,0.1,0.5,0.1c0.9,0,1.8-0.6,2-1.6
				c0.2-0.9,0.4-1.8,0.4-2.8v-4.7h18.7c0.9,2.6,3.4,4.5,6.3,4.5c3.7,0,6.6-3,6.6-6.6c0-3.7-3-6.6-6.6-6.6c-2.9,0-5.4,1.9-6.3,4.5
				H136v-4.8h9.2c1.2,0,2.1-0.9,2.1-2.1c0-1.2-0.9-2.1-2.1-2.1H136v-4.8h34c1.2,0,2.1-0.9,2.1-2.1C172.1,100.5,171.2,99.6,170,99.6z
				 M163.8,61.6c0.5-0.5,1.1-0.7,1.7-0.7s1.2,0.2,1.7,0.7c0.5,0.5,0.7,1.1,0.7,1.7c0,0.6-0.2,1.2-0.7,1.7c-0.5,0.5-1.1,0.7-1.7,0.7
				s-1.2-0.2-1.7-0.7c-0.5-0.5-0.7-1.1-0.7-1.7S163.4,62.1,163.8,61.6z M63.3,37.9c-0.9,0.9-2.5,0.9-3.4,0c-0.9-0.9-0.9-2.5,0-3.4
				c0.5-0.5,1.1-0.7,1.7-0.7c0.6,0,1.2,0.2,1.7,0.7C64.3,35.4,64.3,37,63.3,37.9z M118.1,43.1c-1.3,0-2.4-1.1-2.4-2.4
				s1.1-2.4,2.4-2.4c1.3,0,2.4,1.1,2.4,2.4S119.4,43.1,118.1,43.1z M161,117.4c1.3,0,2.4,1.1,2.4,2.4c0,1.3-1.1,2.4-2.4,2.4
				c-1.3,0-2.4-1.1-2.4-2.4C158.6,118.4,159.7,117.4,161,117.4z"/>
		</g>
	</g>
	<g>
		<g>
			<path class="st8" d="M143.1,162.5c-2.1-2.1-5.2-2.5-7.6-1.2l-13.9-13.9c-0.9-0.9-1.4-2.1-1.4-3.3v-6.4h4.7c0.9,0,1.9-0.1,2.8-0.4
				c1.1-0.3,1.8-1.4,1.5-2.6c-0.3-1.1-1.4-1.8-2.6-1.5c-0.6,0.1-1.1,0.2-1.7,0.2H75.2c-3.8,0-6.9-3.1-6.9-6.9V76.9
				c0-0.6,0.1-1.2,0.2-1.7c0.3-1.1-0.4-2.3-1.5-2.6c-1.1-0.3-2.3,0.4-2.6,1.5C64.2,75,64,75.9,64,76.9v4.7H45.3
				C44.5,78.9,42,77,39.1,77c-3.7,0-6.6,3-6.6,6.6c0,3.7,3,6.6,6.6,6.6c2.9,0,5.4-1.9,6.3-4.5H64v4.8h-9.2c-1.2,0-2.1,0.9-2.1,2.1
				c0,1.2,0.9,2.1,2.1,2.1H64v4.8H30c-1.2,0-2.1,0.9-2.1,2.1c0,1.2,0.9,2.1,2.1,2.1h34v4.8h-9.2c-1.2,0-2.1,0.9-2.1,2.1
				c0,1.2,0.9,2.1,2.1,2.1H64v4.8h-6.4c-2.4,0-4.6,0.9-6.3,2.6l-13.9,13.9c-0.9-0.5-1.9-0.7-3-0.7c-1.8,0-3.4,0.7-4.7,1.9
				c-1.3,1.3-1.9,2.9-1.9,4.7c0,1.8,0.7,3.4,1.9,4.7c1.3,1.3,2.9,1.9,4.7,1.9s3.4-0.7,4.7-1.9c1.3-1.3,1.9-2.9,1.9-4.7
				c0-1-0.2-2-0.7-3l13.9-13.9c0.9-0.9,2.1-1.4,3.3-1.4H64v4.7c0,6.1,5,11.1,11.1,11.1h4.7v18.7c-2.6,0.9-4.5,3.4-4.5,6.3
				c0,3.7,3,6.6,6.6,6.6c3.7,0,6.6-3,6.6-6.6c0-2.9-1.9-5.4-4.5-6.3v-18.7h4.8v9.2c0,1.2,0.9,2.1,2.1,2.1s2.1-0.9,2.1-2.1v-9.2h4.8
				v34c0,1.2,0.9,2.1,2.1,2.1c1.2,0,2.1-0.9,2.1-2.1v-34h4.8v9.2c0,1.2,0.9,2.1,2.1,2.1c1.2,0,2.1-0.9,2.1-2.1v-9.2h4.8v6.4
				c0,2.4,0.9,4.6,2.6,6.3l13.9,13.9c-1.2,2.5-0.8,5.6,1.2,7.6c1.3,1.3,3,1.9,4.7,1.9c1.7,0,3.4-0.6,4.7-1.9
				C145.7,169.3,145.7,165.1,143.1,162.5z M39.1,86c-1.3,0-2.4-1.1-2.4-2.4c0-1.3,1.1-2.4,2.4-2.4c1.3,0,2.4,1.1,2.4,2.4
				C41.5,85,40.4,86,39.1,86z M36.2,141.8c-0.5,0.5-1.1,0.7-1.7,0.7c-0.6,0-1.2-0.2-1.7-0.7c-0.5-0.5-0.7-1.1-0.7-1.7
				s0.2-1.2,0.7-1.7c0.5-0.5,1.1-0.7,1.7-0.7c0.6,0,1.2,0.2,1.7,0.7c0.5,0.5,0.7,1.1,0.7,1.7S36.7,141.3,36.2,141.8z M84.4,162.7
				c0,1.3-1.1,2.4-2.4,2.4c-1.3,0-2.4-1.1-2.4-2.4c0-1.3,1.1-2.4,2.4-2.4S84.4,161.3,84.4,162.7z M140.1,168.9
				c-0.9,0.9-2.5,0.9-3.4,0c-0.9-0.9-0.9-2.5,0-3.4c0.5-0.5,1.1-0.7,1.7-0.7s1.2,0.2,1.7,0.7C141.1,166.4,141.1,168,140.1,168.9z"/>
		</g>
	</g>
	<g>
		<g>
			<path class="st8" d="M122.5,96.1c0-4.5-3.3-8.3-7.8-9.6c0.1-0.6,0.2-1.1,0.2-1.7c0-4.3-3.8-7.8-8.5-7.8c-2.5,0-4.8,1-6.4,2.6
				C98.5,78,96.2,77,93.7,77c-4.7,0-8.5,3.5-8.5,7.8c0,0.6,0.1,1.1,0.2,1.7c-4.5,1.2-7.8,5.1-7.8,9.6c0,2.2,0.8,4.3,2.2,6
				c-1.4,1.8-2.2,4-2.2,6.4c0,3.6,1.9,6.9,5.1,9c0,0,0,0,0,0c0,4.9,4.4,8.9,9.7,8.9c3.1,0,5.8-1.3,7.6-3.4c1.8,2.1,4.5,3.4,7.6,3.4
				c5.2,0,9.4-3.7,9.7-8.3c3.1-1.8,5.1-5,5.1-8.5c0-2.5-1.1-4.9-2.9-6.8C121.4,101,122.5,98.6,122.5,96.1z M115,104.7
				c2,1.1,3.3,2.9,3.3,4.9c0,1.5-0.7,2.9-1.9,4c-1.1-2.1-3.1-3.7-5.6-4.5c-1.1-0.3-2.3,0.3-2.6,1.4c-0.3,1.1,0.3,2.3,1.4,2.6
				c2.2,0.7,3.6,2.4,3.6,4.4c0,2.6-2.5,4.7-5.5,4.7c-3,0-5.5-2.1-5.5-4.7V104c0-2.6,2.5-4.7,5.5-4.7c1.2,0,2.1-0.9,2.1-2.1
				c0-1.2-0.9-2.1-2.1-2.1c-2,0-3.9,0.6-5.5,1.6v-2.7c0-1.2-0.9-2.1-2.1-2.1c-1.2,0-2.1,0.9-2.1,2.1v11.7c-0.7-0.4-1.5-0.8-2.3-1.1
				c-1.1-0.3-2.3,0.3-2.6,1.4c-0.3,1.1,0.3,2.3,1.4,2.6c2.2,0.7,3.6,2.4,3.6,4.4v4.5c0,2.6-2.5,4.7-5.5,4.7c-3,0-5.5-2.1-5.5-4.7
				c0-1.1,0.5-2.2,1.3-3c0.8-0.8,0.8-2.2,0-3c-0.8-0.8-2.2-0.8-3,0c-0.5,0.5-0.9,1.1-1.3,1.6c-1.3-1.3-2.1-2.9-2.1-4.7
				c0-3.1,2.5-5.9,6-6.7c1.1-0.3,1.8-1.4,1.6-2.5c-0.3-1.1-1.4-1.8-2.5-1.6c-1.4,0.3-2.7,0.9-3.9,1.6c-0.7-0.9-1.2-2-1.2-3.2
				c0-3.2,3-5.8,6.7-5.8c0,0,0,0,0.1,0c0.5,0,1-0.2,1.4-0.5c0.8-0.7,1-1.8,0.4-2.7c0,0,0-0.1,0-0.1c0,0,0,0,0,0c0,0-0.1-0.1-0.1-0.1
				c0,0,0,0,0,0c-0.4-0.4-0.8-1.1-0.8-2c0-1.9,1.9-3.5,4.2-3.5c2.3,0,4.2,1.6,4.2,3.5c0,1.2,0.9,2.1,2.1,2.1c1.2,0,2.1-0.9,2.1-2.1
				c0-1.9,1.9-3.5,4.2-3.5s4.2,1.6,4.2,3.5c0,0.5-0.1,1-0.3,1.3c-1.2,0.1-2.4,0.4-3.5,0.9c-1.1,0.5-1.6,1.7-1.1,2.8
				c0.5,1.1,1.7,1.6,2.8,1.1c0.9-0.4,1.9-0.6,2.9-0.6c0,0,0,0,0.1,0c0,0,0,0,0.1,0c3.7,0,6.7,2.6,6.7,5.8c0,2-1.2,3.8-3.3,4.9
				c-0.7,0.4-1.1,1.1-1.1,1.9C113.9,103.6,114.3,104.3,115,104.7z"/>
		</g>
	</g>
</g>
</svg>
